M48
; DRILL file {KiCad 7.0.7} date Thu Apr 18 14:37:41 2024
; FORMAT={-:-/ absolute / inch / decimal}
; #@! TF.CreationDate,2024-04-18T14:37:41+02:00
; #@! TF.GenerationSoftware,Kicad,Pcbnew,7.0.7
; #@! TF.FileFunction,Plated,1,2,PTH
FMAT,2
INCH
; #@! TA.AperFunction,Plated,PTH,ViaDrill
T1C0.0157
; #@! TA.AperFunction,Plated,PTH,ComponentDrill
T2C0.0315
; #@! TA.AperFunction,Plated,PTH,ComponentDrill
T3C0.0402
; #@! TA.AperFunction,Plated,PTH,ComponentDrill
T4C0.0433
; #@! TA.AperFunction,Plated,PTH,ComponentDrill
T5C0.0512
%
G90
G05
T1
X4.8031Y-3.9961
X4.8425Y-4.1929
X5.34Y-4.2
X5.52Y-4.22
X6.3583Y-5.0197
X6.4567Y-5.0197
X7.0Y-4.3898
X7.44Y-4.54
T2
X6.6518Y-4.9213
X6.6929Y-5.1396
X6.6929Y-5.2183
X6.7305Y-4.9213
T3
X4.9797Y-2.948
X4.9797Y-3.048
X4.9797Y-3.148
X4.9797Y-3.248
X4.9797Y-3.348
X4.9797Y-3.448
X4.9797Y-3.548
X4.9797Y-3.648
X4.9797Y-3.748
X4.9797Y-3.848
X4.9797Y-3.948
X4.9797Y-4.048
X4.9797Y-4.148
X4.9797Y-4.248
X4.9797Y-4.348
X4.9797Y-4.448
X4.9797Y-4.548
X4.9797Y-4.648
X4.9797Y-4.748
X5.8797Y-2.948
X5.8797Y-3.048
X5.8797Y-3.148
X5.8797Y-3.248
X5.8797Y-3.348
X5.8797Y-3.448
X5.8797Y-3.548
X5.8797Y-3.648
X5.8797Y-3.748
X5.8797Y-3.848
X5.8797Y-3.948
X5.8797Y-4.048
X5.8797Y-4.148
X5.8797Y-4.248
X5.8797Y-4.348
X5.8797Y-4.448
X5.8797Y-4.548
X5.8797Y-4.648
X5.8797Y-4.748
X6.2157Y-3.6804
X6.2157Y-3.7804
X6.2157Y-3.8804
X6.2157Y-3.9804
X6.2157Y-4.0804
X6.2157Y-4.1804
X6.2157Y-4.2804
X6.2157Y-4.3804
X6.3104Y-2.7406
X6.3104Y-2.8406
X6.3104Y-2.9406
X6.3104Y-3.0406
X6.3104Y-3.1406
X6.3104Y-3.2406
X6.3104Y-3.3406
X6.3104Y-3.4406
X6.8157Y-3.6804
X6.8157Y-3.7804
X6.8157Y-3.8804
X6.8157Y-3.9804
X6.8157Y-4.0804
X6.8157Y-4.1804
X6.8157Y-4.2804
X6.8157Y-4.3804
T4
X6.9488Y-4.9213
X6.9488Y-5.0213
X6.9488Y-5.1213
T5
X4.43Y-3.86
X4.43Y-4.06
X7.62Y-4.54
X7.62Y-4.74
X7.64Y-3.6
X7.64Y-3.8
T0
M30
