%TF.GenerationSoftware,KiCad,Pcbnew,7.0.7*%
%TF.CreationDate,2024-04-18T14:37:37+02:00*%
%TF.ProjectId,Pendulo_invertido,50656e64-756c-46f5-9f69-6e7665727469,rev?*%
%TF.SameCoordinates,Original*%
%TF.FileFunction,Legend,Top*%
%TF.FilePolarity,Positive*%
%FSLAX46Y46*%
G04 Gerber Fmt 4.6, Leading zero omitted, Abs format (unit mm)*
G04 Created by KiCad (PCBNEW 7.0.7) date 2024-04-18 14:37:37*
%MOMM*%
%LPD*%
G01*
G04 APERTURE LIST*
%ADD10C,0.300000*%
%ADD11C,0.150000*%
%ADD12C,0.100000*%
%ADD13C,0.120000*%
G04 APERTURE END LIST*
D10*
X177592510Y-78032828D02*
X177592510Y-76532828D01*
X177592510Y-76532828D02*
X178092510Y-77604257D01*
X178092510Y-77604257D02*
X178592510Y-76532828D01*
X178592510Y-76532828D02*
X178592510Y-78032828D01*
X179949654Y-78032828D02*
X179949654Y-77247114D01*
X179949654Y-77247114D02*
X179878225Y-77104257D01*
X179878225Y-77104257D02*
X179735368Y-77032828D01*
X179735368Y-77032828D02*
X179449654Y-77032828D01*
X179449654Y-77032828D02*
X179306796Y-77104257D01*
X179949654Y-77961400D02*
X179806796Y-78032828D01*
X179806796Y-78032828D02*
X179449654Y-78032828D01*
X179449654Y-78032828D02*
X179306796Y-77961400D01*
X179306796Y-77961400D02*
X179235368Y-77818542D01*
X179235368Y-77818542D02*
X179235368Y-77675685D01*
X179235368Y-77675685D02*
X179306796Y-77532828D01*
X179306796Y-77532828D02*
X179449654Y-77461400D01*
X179449654Y-77461400D02*
X179806796Y-77461400D01*
X179806796Y-77461400D02*
X179949654Y-77389971D01*
X180663939Y-77032828D02*
X180663939Y-78032828D01*
X180663939Y-77175685D02*
X180735368Y-77104257D01*
X180735368Y-77104257D02*
X180878225Y-77032828D01*
X180878225Y-77032828D02*
X181092511Y-77032828D01*
X181092511Y-77032828D02*
X181235368Y-77104257D01*
X181235368Y-77104257D02*
X181306797Y-77247114D01*
X181306797Y-77247114D02*
X181306797Y-78032828D01*
X182663940Y-77032828D02*
X182663940Y-78032828D01*
X182021082Y-77032828D02*
X182021082Y-77818542D01*
X182021082Y-77818542D02*
X182092511Y-77961400D01*
X182092511Y-77961400D02*
X182235368Y-78032828D01*
X182235368Y-78032828D02*
X182449654Y-78032828D01*
X182449654Y-78032828D02*
X182592511Y-77961400D01*
X182592511Y-77961400D02*
X182663940Y-77889971D01*
X184806797Y-76532828D02*
X185092511Y-76532828D01*
X185092511Y-76532828D02*
X185235368Y-76604257D01*
X185235368Y-76604257D02*
X185378225Y-76747114D01*
X185378225Y-76747114D02*
X185449654Y-77032828D01*
X185449654Y-77032828D02*
X185449654Y-77532828D01*
X185449654Y-77532828D02*
X185378225Y-77818542D01*
X185378225Y-77818542D02*
X185235368Y-77961400D01*
X185235368Y-77961400D02*
X185092511Y-78032828D01*
X185092511Y-78032828D02*
X184806797Y-78032828D01*
X184806797Y-78032828D02*
X184663940Y-77961400D01*
X184663940Y-77961400D02*
X184521082Y-77818542D01*
X184521082Y-77818542D02*
X184449654Y-77532828D01*
X184449654Y-77532828D02*
X184449654Y-77032828D01*
X184449654Y-77032828D02*
X184521082Y-76747114D01*
X184521082Y-76747114D02*
X184663940Y-76604257D01*
X184663940Y-76604257D02*
X184806797Y-76532828D01*
X186735369Y-77032828D02*
X186735369Y-78032828D01*
X186092511Y-77032828D02*
X186092511Y-77818542D01*
X186092511Y-77818542D02*
X186163940Y-77961400D01*
X186163940Y-77961400D02*
X186306797Y-78032828D01*
X186306797Y-78032828D02*
X186521083Y-78032828D01*
X186521083Y-78032828D02*
X186663940Y-77961400D01*
X186663940Y-77961400D02*
X186735369Y-77889971D01*
X187449654Y-78032828D02*
X187449654Y-77032828D01*
X187449654Y-77318542D02*
X187521083Y-77175685D01*
X187521083Y-77175685D02*
X187592512Y-77104257D01*
X187592512Y-77104257D02*
X187735369Y-77032828D01*
X187735369Y-77032828D02*
X187878226Y-77032828D01*
X188378225Y-78032828D02*
X188378225Y-77032828D01*
X188378225Y-76532828D02*
X188306797Y-76604257D01*
X188306797Y-76604257D02*
X188378225Y-76675685D01*
X188378225Y-76675685D02*
X188449654Y-76604257D01*
X188449654Y-76604257D02*
X188378225Y-76532828D01*
X188378225Y-76532828D02*
X188378225Y-76675685D01*
X189306797Y-78032828D02*
X189163940Y-77961400D01*
X189163940Y-77961400D02*
X189092511Y-77818542D01*
X189092511Y-77818542D02*
X189092511Y-76532828D01*
X190092511Y-78032828D02*
X189949654Y-77961400D01*
X189949654Y-77961400D02*
X189878225Y-77818542D01*
X189878225Y-77818542D02*
X189878225Y-76532828D01*
X191235368Y-77961400D02*
X191092511Y-78032828D01*
X191092511Y-78032828D02*
X190806797Y-78032828D01*
X190806797Y-78032828D02*
X190663939Y-77961400D01*
X190663939Y-77961400D02*
X190592511Y-77818542D01*
X190592511Y-77818542D02*
X190592511Y-77247114D01*
X190592511Y-77247114D02*
X190663939Y-77104257D01*
X190663939Y-77104257D02*
X190806797Y-77032828D01*
X190806797Y-77032828D02*
X191092511Y-77032828D01*
X191092511Y-77032828D02*
X191235368Y-77104257D01*
X191235368Y-77104257D02*
X191306797Y-77247114D01*
X191306797Y-77247114D02*
X191306797Y-77389971D01*
X191306797Y-77389971D02*
X190592511Y-77532828D01*
D11*
X110426666Y-135954819D02*
X110093333Y-135478628D01*
X109855238Y-135954819D02*
X109855238Y-134954819D01*
X109855238Y-134954819D02*
X110236190Y-134954819D01*
X110236190Y-134954819D02*
X110331428Y-135002438D01*
X110331428Y-135002438D02*
X110379047Y-135050057D01*
X110379047Y-135050057D02*
X110426666Y-135145295D01*
X110426666Y-135145295D02*
X110426666Y-135288152D01*
X110426666Y-135288152D02*
X110379047Y-135383390D01*
X110379047Y-135383390D02*
X110331428Y-135431009D01*
X110331428Y-135431009D02*
X110236190Y-135478628D01*
X110236190Y-135478628D02*
X109855238Y-135478628D01*
X110855238Y-135431009D02*
X111188571Y-135431009D01*
X111331428Y-135954819D02*
X110855238Y-135954819D01*
X110855238Y-135954819D02*
X110855238Y-134954819D01*
X110855238Y-134954819D02*
X111331428Y-134954819D01*
X112093333Y-135431009D02*
X111760000Y-135431009D01*
X111760000Y-135954819D02*
X111760000Y-134954819D01*
X111760000Y-134954819D02*
X112236190Y-134954819D01*
X112760000Y-134954819D02*
X112760000Y-135192914D01*
X112521905Y-135097676D02*
X112760000Y-135192914D01*
X112760000Y-135192914D02*
X112998095Y-135097676D01*
X112617143Y-135383390D02*
X112760000Y-135192914D01*
X112760000Y-135192914D02*
X112902857Y-135383390D01*
X113521905Y-134954819D02*
X113521905Y-135192914D01*
X113283810Y-135097676D02*
X113521905Y-135192914D01*
X113521905Y-135192914D02*
X113760000Y-135097676D01*
X113379048Y-135383390D02*
X113521905Y-135192914D01*
X113521905Y-135192914D02*
X113664762Y-135383390D01*
X191706666Y-64834819D02*
X191373333Y-64358628D01*
X191135238Y-64834819D02*
X191135238Y-63834819D01*
X191135238Y-63834819D02*
X191516190Y-63834819D01*
X191516190Y-63834819D02*
X191611428Y-63882438D01*
X191611428Y-63882438D02*
X191659047Y-63930057D01*
X191659047Y-63930057D02*
X191706666Y-64025295D01*
X191706666Y-64025295D02*
X191706666Y-64168152D01*
X191706666Y-64168152D02*
X191659047Y-64263390D01*
X191659047Y-64263390D02*
X191611428Y-64311009D01*
X191611428Y-64311009D02*
X191516190Y-64358628D01*
X191516190Y-64358628D02*
X191135238Y-64358628D01*
X192135238Y-64311009D02*
X192468571Y-64311009D01*
X192611428Y-64834819D02*
X192135238Y-64834819D01*
X192135238Y-64834819D02*
X192135238Y-63834819D01*
X192135238Y-63834819D02*
X192611428Y-63834819D01*
X193373333Y-64311009D02*
X193040000Y-64311009D01*
X193040000Y-64834819D02*
X193040000Y-63834819D01*
X193040000Y-63834819D02*
X193516190Y-63834819D01*
X194040000Y-63834819D02*
X194040000Y-64072914D01*
X193801905Y-63977676D02*
X194040000Y-64072914D01*
X194040000Y-64072914D02*
X194278095Y-63977676D01*
X193897143Y-64263390D02*
X194040000Y-64072914D01*
X194040000Y-64072914D02*
X194182857Y-64263390D01*
X194801905Y-63834819D02*
X194801905Y-64072914D01*
X194563810Y-63977676D02*
X194801905Y-64072914D01*
X194801905Y-64072914D02*
X195040000Y-63977676D01*
X194659048Y-64263390D02*
X194801905Y-64072914D01*
X194801905Y-64072914D02*
X194944762Y-64263390D01*
X187250819Y-94313333D02*
X187965104Y-94313333D01*
X187965104Y-94313333D02*
X188107961Y-94360952D01*
X188107961Y-94360952D02*
X188203200Y-94456190D01*
X188203200Y-94456190D02*
X188250819Y-94599047D01*
X188250819Y-94599047D02*
X188250819Y-94694285D01*
X187250819Y-93360952D02*
X187250819Y-93837142D01*
X187250819Y-93837142D02*
X187727009Y-93884761D01*
X187727009Y-93884761D02*
X187679390Y-93837142D01*
X187679390Y-93837142D02*
X187631771Y-93741904D01*
X187631771Y-93741904D02*
X187631771Y-93503809D01*
X187631771Y-93503809D02*
X187679390Y-93408571D01*
X187679390Y-93408571D02*
X187727009Y-93360952D01*
X187727009Y-93360952D02*
X187822247Y-93313333D01*
X187822247Y-93313333D02*
X188060342Y-93313333D01*
X188060342Y-93313333D02*
X188155580Y-93360952D01*
X188155580Y-93360952D02*
X188203200Y-93408571D01*
X188203200Y-93408571D02*
X188250819Y-93503809D01*
X188250819Y-93503809D02*
X188250819Y-93741904D01*
X188250819Y-93741904D02*
X188203200Y-93837142D01*
X188203200Y-93837142D02*
X188155580Y-93884761D01*
D12*
X135882095Y-97197419D02*
X135882095Y-98006942D01*
X135882095Y-98006942D02*
X135929714Y-98102180D01*
X135929714Y-98102180D02*
X135977333Y-98149800D01*
X135977333Y-98149800D02*
X136072571Y-98197419D01*
X136072571Y-98197419D02*
X136263047Y-98197419D01*
X136263047Y-98197419D02*
X136358285Y-98149800D01*
X136358285Y-98149800D02*
X136405904Y-98102180D01*
X136405904Y-98102180D02*
X136453523Y-98006942D01*
X136453523Y-98006942D02*
X136453523Y-97197419D01*
X137453523Y-98197419D02*
X136882095Y-98197419D01*
X137167809Y-98197419D02*
X137167809Y-97197419D01*
X137167809Y-97197419D02*
X137072571Y-97340276D01*
X137072571Y-97340276D02*
X136977333Y-97435514D01*
X136977333Y-97435514D02*
X136882095Y-97483133D01*
D11*
X186742819Y-118189333D02*
X187457104Y-118189333D01*
X187457104Y-118189333D02*
X187599961Y-118236952D01*
X187599961Y-118236952D02*
X187695200Y-118332190D01*
X187695200Y-118332190D02*
X187742819Y-118475047D01*
X187742819Y-118475047D02*
X187742819Y-118570285D01*
X187742819Y-117189333D02*
X187742819Y-117760761D01*
X187742819Y-117475047D02*
X186742819Y-117475047D01*
X186742819Y-117475047D02*
X186885676Y-117570285D01*
X186885676Y-117570285D02*
X186980914Y-117665523D01*
X186980914Y-117665523D02*
X187028533Y-117760761D01*
D12*
X168401904Y-112302580D02*
X168401904Y-111493057D01*
X168401904Y-111493057D02*
X168354285Y-111397819D01*
X168354285Y-111397819D02*
X168306666Y-111350200D01*
X168306666Y-111350200D02*
X168211428Y-111302580D01*
X168211428Y-111302580D02*
X168020952Y-111302580D01*
X168020952Y-111302580D02*
X167925714Y-111350200D01*
X167925714Y-111350200D02*
X167878095Y-111397819D01*
X167878095Y-111397819D02*
X167830476Y-111493057D01*
X167830476Y-111493057D02*
X167830476Y-112302580D01*
X167401904Y-112207342D02*
X167354285Y-112254961D01*
X167354285Y-112254961D02*
X167259047Y-112302580D01*
X167259047Y-112302580D02*
X167020952Y-112302580D01*
X167020952Y-112302580D02*
X166925714Y-112254961D01*
X166925714Y-112254961D02*
X166878095Y-112207342D01*
X166878095Y-112207342D02*
X166830476Y-112112104D01*
X166830476Y-112112104D02*
X166830476Y-112016866D01*
X166830476Y-112016866D02*
X166878095Y-111874009D01*
X166878095Y-111874009D02*
X167449523Y-111302580D01*
X167449523Y-111302580D02*
X166830476Y-111302580D01*
D11*
X174109580Y-131711554D02*
X174157200Y-131759173D01*
X174157200Y-131759173D02*
X174204819Y-131902030D01*
X174204819Y-131902030D02*
X174204819Y-131997268D01*
X174204819Y-131997268D02*
X174157200Y-132140125D01*
X174157200Y-132140125D02*
X174061961Y-132235363D01*
X174061961Y-132235363D02*
X173966723Y-132282982D01*
X173966723Y-132282982D02*
X173776247Y-132330601D01*
X173776247Y-132330601D02*
X173633390Y-132330601D01*
X173633390Y-132330601D02*
X173442914Y-132282982D01*
X173442914Y-132282982D02*
X173347676Y-132235363D01*
X173347676Y-132235363D02*
X173252438Y-132140125D01*
X173252438Y-132140125D02*
X173204819Y-131997268D01*
X173204819Y-131997268D02*
X173204819Y-131902030D01*
X173204819Y-131902030D02*
X173252438Y-131759173D01*
X173252438Y-131759173D02*
X173300057Y-131711554D01*
X173300057Y-131330601D02*
X173252438Y-131282982D01*
X173252438Y-131282982D02*
X173204819Y-131187744D01*
X173204819Y-131187744D02*
X173204819Y-130949649D01*
X173204819Y-130949649D02*
X173252438Y-130854411D01*
X173252438Y-130854411D02*
X173300057Y-130806792D01*
X173300057Y-130806792D02*
X173395295Y-130759173D01*
X173395295Y-130759173D02*
X173490533Y-130759173D01*
X173490533Y-130759173D02*
X173633390Y-130806792D01*
X173633390Y-130806792D02*
X174204819Y-131378220D01*
X174204819Y-131378220D02*
X174204819Y-130759173D01*
X180224819Y-128301904D02*
X181034342Y-128301904D01*
X181034342Y-128301904D02*
X181129580Y-128254285D01*
X181129580Y-128254285D02*
X181177200Y-128206666D01*
X181177200Y-128206666D02*
X181224819Y-128111428D01*
X181224819Y-128111428D02*
X181224819Y-127920952D01*
X181224819Y-127920952D02*
X181177200Y-127825714D01*
X181177200Y-127825714D02*
X181129580Y-127778095D01*
X181129580Y-127778095D02*
X181034342Y-127730476D01*
X181034342Y-127730476D02*
X180224819Y-127730476D01*
X180224819Y-127349523D02*
X180224819Y-126730476D01*
X180224819Y-126730476D02*
X180605771Y-127063809D01*
X180605771Y-127063809D02*
X180605771Y-126920952D01*
X180605771Y-126920952D02*
X180653390Y-126825714D01*
X180653390Y-126825714D02*
X180701009Y-126778095D01*
X180701009Y-126778095D02*
X180796247Y-126730476D01*
X180796247Y-126730476D02*
X181034342Y-126730476D01*
X181034342Y-126730476D02*
X181129580Y-126778095D01*
X181129580Y-126778095D02*
X181177200Y-126825714D01*
X181177200Y-126825714D02*
X181224819Y-126920952D01*
X181224819Y-126920952D02*
X181224819Y-127206666D01*
X181224819Y-127206666D02*
X181177200Y-127301904D01*
X181177200Y-127301904D02*
X181129580Y-127349523D01*
X191706666Y-135954819D02*
X191373333Y-135478628D01*
X191135238Y-135954819D02*
X191135238Y-134954819D01*
X191135238Y-134954819D02*
X191516190Y-134954819D01*
X191516190Y-134954819D02*
X191611428Y-135002438D01*
X191611428Y-135002438D02*
X191659047Y-135050057D01*
X191659047Y-135050057D02*
X191706666Y-135145295D01*
X191706666Y-135145295D02*
X191706666Y-135288152D01*
X191706666Y-135288152D02*
X191659047Y-135383390D01*
X191659047Y-135383390D02*
X191611428Y-135431009D01*
X191611428Y-135431009D02*
X191516190Y-135478628D01*
X191516190Y-135478628D02*
X191135238Y-135478628D01*
X192135238Y-135431009D02*
X192468571Y-135431009D01*
X192611428Y-135954819D02*
X192135238Y-135954819D01*
X192135238Y-135954819D02*
X192135238Y-134954819D01*
X192135238Y-134954819D02*
X192611428Y-134954819D01*
X193373333Y-135431009D02*
X193040000Y-135431009D01*
X193040000Y-135954819D02*
X193040000Y-134954819D01*
X193040000Y-134954819D02*
X193516190Y-134954819D01*
X194040000Y-134954819D02*
X194040000Y-135192914D01*
X193801905Y-135097676D02*
X194040000Y-135192914D01*
X194040000Y-135192914D02*
X194278095Y-135097676D01*
X193897143Y-135383390D02*
X194040000Y-135192914D01*
X194040000Y-135192914D02*
X194182857Y-135383390D01*
X194801905Y-134954819D02*
X194801905Y-135192914D01*
X194563810Y-135097676D02*
X194801905Y-135192914D01*
X194801905Y-135192914D02*
X195040000Y-135097676D01*
X194659048Y-135383390D02*
X194801905Y-135192914D01*
X194801905Y-135192914D02*
X194944762Y-135383390D01*
X110426666Y-64834819D02*
X110093333Y-64358628D01*
X109855238Y-64834819D02*
X109855238Y-63834819D01*
X109855238Y-63834819D02*
X110236190Y-63834819D01*
X110236190Y-63834819D02*
X110331428Y-63882438D01*
X110331428Y-63882438D02*
X110379047Y-63930057D01*
X110379047Y-63930057D02*
X110426666Y-64025295D01*
X110426666Y-64025295D02*
X110426666Y-64168152D01*
X110426666Y-64168152D02*
X110379047Y-64263390D01*
X110379047Y-64263390D02*
X110331428Y-64311009D01*
X110331428Y-64311009D02*
X110236190Y-64358628D01*
X110236190Y-64358628D02*
X109855238Y-64358628D01*
X110855238Y-64311009D02*
X111188571Y-64311009D01*
X111331428Y-64834819D02*
X110855238Y-64834819D01*
X110855238Y-64834819D02*
X110855238Y-63834819D01*
X110855238Y-63834819D02*
X111331428Y-63834819D01*
X112093333Y-64311009D02*
X111760000Y-64311009D01*
X111760000Y-64834819D02*
X111760000Y-63834819D01*
X111760000Y-63834819D02*
X112236190Y-63834819D01*
X112760000Y-63834819D02*
X112760000Y-64072914D01*
X112521905Y-63977676D02*
X112760000Y-64072914D01*
X112760000Y-64072914D02*
X112998095Y-63977676D01*
X112617143Y-64263390D02*
X112760000Y-64072914D01*
X112760000Y-64072914D02*
X112902857Y-64263390D01*
X113521905Y-63834819D02*
X113521905Y-64072914D01*
X113283810Y-63977676D02*
X113521905Y-64072914D01*
X113521905Y-64072914D02*
X113760000Y-63977676D01*
X113379048Y-64263390D02*
X113521905Y-64072914D01*
X113521905Y-64072914D02*
X113664762Y-64263390D01*
D12*
X166928810Y-75147419D02*
X166928810Y-74147419D01*
X167976428Y-75052180D02*
X167928809Y-75099800D01*
X167928809Y-75099800D02*
X167785952Y-75147419D01*
X167785952Y-75147419D02*
X167690714Y-75147419D01*
X167690714Y-75147419D02*
X167547857Y-75099800D01*
X167547857Y-75099800D02*
X167452619Y-75004561D01*
X167452619Y-75004561D02*
X167405000Y-74909323D01*
X167405000Y-74909323D02*
X167357381Y-74718847D01*
X167357381Y-74718847D02*
X167357381Y-74575990D01*
X167357381Y-74575990D02*
X167405000Y-74385514D01*
X167405000Y-74385514D02*
X167452619Y-74290276D01*
X167452619Y-74290276D02*
X167547857Y-74195038D01*
X167547857Y-74195038D02*
X167690714Y-74147419D01*
X167690714Y-74147419D02*
X167785952Y-74147419D01*
X167785952Y-74147419D02*
X167928809Y-74195038D01*
X167928809Y-74195038D02*
X167976428Y-74242657D01*
X168928809Y-75147419D02*
X168357381Y-75147419D01*
X168643095Y-75147419D02*
X168643095Y-74147419D01*
X168643095Y-74147419D02*
X168547857Y-74290276D01*
X168547857Y-74290276D02*
X168452619Y-74385514D01*
X168452619Y-74385514D02*
X168357381Y-74433133D01*
D11*
X118236819Y-100917333D02*
X118951104Y-100917333D01*
X118951104Y-100917333D02*
X119093961Y-100964952D01*
X119093961Y-100964952D02*
X119189200Y-101060190D01*
X119189200Y-101060190D02*
X119236819Y-101203047D01*
X119236819Y-101203047D02*
X119236819Y-101298285D01*
X118236819Y-100536380D02*
X118236819Y-99917333D01*
X118236819Y-99917333D02*
X118617771Y-100250666D01*
X118617771Y-100250666D02*
X118617771Y-100107809D01*
X118617771Y-100107809D02*
X118665390Y-100012571D01*
X118665390Y-100012571D02*
X118713009Y-99964952D01*
X118713009Y-99964952D02*
X118808247Y-99917333D01*
X118808247Y-99917333D02*
X119046342Y-99917333D01*
X119046342Y-99917333D02*
X119141580Y-99964952D01*
X119141580Y-99964952D02*
X119189200Y-100012571D01*
X119189200Y-100012571D02*
X119236819Y-100107809D01*
X119236819Y-100107809D02*
X119236819Y-100393523D01*
X119236819Y-100393523D02*
X119189200Y-100488761D01*
X119189200Y-100488761D02*
X119141580Y-100536380D01*
X167473333Y-128375580D02*
X167425714Y-128423200D01*
X167425714Y-128423200D02*
X167282857Y-128470819D01*
X167282857Y-128470819D02*
X167187619Y-128470819D01*
X167187619Y-128470819D02*
X167044762Y-128423200D01*
X167044762Y-128423200D02*
X166949524Y-128327961D01*
X166949524Y-128327961D02*
X166901905Y-128232723D01*
X166901905Y-128232723D02*
X166854286Y-128042247D01*
X166854286Y-128042247D02*
X166854286Y-127899390D01*
X166854286Y-127899390D02*
X166901905Y-127708914D01*
X166901905Y-127708914D02*
X166949524Y-127613676D01*
X166949524Y-127613676D02*
X167044762Y-127518438D01*
X167044762Y-127518438D02*
X167187619Y-127470819D01*
X167187619Y-127470819D02*
X167282857Y-127470819D01*
X167282857Y-127470819D02*
X167425714Y-127518438D01*
X167425714Y-127518438D02*
X167473333Y-127566057D01*
X168425714Y-128470819D02*
X167854286Y-128470819D01*
X168140000Y-128470819D02*
X168140000Y-127470819D01*
X168140000Y-127470819D02*
X168044762Y-127613676D01*
X168044762Y-127613676D02*
X167949524Y-127708914D01*
X167949524Y-127708914D02*
X167854286Y-127756533D01*
D13*
%TO.C,J5*%
X198216000Y-99360000D02*
X198956000Y-99360000D01*
X198956000Y-99360000D02*
X198956000Y-98860000D01*
X188795000Y-99120000D02*
X198716000Y-99120000D01*
X188795000Y-99120000D02*
X188795000Y-88840000D01*
X191755000Y-99120000D02*
X191755000Y-88840000D01*
X196656000Y-99120000D02*
X196656000Y-88840000D01*
X198156000Y-99120000D02*
X198156000Y-88840000D01*
X198716000Y-99120000D02*
X198716000Y-88840000D01*
X195079000Y-92667000D02*
X195125000Y-92714000D01*
X195295000Y-92474000D02*
X195330000Y-92509000D01*
X192781000Y-90370000D02*
X192817000Y-90405000D01*
X192987000Y-90165000D02*
X193033000Y-90212000D01*
X188795000Y-88840000D02*
X198716000Y-88840000D01*
X193372001Y-98054999D02*
G75*
G03*
X194739042Y-98055426I684000J1534992D01*
G01*
X192521001Y-95836001D02*
G75*
G03*
X192520574Y-97203042I1534992J-684000D01*
G01*
X195590999Y-97204000D02*
G75*
G03*
X195736252Y-96491195I-1535000J683999D01*
G01*
X195735999Y-96520000D02*
G75*
G03*
X195590755Y-95836682I-1679999J0D01*
G01*
X194740000Y-94985000D02*
G75*
G03*
X193372958Y-94984574I-684000J-1535000D01*
G01*
X195736000Y-91440000D02*
G75*
G03*
X195736000Y-91440000I-1680000J0D01*
G01*
D12*
%TO.C,U1*%
X123944000Y-74626000D02*
X124960000Y-73610000D01*
X123944000Y-73610000D02*
X151884000Y-73610000D01*
X151884000Y-73610000D02*
X151884000Y-121870000D01*
X151884000Y-121870000D02*
X123944000Y-121870000D01*
X123944000Y-121870000D02*
X123944000Y-73610000D01*
X129024000Y-67514000D02*
X146804000Y-67514000D01*
X146804000Y-67514000D02*
X146804000Y-73610000D01*
X146804000Y-73610000D02*
X129024000Y-73610000D01*
X129024000Y-73610000D02*
X129024000Y-67514000D01*
D13*
%TO.C,J1*%
X197708000Y-123236000D02*
X198448000Y-123236000D01*
X198448000Y-123236000D02*
X198448000Y-122736000D01*
X188287000Y-122996000D02*
X198208000Y-122996000D01*
X188287000Y-122996000D02*
X188287000Y-112716000D01*
X191247000Y-122996000D02*
X191247000Y-112716000D01*
X196148000Y-122996000D02*
X196148000Y-112716000D01*
X197648000Y-122996000D02*
X197648000Y-112716000D01*
X198208000Y-122996000D02*
X198208000Y-112716000D01*
X194571000Y-116543000D02*
X194617000Y-116590000D01*
X194787000Y-116350000D02*
X194822000Y-116385000D01*
X192273000Y-114246000D02*
X192309000Y-114281000D01*
X192479000Y-114041000D02*
X192525000Y-114088000D01*
X188287000Y-112716000D02*
X198208000Y-112716000D01*
X192864001Y-121930999D02*
G75*
G03*
X194231042Y-121931426I684000J1534992D01*
G01*
X192013001Y-119712001D02*
G75*
G03*
X192012574Y-121079042I1534992J-684000D01*
G01*
X195082999Y-121080000D02*
G75*
G03*
X195228252Y-120367195I-1535000J683999D01*
G01*
X195227999Y-120396000D02*
G75*
G03*
X195082755Y-119712682I-1679999J0D01*
G01*
X194232000Y-118861000D02*
G75*
G03*
X192864958Y-118860574I-684000J-1535000D01*
G01*
X195228000Y-115316000D02*
G75*
G03*
X195228000Y-115316000I-1680000J0D01*
G01*
D12*
%TO.C,U2*%
X175025000Y-111898000D02*
X173882000Y-113041000D01*
X175025000Y-113041000D02*
X155975000Y-113041000D01*
X155975000Y-113041000D02*
X155975000Y-91959000D01*
X155975000Y-91959000D02*
X175025000Y-91959000D01*
X175025000Y-91959000D02*
X175025000Y-113041000D01*
D13*
%TO.C,C2*%
X171475000Y-128740113D02*
X171475000Y-129240113D01*
X171725000Y-128990113D02*
X171225000Y-128990113D01*
X172580000Y-131544888D02*
X171040000Y-131544888D01*
X168960000Y-131544888D02*
X167420000Y-131544888D01*
X172580000Y-131584888D02*
X171040000Y-131584888D01*
X168960000Y-131584888D02*
X167420000Y-131584888D01*
X172579000Y-131624888D02*
X171040000Y-131624888D01*
X168960000Y-131624888D02*
X167421000Y-131624888D01*
X172578000Y-131664888D02*
X171040000Y-131664888D01*
X168960000Y-131664888D02*
X167422000Y-131664888D01*
X172576000Y-131704888D02*
X171040000Y-131704888D01*
X168960000Y-131704888D02*
X167424000Y-131704888D01*
X172573000Y-131744888D02*
X171040000Y-131744888D01*
X168960000Y-131744888D02*
X167427000Y-131744888D01*
X172569000Y-131784888D02*
X171040000Y-131784888D01*
X168960000Y-131784888D02*
X167431000Y-131784888D01*
X172565000Y-131824888D02*
X171040000Y-131824888D01*
X168960000Y-131824888D02*
X167435000Y-131824888D01*
X172561000Y-131864888D02*
X171040000Y-131864888D01*
X168960000Y-131864888D02*
X167439000Y-131864888D01*
X172556000Y-131904888D02*
X171040000Y-131904888D01*
X168960000Y-131904888D02*
X167444000Y-131904888D01*
X172550000Y-131944888D02*
X171040000Y-131944888D01*
X168960000Y-131944888D02*
X167450000Y-131944888D01*
X172543000Y-131984888D02*
X171040000Y-131984888D01*
X168960000Y-131984888D02*
X167457000Y-131984888D01*
X172536000Y-132024888D02*
X171040000Y-132024888D01*
X168960000Y-132024888D02*
X167464000Y-132024888D01*
X172528000Y-132064888D02*
X171040000Y-132064888D01*
X168960000Y-132064888D02*
X167472000Y-132064888D01*
X172520000Y-132104888D02*
X171040000Y-132104888D01*
X168960000Y-132104888D02*
X167480000Y-132104888D01*
X172511000Y-132144888D02*
X171040000Y-132144888D01*
X168960000Y-132144888D02*
X167489000Y-132144888D01*
X172501000Y-132184888D02*
X171040000Y-132184888D01*
X168960000Y-132184888D02*
X167499000Y-132184888D01*
X172491000Y-132224888D02*
X171040000Y-132224888D01*
X168960000Y-132224888D02*
X167509000Y-132224888D01*
X172480000Y-132265888D02*
X171040000Y-132265888D01*
X168960000Y-132265888D02*
X167520000Y-132265888D01*
X172468000Y-132305888D02*
X171040000Y-132305888D01*
X168960000Y-132305888D02*
X167532000Y-132305888D01*
X172455000Y-132345888D02*
X171040000Y-132345888D01*
X168960000Y-132345888D02*
X167545000Y-132345888D01*
X172442000Y-132385888D02*
X171040000Y-132385888D01*
X168960000Y-132385888D02*
X167558000Y-132385888D01*
X172428000Y-132425888D02*
X171040000Y-132425888D01*
X168960000Y-132425888D02*
X167572000Y-132425888D01*
X172414000Y-132465888D02*
X171040000Y-132465888D01*
X168960000Y-132465888D02*
X167586000Y-132465888D01*
X172398000Y-132505888D02*
X171040000Y-132505888D01*
X168960000Y-132505888D02*
X167602000Y-132505888D01*
X172382000Y-132545888D02*
X171040000Y-132545888D01*
X168960000Y-132545888D02*
X167618000Y-132545888D01*
X172365000Y-132585888D02*
X171040000Y-132585888D01*
X168960000Y-132585888D02*
X167635000Y-132585888D01*
X172348000Y-132625888D02*
X171040000Y-132625888D01*
X168960000Y-132625888D02*
X167652000Y-132625888D01*
X172329000Y-132665888D02*
X171040000Y-132665888D01*
X168960000Y-132665888D02*
X167671000Y-132665888D01*
X172310000Y-132705888D02*
X171040000Y-132705888D01*
X168960000Y-132705888D02*
X167690000Y-132705888D01*
X172290000Y-132745888D02*
X171040000Y-132745888D01*
X168960000Y-132745888D02*
X167710000Y-132745888D01*
X172268000Y-132785888D02*
X171040000Y-132785888D01*
X168960000Y-132785888D02*
X167732000Y-132785888D01*
X172247000Y-132825888D02*
X171040000Y-132825888D01*
X168960000Y-132825888D02*
X167753000Y-132825888D01*
X172224000Y-132865888D02*
X171040000Y-132865888D01*
X168960000Y-132865888D02*
X167776000Y-132865888D01*
X172200000Y-132905888D02*
X171040000Y-132905888D01*
X168960000Y-132905888D02*
X167800000Y-132905888D01*
X172175000Y-132945888D02*
X171040000Y-132945888D01*
X168960000Y-132945888D02*
X167825000Y-132945888D01*
X172149000Y-132985888D02*
X171040000Y-132985888D01*
X168960000Y-132985888D02*
X167851000Y-132985888D01*
X172122000Y-133025888D02*
X171040000Y-133025888D01*
X168960000Y-133025888D02*
X167878000Y-133025888D01*
X172095000Y-133065888D02*
X171040000Y-133065888D01*
X168960000Y-133065888D02*
X167905000Y-133065888D01*
X172065000Y-133105888D02*
X171040000Y-133105888D01*
X168960000Y-133105888D02*
X167935000Y-133105888D01*
X172035000Y-133145888D02*
X171040000Y-133145888D01*
X168960000Y-133145888D02*
X167965000Y-133145888D01*
X172004000Y-133185888D02*
X171040000Y-133185888D01*
X168960000Y-133185888D02*
X167996000Y-133185888D01*
X171971000Y-133225888D02*
X171040000Y-133225888D01*
X168960000Y-133225888D02*
X168029000Y-133225888D01*
X171937000Y-133265888D02*
X171040000Y-133265888D01*
X168960000Y-133265888D02*
X168063000Y-133265888D01*
X171901000Y-133305888D02*
X171040000Y-133305888D01*
X168960000Y-133305888D02*
X168099000Y-133305888D01*
X171864000Y-133345888D02*
X171040000Y-133345888D01*
X168960000Y-133345888D02*
X168136000Y-133345888D01*
X171826000Y-133385888D02*
X171040000Y-133385888D01*
X168960000Y-133385888D02*
X168174000Y-133385888D01*
X171785000Y-133425888D02*
X171040000Y-133425888D01*
X168960000Y-133425888D02*
X168215000Y-133425888D01*
X171743000Y-133465888D02*
X171040000Y-133465888D01*
X168960000Y-133465888D02*
X168257000Y-133465888D01*
X171699000Y-133505888D02*
X171040000Y-133505888D01*
X168960000Y-133505888D02*
X168301000Y-133505888D01*
X171653000Y-133545888D02*
X171040000Y-133545888D01*
X168960000Y-133545888D02*
X168347000Y-133545888D01*
X171605000Y-133585888D02*
X168395000Y-133585888D01*
X171554000Y-133625888D02*
X168446000Y-133625888D01*
X171500000Y-133665888D02*
X168500000Y-133665888D01*
X171443000Y-133705888D02*
X168557000Y-133705888D01*
X171383000Y-133745888D02*
X168617000Y-133745888D01*
X171319000Y-133785888D02*
X168681000Y-133785888D01*
X171251000Y-133825888D02*
X168749000Y-133825888D01*
X171178000Y-133865888D02*
X168822000Y-133865888D01*
X171098000Y-133905888D02*
X168902000Y-133905888D01*
X171011000Y-133945888D02*
X168989000Y-133945888D01*
X170915000Y-133985888D02*
X169085000Y-133985888D01*
X170805000Y-134025888D02*
X169195000Y-134025888D01*
X170677000Y-134065888D02*
X169323000Y-134065888D01*
X170518000Y-134105888D02*
X169482000Y-134105888D01*
X170284000Y-134145888D02*
X169716000Y-134145888D01*
X172620000Y-131544888D02*
G75*
G03*
X172620000Y-131544888I-2620000J0D01*
G01*
%TO.C,U3*%
X179770000Y-122420000D02*
X175129000Y-122420000D01*
X179770000Y-122420000D02*
X179770000Y-132660000D01*
X178260000Y-122420000D02*
X178260000Y-132660000D01*
X175129000Y-122420000D02*
X175129000Y-132660000D01*
X179770000Y-125690000D02*
X178260000Y-125690000D01*
X179770000Y-129391000D02*
X178260000Y-129391000D01*
X179770000Y-132660000D02*
X175129000Y-132660000D01*
D12*
%TO.C,IC1*%
X158507000Y-69102000D02*
X159015000Y-68594000D01*
X158507000Y-68594000D02*
X173493000Y-68594000D01*
X173493000Y-68594000D02*
X173493000Y-88406000D01*
X173493000Y-88406000D02*
X158507000Y-88406000D01*
X158507000Y-88406000D02*
X158507000Y-68594000D01*
X172574832Y-70626000D02*
G75*
G03*
X172574832Y-70626000I-1367832J0D01*
G01*
X172688062Y-86374000D02*
G75*
G03*
X172688062Y-86374000I-1481062J0D01*
G01*
D13*
%TO.C,J3*%
X108362000Y-95204000D02*
X107622000Y-95204000D01*
X107622000Y-95204000D02*
X107622000Y-95704000D01*
X117783000Y-95444000D02*
X107862000Y-95444000D01*
X117783000Y-95444000D02*
X117783000Y-105724000D01*
X114823000Y-95444000D02*
X114823000Y-105724000D01*
X109922000Y-95444000D02*
X109922000Y-105724000D01*
X108422000Y-95444000D02*
X108422000Y-105724000D01*
X107862000Y-95444000D02*
X107862000Y-105724000D01*
X111499000Y-101897000D02*
X111453000Y-101850000D01*
X111283000Y-102090000D02*
X111248000Y-102055000D01*
X113797000Y-104194000D02*
X113761000Y-104159000D01*
X113591000Y-104399000D02*
X113545000Y-104352000D01*
X117783000Y-105724000D02*
X107862000Y-105724000D01*
X113205999Y-96509001D02*
G75*
G03*
X111838958Y-96508574I-684000J-1534992D01*
G01*
X114056999Y-98727999D02*
G75*
G03*
X114057426Y-97360958I-1534992J684000D01*
G01*
X110987001Y-97360000D02*
G75*
G03*
X110841748Y-98072805I1535000J-683999D01*
G01*
X110842001Y-98044000D02*
G75*
G03*
X110987245Y-98727318I1679999J0D01*
G01*
X111838000Y-99579000D02*
G75*
G03*
X113205042Y-99579426I684000J1535000D01*
G01*
X114202000Y-103124000D02*
G75*
G03*
X114202000Y-103124000I-1680000J0D01*
G01*
%TO.C,C1*%
X172759888Y-126475000D02*
X172259888Y-126475000D01*
X172509888Y-126725000D02*
X172509888Y-126225000D01*
X169955113Y-127580000D02*
X169955113Y-126040000D01*
X169955113Y-123960000D02*
X169955113Y-122420000D01*
X169915113Y-127580000D02*
X169915113Y-126040000D01*
X169915113Y-123960000D02*
X169915113Y-122420000D01*
X169875113Y-127579000D02*
X169875113Y-126040000D01*
X169875113Y-123960000D02*
X169875113Y-122421000D01*
X169835113Y-127578000D02*
X169835113Y-126040000D01*
X169835113Y-123960000D02*
X169835113Y-122422000D01*
X169795113Y-127576000D02*
X169795113Y-126040000D01*
X169795113Y-123960000D02*
X169795113Y-122424000D01*
X169755113Y-127573000D02*
X169755113Y-126040000D01*
X169755113Y-123960000D02*
X169755113Y-122427000D01*
X169715113Y-127569000D02*
X169715113Y-126040000D01*
X169715113Y-123960000D02*
X169715113Y-122431000D01*
X169675113Y-127565000D02*
X169675113Y-126040000D01*
X169675113Y-123960000D02*
X169675113Y-122435000D01*
X169635113Y-127561000D02*
X169635113Y-126040000D01*
X169635113Y-123960000D02*
X169635113Y-122439000D01*
X169595113Y-127556000D02*
X169595113Y-126040000D01*
X169595113Y-123960000D02*
X169595113Y-122444000D01*
X169555113Y-127550000D02*
X169555113Y-126040000D01*
X169555113Y-123960000D02*
X169555113Y-122450000D01*
X169515113Y-127543000D02*
X169515113Y-126040000D01*
X169515113Y-123960000D02*
X169515113Y-122457000D01*
X169475113Y-127536000D02*
X169475113Y-126040000D01*
X169475113Y-123960000D02*
X169475113Y-122464000D01*
X169435113Y-127528000D02*
X169435113Y-126040000D01*
X169435113Y-123960000D02*
X169435113Y-122472000D01*
X169395113Y-127520000D02*
X169395113Y-126040000D01*
X169395113Y-123960000D02*
X169395113Y-122480000D01*
X169355113Y-127511000D02*
X169355113Y-126040000D01*
X169355113Y-123960000D02*
X169355113Y-122489000D01*
X169315113Y-127501000D02*
X169315113Y-126040000D01*
X169315113Y-123960000D02*
X169315113Y-122499000D01*
X169275113Y-127491000D02*
X169275113Y-126040000D01*
X169275113Y-123960000D02*
X169275113Y-122509000D01*
X169234113Y-127480000D02*
X169234113Y-126040000D01*
X169234113Y-123960000D02*
X169234113Y-122520000D01*
X169194113Y-127468000D02*
X169194113Y-126040000D01*
X169194113Y-123960000D02*
X169194113Y-122532000D01*
X169154113Y-127455000D02*
X169154113Y-126040000D01*
X169154113Y-123960000D02*
X169154113Y-122545000D01*
X169114113Y-127442000D02*
X169114113Y-126040000D01*
X169114113Y-123960000D02*
X169114113Y-122558000D01*
X169074113Y-127428000D02*
X169074113Y-126040000D01*
X169074113Y-123960000D02*
X169074113Y-122572000D01*
X169034113Y-127414000D02*
X169034113Y-126040000D01*
X169034113Y-123960000D02*
X169034113Y-122586000D01*
X168994113Y-127398000D02*
X168994113Y-126040000D01*
X168994113Y-123960000D02*
X168994113Y-122602000D01*
X168954113Y-127382000D02*
X168954113Y-126040000D01*
X168954113Y-123960000D02*
X168954113Y-122618000D01*
X168914113Y-127365000D02*
X168914113Y-126040000D01*
X168914113Y-123960000D02*
X168914113Y-122635000D01*
X168874113Y-127348000D02*
X168874113Y-126040000D01*
X168874113Y-123960000D02*
X168874113Y-122652000D01*
X168834113Y-127329000D02*
X168834113Y-126040000D01*
X168834113Y-123960000D02*
X168834113Y-122671000D01*
X168794113Y-127310000D02*
X168794113Y-126040000D01*
X168794113Y-123960000D02*
X168794113Y-122690000D01*
X168754113Y-127290000D02*
X168754113Y-126040000D01*
X168754113Y-123960000D02*
X168754113Y-122710000D01*
X168714113Y-127268000D02*
X168714113Y-126040000D01*
X168714113Y-123960000D02*
X168714113Y-122732000D01*
X168674113Y-127247000D02*
X168674113Y-126040000D01*
X168674113Y-123960000D02*
X168674113Y-122753000D01*
X168634113Y-127224000D02*
X168634113Y-126040000D01*
X168634113Y-123960000D02*
X168634113Y-122776000D01*
X168594113Y-127200000D02*
X168594113Y-126040000D01*
X168594113Y-123960000D02*
X168594113Y-122800000D01*
X168554113Y-127175000D02*
X168554113Y-126040000D01*
X168554113Y-123960000D02*
X168554113Y-122825000D01*
X168514113Y-127149000D02*
X168514113Y-126040000D01*
X168514113Y-123960000D02*
X168514113Y-122851000D01*
X168474113Y-127122000D02*
X168474113Y-126040000D01*
X168474113Y-123960000D02*
X168474113Y-122878000D01*
X168434113Y-127095000D02*
X168434113Y-126040000D01*
X168434113Y-123960000D02*
X168434113Y-122905000D01*
X168394113Y-127065000D02*
X168394113Y-126040000D01*
X168394113Y-123960000D02*
X168394113Y-122935000D01*
X168354113Y-127035000D02*
X168354113Y-126040000D01*
X168354113Y-123960000D02*
X168354113Y-122965000D01*
X168314113Y-127004000D02*
X168314113Y-126040000D01*
X168314113Y-123960000D02*
X168314113Y-122996000D01*
X168274113Y-126971000D02*
X168274113Y-126040000D01*
X168274113Y-123960000D02*
X168274113Y-123029000D01*
X168234113Y-126937000D02*
X168234113Y-126040000D01*
X168234113Y-123960000D02*
X168234113Y-123063000D01*
X168194113Y-126901000D02*
X168194113Y-126040000D01*
X168194113Y-123960000D02*
X168194113Y-123099000D01*
X168154113Y-126864000D02*
X168154113Y-126040000D01*
X168154113Y-123960000D02*
X168154113Y-123136000D01*
X168114113Y-126826000D02*
X168114113Y-126040000D01*
X168114113Y-123960000D02*
X168114113Y-123174000D01*
X168074113Y-126785000D02*
X168074113Y-126040000D01*
X168074113Y-123960000D02*
X168074113Y-123215000D01*
X168034113Y-126743000D02*
X168034113Y-126040000D01*
X168034113Y-123960000D02*
X168034113Y-123257000D01*
X167994113Y-126699000D02*
X167994113Y-126040000D01*
X167994113Y-123960000D02*
X167994113Y-123301000D01*
X167954113Y-126653000D02*
X167954113Y-126040000D01*
X167954113Y-123960000D02*
X167954113Y-123347000D01*
X167914113Y-126605000D02*
X167914113Y-123395000D01*
X167874113Y-126554000D02*
X167874113Y-123446000D01*
X167834113Y-126500000D02*
X167834113Y-123500000D01*
X167794113Y-126443000D02*
X167794113Y-123557000D01*
X167754113Y-126383000D02*
X167754113Y-123617000D01*
X167714113Y-126319000D02*
X167714113Y-123681000D01*
X167674113Y-126251000D02*
X167674113Y-123749000D01*
X167634113Y-126178000D02*
X167634113Y-123822000D01*
X167594113Y-126098000D02*
X167594113Y-123902000D01*
X167554113Y-126011000D02*
X167554113Y-123989000D01*
X167514113Y-125915000D02*
X167514113Y-124085000D01*
X167474113Y-125805000D02*
X167474113Y-124195000D01*
X167434113Y-125677000D02*
X167434113Y-124323000D01*
X167394113Y-125518000D02*
X167394113Y-124482000D01*
X167354113Y-125284000D02*
X167354113Y-124716000D01*
X172575113Y-125000000D02*
G75*
G03*
X172575113Y-125000000I-2620000J0D01*
G01*
%TD*%
M02*
