%TF.GenerationSoftware,KiCad,Pcbnew,7.0.7*%
%TF.CreationDate,2024-04-18T13:26:18+02:00*%
%TF.ProjectId,Pendulo_invertido,50656e64-756c-46f5-9f69-6e7665727469,rev?*%
%TF.SameCoordinates,Original*%
%TF.FileFunction,Copper,L2,Bot*%
%TF.FilePolarity,Positive*%
%FSLAX46Y46*%
G04 Gerber Fmt 4.6, Leading zero omitted, Abs format (unit mm)*
G04 Created by KiCad (PCBNEW 7.0.7) date 2024-04-18 13:26:18*
%MOMM*%
%LPD*%
G01*
G04 APERTURE LIST*
%TA.AperFunction,ComponentPad*%
%ADD10R,2.600000X2.600000*%
%TD*%
%TA.AperFunction,ComponentPad*%
%ADD11C,2.600000*%
%TD*%
%TA.AperFunction,ComponentPad*%
%ADD12C,1.524000*%
%TD*%
%TA.AperFunction,ComponentPad*%
%ADD13R,1.600000X1.600000*%
%TD*%
%TA.AperFunction,ComponentPad*%
%ADD14C,1.600000*%
%TD*%
%TA.AperFunction,ComponentPad*%
%ADD15R,2.000000X1.905000*%
%TD*%
%TA.AperFunction,ComponentPad*%
%ADD16O,2.000000X1.905000*%
%TD*%
%TA.AperFunction,ViaPad*%
%ADD17C,0.800000*%
%TD*%
%TA.AperFunction,Conductor*%
%ADD18C,0.250000*%
%TD*%
%TA.AperFunction,Conductor*%
%ADD19C,1.500000*%
%TD*%
G04 APERTURE END LIST*
D10*
%TO.P,J5,1,Pin_1*%
%TO.N,B01*%
X205740000Y-101600000D03*
D11*
%TO.P,J5,2,Pin_2*%
%TO.N,B02*%
X205740000Y-96520000D03*
%TD*%
D12*
%TO.P,U1,1,3V3*%
%TO.N,Net-(IC1-VCC)*%
X126484000Y-74880000D03*
%TO.P,U1,2,EN*%
%TO.N,unconnected-(U1-EN-Pad2)*%
X126484000Y-77420000D03*
%TO.P,U1,3,VP*%
%TO.N,unconnected-(U1-VP-Pad3)*%
X126484000Y-79960000D03*
%TO.P,U1,4,VN*%
%TO.N,unconnected-(U1-VN-Pad4)*%
X126484000Y-82500000D03*
%TO.P,U1,5,IO34*%
%TO.N,unconnected-(U1-IO34-Pad5)*%
X126484000Y-85040000D03*
%TO.P,U1,6,IO35*%
%TO.N,unconnected-(U1-IO35-Pad6)*%
X126484000Y-87580000D03*
%TO.P,U1,7,IO32*%
%TO.N,unconnected-(U1-IO32-Pad7)*%
X126484000Y-90120000D03*
%TO.P,U1,8,IO33*%
%TO.N,STBY*%
X126484000Y-92660000D03*
%TO.P,U1,9,IO25*%
%TO.N,PWMB*%
X126484000Y-95200000D03*
%TO.P,U1,10,IO26*%
%TO.N,PWMA*%
X126484000Y-97740000D03*
%TO.P,U1,11,IO27*%
%TO.N,BIN2*%
X126484000Y-100280000D03*
%TO.P,U1,12,IO14*%
%TO.N,AIN2*%
X126484000Y-102820000D03*
%TO.P,U1,13,IO12*%
%TO.N,BIN1*%
X126484000Y-105360000D03*
%TO.P,U1,14,GND*%
%TO.N,GND*%
X126484000Y-107900000D03*
%TO.P,U1,15,IO13*%
%TO.N,AIN1*%
X126484000Y-110440000D03*
%TO.P,U1,16,D2*%
%TO.N,unconnected-(U1-D2-Pad16)*%
X126484000Y-112980000D03*
%TO.P,U1,17,D3*%
%TO.N,unconnected-(U1-D3-Pad17)*%
X126484000Y-115520000D03*
%TO.P,U1,18,CMD*%
%TO.N,unconnected-(U1-CMD-Pad18)*%
X126484000Y-118060000D03*
%TO.P,U1,19,5V*%
%TO.N,Net-(U1-5V)*%
X126484000Y-120600000D03*
%TO.P,U1,20,CLK*%
%TO.N,unconnected-(U1-CLK-Pad20)*%
X149344000Y-120600000D03*
%TO.P,U1,21,D0*%
%TO.N,unconnected-(U1-D0-Pad21)*%
X149344000Y-118060000D03*
%TO.P,U1,22,D1*%
%TO.N,unconnected-(U1-D1-Pad22)*%
X149344000Y-115520000D03*
%TO.P,U1,23,IO15*%
%TO.N,unconnected-(U1-IO15-Pad23)*%
X149344000Y-112980000D03*
%TO.P,U1,24,IO2*%
%TO.N,unconnected-(U1-IO2-Pad24)*%
X149344000Y-110440000D03*
%TO.P,U1,25,IO0*%
%TO.N,unconnected-(U1-IO0-Pad25)*%
X149344000Y-107900000D03*
%TO.P,U1,26,IO4*%
%TO.N,unconnected-(U1-IO4-Pad26)*%
X149344000Y-105360000D03*
%TO.P,U1,27,IO16*%
%TO.N,unconnected-(U1-IO16-Pad27)*%
X149344000Y-102820000D03*
%TO.P,U1,28,IO17*%
%TO.N,unconnected-(U1-IO17-Pad28)*%
X149344000Y-100280000D03*
%TO.P,U1,29,IO5*%
%TO.N,unconnected-(U1-IO5-Pad29)*%
X149344000Y-97740000D03*
%TO.P,U1,30,IO18*%
%TO.N,unconnected-(U1-IO18-Pad30)*%
X149344000Y-95200000D03*
%TO.P,U1,31,IO19*%
%TO.N,unconnected-(U1-IO19-Pad31)*%
X149344000Y-92660000D03*
%TO.P,U1,32,GND*%
%TO.N,GND*%
X149344000Y-90120000D03*
%TO.P,U1,33,IO21*%
%TO.N,Net-(IC1-SDA)*%
X149344000Y-87580000D03*
%TO.P,U1,34,Bx*%
%TO.N,unconnected-(U1-Bx-Pad34)*%
X149344000Y-85040000D03*
%TO.P,U1,35,Tx*%
%TO.N,unconnected-(U1-Tx-Pad35)*%
X149344000Y-82500000D03*
%TO.P,U1,36,IO22*%
%TO.N,Net-(IC1-SCL)*%
X149344000Y-79960000D03*
%TO.P,U1,37,IO23*%
%TO.N,unconnected-(U1-IO23-Pad37)*%
X149344000Y-77420000D03*
%TO.P,U1,38,GND*%
%TO.N,GND*%
X149344000Y-74880000D03*
%TD*%
D10*
%TO.P,J1,1,Pin_1*%
%TO.N,GND*%
X205740000Y-121920000D03*
D11*
%TO.P,J1,2,Pin_2*%
%TO.N,Net-(J1-Pin_2)*%
X205740000Y-116840000D03*
%TD*%
D12*
%TO.P,U2,1,VM*%
%TO.N,Net-(J1-Pin_2)*%
X173120000Y-111263000D03*
%TO.P,U2,2,VCC*%
%TO.N,Net-(IC1-VCC)*%
X173120000Y-108723000D03*
%TO.P,U2,3,GND*%
%TO.N,GND*%
X173120000Y-106183000D03*
%TO.P,U2,4,A01*%
%TO.N,A01*%
X173120000Y-103643000D03*
%TO.P,U2,5,A02*%
%TO.N,A02*%
X173120000Y-101103000D03*
%TO.P,U2,6,B01*%
%TO.N,B01*%
X173120000Y-98563000D03*
%TO.P,U2,7,B01*%
%TO.N,B02*%
X173120000Y-96023000D03*
%TO.P,U2,8,GND*%
%TO.N,GND*%
X173120000Y-93483000D03*
%TO.P,U2,9,GND*%
X157880000Y-111263000D03*
%TO.P,U2,10,PWMB*%
%TO.N,PWMB*%
X157880000Y-108723000D03*
%TO.P,U2,11,BIN2*%
%TO.N,BIN2*%
X157880000Y-106183000D03*
%TO.P,U2,12,BIN1*%
%TO.N,BIN1*%
X157880000Y-103643000D03*
%TO.P,U2,13,STBY*%
%TO.N,STBY*%
X157880000Y-101103000D03*
%TO.P,U2,14,AIN1*%
%TO.N,AIN1*%
X157880000Y-98563000D03*
%TO.P,U2,15,AIN2*%
%TO.N,AIN2*%
X157880000Y-96023000D03*
%TO.P,U2,16,PWMA*%
%TO.N,PWMA*%
X157880000Y-93483000D03*
%TD*%
D13*
%TO.P,C2,1*%
%TO.N,Net-(U1-5V)*%
X170000000Y-130544888D03*
D14*
%TO.P,C2,2*%
%TO.N,GND*%
X170000000Y-132544888D03*
%TD*%
D15*
%TO.P,U3,1,VI*%
%TO.N,Net-(J1-Pin_2)*%
X176500000Y-125000000D03*
D16*
%TO.P,U3,2,GND*%
%TO.N,GND*%
X176500000Y-127540000D03*
%TO.P,U3,3,VO*%
%TO.N,Net-(U1-5V)*%
X176500000Y-130080000D03*
%TD*%
D12*
%TO.P,IC1,1,VCC*%
%TO.N,Net-(IC1-VCC)*%
X160285000Y-69610000D03*
%TO.P,IC1,2,GND*%
%TO.N,GND*%
X160285000Y-72150000D03*
%TO.P,IC1,3,SCL*%
%TO.N,Net-(IC1-SCL)*%
X160285000Y-74690000D03*
%TO.P,IC1,4,SDA*%
%TO.N,Net-(IC1-SDA)*%
X160285000Y-77230000D03*
%TO.P,IC1,5,XDA*%
%TO.N,unconnected-(IC1-XDA-Pad5)*%
X160285000Y-79770000D03*
%TO.P,IC1,6,XCL*%
%TO.N,unconnected-(IC1-XCL-Pad6)*%
X160285000Y-82310000D03*
%TO.P,IC1,7,ADO*%
%TO.N,unconnected-(IC1-ADO-Pad7)*%
X160285000Y-84850000D03*
%TO.P,IC1,8,INT*%
%TO.N,unconnected-(IC1-INT-Pad8)*%
X160285000Y-87390000D03*
%TD*%
D10*
%TO.P,J3,1,Pin_1*%
%TO.N,A01*%
X111252000Y-97028000D03*
D11*
%TO.P,J3,2,Pin_2*%
%TO.N,A02*%
X111252000Y-102108000D03*
%TD*%
D13*
%TO.P,C1,1*%
%TO.N,Net-(J1-Pin_2)*%
X170955113Y-125000000D03*
D14*
%TO.P,C1,2*%
%TO.N,GND*%
X168955113Y-125000000D03*
%TD*%
D17*
%TO.N,PWMA*%
X164000000Y-127500000D03*
X122000000Y-101500000D03*
%TO.N,BIN2*%
X140208000Y-107188000D03*
X135636000Y-106680000D03*
%TO.N,AIN2*%
X123000000Y-106500000D03*
X161500000Y-127500000D03*
%TO.N,Net-(J1-Pin_2)*%
X201676000Y-116840000D03*
X188976000Y-115316000D03*
%TD*%
D18*
%TO.N,PWMB*%
X154929000Y-108723000D02*
X157880000Y-108723000D01*
X138176000Y-121412000D02*
X141224000Y-124460000D01*
X133808000Y-95200000D02*
X138176000Y-99568000D01*
X153416000Y-110236000D02*
X154929000Y-108723000D01*
X150876000Y-124460000D02*
X153416000Y-121920000D01*
X138176000Y-99568000D02*
X138176000Y-121412000D01*
X153416000Y-121920000D02*
X153416000Y-110236000D01*
X126484000Y-95200000D02*
X133808000Y-95200000D01*
X141224000Y-124460000D02*
X150876000Y-124460000D01*
%TO.N,PWMA*%
X132000000Y-134500000D02*
X120500000Y-123000000D01*
X120500000Y-123000000D02*
X120500000Y-103000000D01*
X120500000Y-103000000D02*
X122000000Y-101500000D01*
X164000000Y-127500000D02*
X164000000Y-133000000D01*
X164000000Y-133000000D02*
X162500000Y-134500000D01*
X162500000Y-134500000D02*
X132000000Y-134500000D01*
%TO.N,BIN2*%
X157880000Y-106183000D02*
X155945000Y-106183000D01*
X142240000Y-123444000D02*
X141224000Y-122428000D01*
X135636000Y-103124000D02*
X132792000Y-100280000D01*
X135636000Y-106680000D02*
X135636000Y-103124000D01*
X141224000Y-122428000D02*
X141224000Y-108204000D01*
X149860000Y-123444000D02*
X142240000Y-123444000D01*
X155945000Y-106183000D02*
X152400000Y-109728000D01*
X152400000Y-109728000D02*
X152400000Y-120904000D01*
X132792000Y-100280000D02*
X126484000Y-100280000D01*
X152400000Y-120904000D02*
X149860000Y-123444000D01*
X141224000Y-108204000D02*
X140208000Y-107188000D01*
%TO.N,AIN2*%
X161500000Y-132000000D02*
X161000000Y-132500000D01*
X132500000Y-132500000D02*
X125000000Y-125000000D01*
X125000000Y-125000000D02*
X123000000Y-123000000D01*
X161000000Y-132500000D02*
X132500000Y-132500000D01*
X161500000Y-127500000D02*
X161500000Y-132000000D01*
X123000000Y-123000000D02*
X123000000Y-106500000D01*
D19*
%TO.N,Net-(J1-Pin_2)*%
X188976000Y-115316000D02*
X200152000Y-115316000D01*
X200152000Y-115316000D02*
X201676000Y-116840000D01*
%TD*%
%TA.AperFunction,Conductor*%
%TO.N,GND*%
G36*
X127943039Y-60980185D02*
G01*
X127988794Y-61032989D01*
X128000000Y-61084500D01*
X128000000Y-74000000D01*
X148000000Y-74000000D01*
X148000000Y-66107763D01*
X206425787Y-66107763D01*
X206455413Y-66377013D01*
X206455415Y-66377024D01*
X206523926Y-66639082D01*
X206523928Y-66639088D01*
X206629870Y-66888390D01*
X206701998Y-67006575D01*
X206770979Y-67119605D01*
X206770986Y-67119615D01*
X206944253Y-67327819D01*
X206944259Y-67327824D01*
X207145998Y-67508582D01*
X207371910Y-67658044D01*
X207617176Y-67773020D01*
X207617183Y-67773022D01*
X207617185Y-67773023D01*
X207876557Y-67851057D01*
X207876564Y-67851058D01*
X207876569Y-67851060D01*
X208144561Y-67890500D01*
X208144566Y-67890500D01*
X208347636Y-67890500D01*
X208399133Y-67886730D01*
X208550156Y-67875677D01*
X208662758Y-67850593D01*
X208814546Y-67816782D01*
X208814548Y-67816781D01*
X208814553Y-67816780D01*
X209067558Y-67720014D01*
X209303777Y-67587441D01*
X209518177Y-67421888D01*
X209706186Y-67226881D01*
X209863799Y-67006579D01*
X209937787Y-66862669D01*
X209987649Y-66765690D01*
X209987651Y-66765684D01*
X209987656Y-66765675D01*
X210075118Y-66509305D01*
X210124319Y-66242933D01*
X210134212Y-65972235D01*
X210104586Y-65702982D01*
X210036072Y-65440912D01*
X209930130Y-65191610D01*
X209789018Y-64960390D01*
X209699747Y-64853119D01*
X209615746Y-64752180D01*
X209615740Y-64752175D01*
X209414002Y-64571418D01*
X209188092Y-64421957D01*
X209188090Y-64421956D01*
X208942824Y-64306980D01*
X208942819Y-64306978D01*
X208942814Y-64306976D01*
X208683442Y-64228942D01*
X208683428Y-64228939D01*
X208567791Y-64211921D01*
X208415439Y-64189500D01*
X208212369Y-64189500D01*
X208212364Y-64189500D01*
X208009844Y-64204323D01*
X208009831Y-64204325D01*
X207745453Y-64263217D01*
X207745446Y-64263220D01*
X207492439Y-64359987D01*
X207256226Y-64492557D01*
X207041822Y-64658112D01*
X206853822Y-64853109D01*
X206853816Y-64853116D01*
X206696202Y-65073419D01*
X206696199Y-65073424D01*
X206572350Y-65314309D01*
X206572343Y-65314327D01*
X206484884Y-65570685D01*
X206484881Y-65570699D01*
X206435681Y-65837068D01*
X206435680Y-65837075D01*
X206425787Y-66107763D01*
X148000000Y-66107763D01*
X148000000Y-61084500D01*
X148019685Y-61017461D01*
X148072489Y-60971706D01*
X148124000Y-60960500D01*
X213235500Y-60960500D01*
X213302539Y-60980185D01*
X213348294Y-61032989D01*
X213359500Y-61084500D01*
X213359500Y-149735500D01*
X213339815Y-149802539D01*
X213287011Y-149848294D01*
X213235500Y-149859500D01*
X104772500Y-149859500D01*
X104705461Y-149839815D01*
X104659706Y-149787011D01*
X104648500Y-149735500D01*
X104648500Y-144847763D01*
X107365787Y-144847763D01*
X107395413Y-145117013D01*
X107395415Y-145117024D01*
X107463926Y-145379082D01*
X107463928Y-145379088D01*
X107569870Y-145628390D01*
X107641998Y-145746575D01*
X107710979Y-145859605D01*
X107710986Y-145859615D01*
X107884253Y-146067819D01*
X107884259Y-146067824D01*
X108085998Y-146248582D01*
X108311910Y-146398044D01*
X108557176Y-146513020D01*
X108557183Y-146513022D01*
X108557185Y-146513023D01*
X108816557Y-146591057D01*
X108816564Y-146591058D01*
X108816569Y-146591060D01*
X109084561Y-146630500D01*
X109084566Y-146630500D01*
X109287636Y-146630500D01*
X109339133Y-146626730D01*
X109490156Y-146615677D01*
X109602758Y-146590593D01*
X109754546Y-146556782D01*
X109754548Y-146556781D01*
X109754553Y-146556780D01*
X110007558Y-146460014D01*
X110243777Y-146327441D01*
X110458177Y-146161888D01*
X110646186Y-145966881D01*
X110803799Y-145746579D01*
X110877787Y-145602669D01*
X110927649Y-145505690D01*
X110927651Y-145505684D01*
X110927656Y-145505675D01*
X111015118Y-145249305D01*
X111064319Y-144982933D01*
X111069259Y-144847763D01*
X206425787Y-144847763D01*
X206455413Y-145117013D01*
X206455415Y-145117024D01*
X206523926Y-145379082D01*
X206523928Y-145379088D01*
X206629870Y-145628390D01*
X206701998Y-145746575D01*
X206770979Y-145859605D01*
X206770986Y-145859615D01*
X206944253Y-146067819D01*
X206944259Y-146067824D01*
X207145998Y-146248582D01*
X207371910Y-146398044D01*
X207617176Y-146513020D01*
X207617183Y-146513022D01*
X207617185Y-146513023D01*
X207876557Y-146591057D01*
X207876564Y-146591058D01*
X207876569Y-146591060D01*
X208144561Y-146630500D01*
X208144566Y-146630500D01*
X208347636Y-146630500D01*
X208399133Y-146626730D01*
X208550156Y-146615677D01*
X208662758Y-146590593D01*
X208814546Y-146556782D01*
X208814548Y-146556781D01*
X208814553Y-146556780D01*
X209067558Y-146460014D01*
X209303777Y-146327441D01*
X209518177Y-146161888D01*
X209706186Y-145966881D01*
X209863799Y-145746579D01*
X209937787Y-145602669D01*
X209987649Y-145505690D01*
X209987651Y-145505684D01*
X209987656Y-145505675D01*
X210075118Y-145249305D01*
X210124319Y-144982933D01*
X210134212Y-144712235D01*
X210104586Y-144442982D01*
X210036072Y-144180912D01*
X209930130Y-143931610D01*
X209789018Y-143700390D01*
X209699747Y-143593119D01*
X209615746Y-143492180D01*
X209615740Y-143492175D01*
X209414002Y-143311418D01*
X209188092Y-143161957D01*
X209188090Y-143161956D01*
X208942824Y-143046980D01*
X208942819Y-143046978D01*
X208942814Y-143046976D01*
X208683442Y-142968942D01*
X208683428Y-142968939D01*
X208567791Y-142951921D01*
X208415439Y-142929500D01*
X208212369Y-142929500D01*
X208212364Y-142929500D01*
X208009844Y-142944323D01*
X208009831Y-142944325D01*
X207745453Y-143003217D01*
X207745446Y-143003220D01*
X207492439Y-143099987D01*
X207256226Y-143232557D01*
X207041822Y-143398112D01*
X206853822Y-143593109D01*
X206853816Y-143593116D01*
X206696202Y-143813419D01*
X206696199Y-143813424D01*
X206572350Y-144054309D01*
X206572343Y-144054327D01*
X206484884Y-144310685D01*
X206484881Y-144310699D01*
X206435681Y-144577068D01*
X206435680Y-144577075D01*
X206425787Y-144847763D01*
X111069259Y-144847763D01*
X111074212Y-144712235D01*
X111044586Y-144442982D01*
X110976072Y-144180912D01*
X110870130Y-143931610D01*
X110729018Y-143700390D01*
X110639747Y-143593119D01*
X110555746Y-143492180D01*
X110555740Y-143492175D01*
X110354002Y-143311418D01*
X110128092Y-143161957D01*
X110128090Y-143161956D01*
X109882824Y-143046980D01*
X109882819Y-143046978D01*
X109882814Y-143046976D01*
X109623442Y-142968942D01*
X109623428Y-142968939D01*
X109507791Y-142951921D01*
X109355439Y-142929500D01*
X109152369Y-142929500D01*
X109152364Y-142929500D01*
X108949844Y-142944323D01*
X108949831Y-142944325D01*
X108685453Y-143003217D01*
X108685446Y-143003220D01*
X108432439Y-143099987D01*
X108196226Y-143232557D01*
X107981822Y-143398112D01*
X107793822Y-143593109D01*
X107793816Y-143593116D01*
X107636202Y-143813419D01*
X107636199Y-143813424D01*
X107512350Y-144054309D01*
X107512343Y-144054327D01*
X107424884Y-144310685D01*
X107424881Y-144310699D01*
X107375681Y-144577068D01*
X107375680Y-144577075D01*
X107365787Y-144847763D01*
X104648500Y-144847763D01*
X104648500Y-102108004D01*
X109446451Y-102108004D01*
X109466616Y-102377101D01*
X109526664Y-102640188D01*
X109526666Y-102640195D01*
X109618275Y-102873610D01*
X109625257Y-102891398D01*
X109760185Y-103125102D01*
X109865806Y-103257546D01*
X109928442Y-103336089D01*
X110022043Y-103422937D01*
X110126259Y-103519635D01*
X110349226Y-103671651D01*
X110592359Y-103788738D01*
X110850228Y-103868280D01*
X110850229Y-103868280D01*
X110850232Y-103868281D01*
X111117063Y-103908499D01*
X111117068Y-103908499D01*
X111117071Y-103908500D01*
X111117072Y-103908500D01*
X111386928Y-103908500D01*
X111386929Y-103908500D01*
X111386936Y-103908499D01*
X111653767Y-103868281D01*
X111653768Y-103868280D01*
X111653772Y-103868280D01*
X111911641Y-103788738D01*
X112154775Y-103671651D01*
X112377741Y-103519635D01*
X112564044Y-103346771D01*
X112575557Y-103336089D01*
X112575557Y-103336087D01*
X112575561Y-103336085D01*
X112743815Y-103125102D01*
X112827475Y-102980197D01*
X119869839Y-102980197D01*
X119874224Y-103026585D01*
X119874499Y-103032421D01*
X119874499Y-122917261D01*
X119872776Y-122932878D01*
X119873060Y-122932905D01*
X119872326Y-122940664D01*
X119874500Y-123009814D01*
X119874500Y-123039343D01*
X119874501Y-123039360D01*
X119875368Y-123046231D01*
X119875826Y-123052050D01*
X119877290Y-123098624D01*
X119877291Y-123098627D01*
X119882880Y-123117867D01*
X119886824Y-123136911D01*
X119889336Y-123156791D01*
X119906490Y-123200119D01*
X119908382Y-123205647D01*
X119921381Y-123250388D01*
X119931580Y-123267634D01*
X119940138Y-123285103D01*
X119947514Y-123303732D01*
X119974898Y-123341423D01*
X119978106Y-123346307D01*
X120001827Y-123386416D01*
X120001833Y-123386424D01*
X120015990Y-123400580D01*
X120028628Y-123415376D01*
X120040405Y-123431586D01*
X120040406Y-123431587D01*
X120076309Y-123461288D01*
X120080620Y-123465210D01*
X128654991Y-132039582D01*
X131499197Y-134883788D01*
X131509022Y-134896051D01*
X131509243Y-134895869D01*
X131514214Y-134901878D01*
X131535043Y-134921437D01*
X131564635Y-134949226D01*
X131585529Y-134970120D01*
X131591011Y-134974373D01*
X131595443Y-134978157D01*
X131629418Y-135010062D01*
X131646976Y-135019714D01*
X131663233Y-135030393D01*
X131679064Y-135042673D01*
X131698737Y-135051186D01*
X131721833Y-135061182D01*
X131727077Y-135063750D01*
X131767908Y-135086197D01*
X131780523Y-135089435D01*
X131787305Y-135091177D01*
X131805719Y-135097481D01*
X131824104Y-135105438D01*
X131870157Y-135112732D01*
X131875826Y-135113906D01*
X131920981Y-135125500D01*
X131941016Y-135125500D01*
X131960413Y-135127026D01*
X131980196Y-135130160D01*
X132026583Y-135125775D01*
X132032422Y-135125500D01*
X162417257Y-135125500D01*
X162432877Y-135127224D01*
X162432904Y-135126939D01*
X162440660Y-135127671D01*
X162440667Y-135127673D01*
X162509814Y-135125500D01*
X162539350Y-135125500D01*
X162546228Y-135124630D01*
X162552041Y-135124172D01*
X162598627Y-135122709D01*
X162617869Y-135117117D01*
X162636912Y-135113174D01*
X162656792Y-135110664D01*
X162700122Y-135093507D01*
X162705646Y-135091617D01*
X162709396Y-135090527D01*
X162750390Y-135078618D01*
X162767629Y-135068422D01*
X162785103Y-135059862D01*
X162803727Y-135052488D01*
X162803727Y-135052487D01*
X162803732Y-135052486D01*
X162841449Y-135025082D01*
X162846305Y-135021892D01*
X162886420Y-134998170D01*
X162900589Y-134983999D01*
X162915379Y-134971368D01*
X162931587Y-134959594D01*
X162961299Y-134923676D01*
X162965212Y-134919376D01*
X164383787Y-133500802D01*
X164396042Y-133490986D01*
X164395859Y-133490764D01*
X164401866Y-133485792D01*
X164401877Y-133485786D01*
X164432775Y-133452882D01*
X164449227Y-133435364D01*
X164459671Y-133424918D01*
X164470120Y-133414471D01*
X164474379Y-133408978D01*
X164478152Y-133404561D01*
X164510062Y-133370582D01*
X164519713Y-133353024D01*
X164530396Y-133336761D01*
X164542673Y-133320936D01*
X164561185Y-133278153D01*
X164563738Y-133272941D01*
X164586197Y-133232092D01*
X164591180Y-133212680D01*
X164597481Y-133194280D01*
X164605437Y-133175896D01*
X164612729Y-133129852D01*
X164613906Y-133124171D01*
X164625500Y-133079019D01*
X164625500Y-133058982D01*
X164627027Y-133039582D01*
X164629321Y-133025098D01*
X164630160Y-133019804D01*
X164625775Y-132973415D01*
X164625500Y-132967577D01*
X164625500Y-132544890D01*
X168695034Y-132544890D01*
X168714858Y-132771487D01*
X168714860Y-132771498D01*
X168773730Y-132991205D01*
X168773734Y-132991214D01*
X168869865Y-133197369D01*
X168869866Y-133197371D01*
X168920973Y-133270359D01*
X168920973Y-133270360D01*
X169462580Y-132728753D01*
X169523903Y-132695268D01*
X169593594Y-132700252D01*
X169649528Y-132742123D01*
X169660742Y-132760134D01*
X169666527Y-132771487D01*
X169672358Y-132782932D01*
X169672363Y-132782938D01*
X169761949Y-132872524D01*
X169761951Y-132872525D01*
X169761955Y-132872529D01*
X169784747Y-132884142D01*
X169835542Y-132932116D01*
X169852337Y-132999937D01*
X169829799Y-133066072D01*
X169816132Y-133082307D01*
X169274526Y-133623913D01*
X169274526Y-133623914D01*
X169347512Y-133675019D01*
X169347516Y-133675021D01*
X169553673Y-133771153D01*
X169553682Y-133771157D01*
X169773389Y-133830027D01*
X169773400Y-133830029D01*
X169999998Y-133849854D01*
X170000002Y-133849854D01*
X170226599Y-133830029D01*
X170226610Y-133830027D01*
X170446317Y-133771157D01*
X170446331Y-133771152D01*
X170652478Y-133675024D01*
X170725472Y-133623913D01*
X170183866Y-133082307D01*
X170150381Y-133020984D01*
X170155365Y-132951292D01*
X170197237Y-132895359D01*
X170215245Y-132884146D01*
X170238045Y-132872529D01*
X170327641Y-132782933D01*
X170339254Y-132760140D01*
X170387225Y-132709346D01*
X170455046Y-132692549D01*
X170521181Y-132715085D01*
X170537419Y-132728754D01*
X171079025Y-133270360D01*
X171130136Y-133197366D01*
X171226264Y-132991219D01*
X171226269Y-132991205D01*
X171285139Y-132771498D01*
X171285141Y-132771487D01*
X171304966Y-132544890D01*
X171304966Y-132544885D01*
X171285141Y-132318288D01*
X171285139Y-132318277D01*
X171226269Y-132098570D01*
X171226265Y-132098561D01*
X171130134Y-131892406D01*
X171130130Y-131892400D01*
X171121188Y-131879628D01*
X171098861Y-131813422D01*
X171115873Y-131745655D01*
X171148454Y-131709239D01*
X171157546Y-131702434D01*
X171243796Y-131587219D01*
X171294091Y-131452371D01*
X171300500Y-131392761D01*
X171300499Y-130200397D01*
X174999500Y-130200397D01*
X175039134Y-130437916D01*
X175117318Y-130665656D01*
X175117321Y-130665665D01*
X175231929Y-130877441D01*
X175275451Y-130933358D01*
X175379829Y-131067463D01*
X175556990Y-131230551D01*
X175758578Y-131362255D01*
X175979095Y-131458983D01*
X176212524Y-131518095D01*
X176392400Y-131533000D01*
X176392402Y-131533000D01*
X176607598Y-131533000D01*
X176607600Y-131533000D01*
X176787476Y-131518095D01*
X177020905Y-131458983D01*
X177241422Y-131362255D01*
X177443010Y-131230551D01*
X177620171Y-131067463D01*
X177768072Y-130877439D01*
X177882679Y-130665664D01*
X177960866Y-130437913D01*
X178000500Y-130200399D01*
X178000500Y-129959601D01*
X177960866Y-129722087D01*
X177952259Y-129697017D01*
X177885501Y-129502557D01*
X177882679Y-129494336D01*
X177768072Y-129282561D01*
X177620171Y-129092537D01*
X177443010Y-128929449D01*
X177443007Y-128929446D01*
X177418614Y-128913510D01*
X177373257Y-128860364D01*
X177363833Y-128791132D01*
X177393335Y-128727796D01*
X177418616Y-128705891D01*
X177442701Y-128690155D01*
X177442702Y-128690154D01*
X177619797Y-128527126D01*
X177619806Y-128527116D01*
X177767649Y-128337168D01*
X177767655Y-128337159D01*
X177882215Y-128125468D01*
X177882221Y-128125454D01*
X177960380Y-127897791D01*
X177978367Y-127790000D01*
X177166956Y-127790000D01*
X177099917Y-127770315D01*
X177054162Y-127717511D01*
X177043245Y-127657537D01*
X177044392Y-127640772D01*
X177053877Y-127502114D01*
X177040809Y-127439227D01*
X177046443Y-127369586D01*
X177088834Y-127314045D01*
X177154523Y-127290239D01*
X177162216Y-127290000D01*
X177978366Y-127290000D01*
X177978366Y-127289999D01*
X177960380Y-127182208D01*
X177882221Y-126954545D01*
X177882215Y-126954531D01*
X177767655Y-126742840D01*
X177767649Y-126742831D01*
X177656675Y-126600252D01*
X177631032Y-126535258D01*
X177644598Y-126466719D01*
X177693067Y-126416394D01*
X177711194Y-126407909D01*
X177726209Y-126402308D01*
X177742327Y-126396298D01*
X177742329Y-126396296D01*
X177742331Y-126396296D01*
X177857546Y-126310046D01*
X177943796Y-126194831D01*
X177994091Y-126059983D01*
X178000500Y-126000373D01*
X178000499Y-123999628D01*
X177994091Y-123940017D01*
X177957702Y-123842454D01*
X177943797Y-123805171D01*
X177943793Y-123805164D01*
X177857547Y-123689955D01*
X177857544Y-123689952D01*
X177742335Y-123603706D01*
X177742328Y-123603702D01*
X177607482Y-123553408D01*
X177607483Y-123553408D01*
X177547883Y-123547001D01*
X177547881Y-123547000D01*
X177547873Y-123547000D01*
X177547864Y-123547000D01*
X175452129Y-123547000D01*
X175452123Y-123547001D01*
X175392516Y-123553408D01*
X175257671Y-123603702D01*
X175257664Y-123603706D01*
X175142455Y-123689952D01*
X175142452Y-123689955D01*
X175056206Y-123805164D01*
X175056202Y-123805171D01*
X175005908Y-123940017D01*
X174999501Y-123999616D01*
X174999501Y-123999623D01*
X174999500Y-123999635D01*
X174999500Y-126000370D01*
X174999501Y-126000376D01*
X175005908Y-126059983D01*
X175056202Y-126194828D01*
X175056206Y-126194835D01*
X175142452Y-126310044D01*
X175142455Y-126310047D01*
X175257664Y-126396293D01*
X175257671Y-126396297D01*
X175257674Y-126396298D01*
X175288802Y-126407907D01*
X175344736Y-126449777D01*
X175369155Y-126515241D01*
X175354305Y-126583514D01*
X175343325Y-126600252D01*
X175232345Y-126742838D01*
X175232344Y-126742840D01*
X175117784Y-126954531D01*
X175117778Y-126954545D01*
X175039619Y-127182208D01*
X175021633Y-127289999D01*
X175021634Y-127290000D01*
X175833044Y-127290000D01*
X175900083Y-127309685D01*
X175945838Y-127362489D01*
X175956755Y-127422463D01*
X175956441Y-127427045D01*
X175956441Y-127427047D01*
X175946123Y-127577886D01*
X175959191Y-127640772D01*
X175953557Y-127710414D01*
X175911166Y-127765955D01*
X175845477Y-127789761D01*
X175837784Y-127790000D01*
X175021633Y-127790000D01*
X175039619Y-127897791D01*
X175117778Y-128125454D01*
X175117784Y-128125468D01*
X175232344Y-128337159D01*
X175232350Y-128337168D01*
X175380193Y-128527116D01*
X175380202Y-128527126D01*
X175557297Y-128690154D01*
X175557296Y-128690154D01*
X175581385Y-128705892D01*
X175626742Y-128759038D01*
X175636166Y-128828269D01*
X175606664Y-128891605D01*
X175581389Y-128913507D01*
X175556994Y-128929446D01*
X175556988Y-128929450D01*
X175379832Y-129092534D01*
X175379829Y-129092537D01*
X175336305Y-129148456D01*
X175231929Y-129282558D01*
X175117321Y-129494334D01*
X175117318Y-129494343D01*
X175039134Y-129722083D01*
X174999500Y-129959602D01*
X174999500Y-130200397D01*
X171300499Y-130200397D01*
X171300499Y-129697016D01*
X171294091Y-129637405D01*
X171243796Y-129502557D01*
X171243795Y-129502556D01*
X171243793Y-129502552D01*
X171157547Y-129387343D01*
X171157544Y-129387340D01*
X171042335Y-129301094D01*
X171042328Y-129301090D01*
X170907482Y-129250796D01*
X170907483Y-129250796D01*
X170847883Y-129244389D01*
X170847881Y-129244388D01*
X170847873Y-129244388D01*
X170847864Y-129244388D01*
X169152129Y-129244388D01*
X169152123Y-129244389D01*
X169092516Y-129250796D01*
X168957671Y-129301090D01*
X168957664Y-129301094D01*
X168842455Y-129387340D01*
X168842452Y-129387343D01*
X168756206Y-129502552D01*
X168756202Y-129502559D01*
X168705908Y-129637405D01*
X168699501Y-129697004D01*
X168699501Y-129697011D01*
X168699500Y-129697023D01*
X168699500Y-131392758D01*
X168699501Y-131392764D01*
X168705908Y-131452371D01*
X168756202Y-131587216D01*
X168756206Y-131587223D01*
X168842452Y-131702432D01*
X168842453Y-131702432D01*
X168842454Y-131702434D01*
X168851545Y-131709239D01*
X168893416Y-131765170D01*
X168898402Y-131834862D01*
X168878813Y-131879624D01*
X168869871Y-131892395D01*
X168869868Y-131892400D01*
X168773734Y-132098561D01*
X168773730Y-132098570D01*
X168714860Y-132318277D01*
X168714858Y-132318288D01*
X168695034Y-132544885D01*
X168695034Y-132544890D01*
X164625500Y-132544890D01*
X164625500Y-128198687D01*
X164645185Y-128131648D01*
X164657350Y-128115715D01*
X164675891Y-128095122D01*
X164732533Y-128032216D01*
X164827179Y-127868284D01*
X164885674Y-127688256D01*
X164905460Y-127500000D01*
X164885674Y-127311744D01*
X164827179Y-127131716D01*
X164732533Y-126967784D01*
X164605871Y-126827112D01*
X164605870Y-126827111D01*
X164452734Y-126715851D01*
X164452729Y-126715848D01*
X164279807Y-126638857D01*
X164279802Y-126638855D01*
X164134001Y-126607865D01*
X164094646Y-126599500D01*
X163905354Y-126599500D01*
X163872897Y-126606398D01*
X163720197Y-126638855D01*
X163720192Y-126638857D01*
X163547270Y-126715848D01*
X163547265Y-126715851D01*
X163394129Y-126827111D01*
X163267466Y-126967785D01*
X163172821Y-127131715D01*
X163172818Y-127131722D01*
X163121391Y-127289999D01*
X163114326Y-127311744D01*
X163094540Y-127500000D01*
X163114326Y-127688256D01*
X163114327Y-127688259D01*
X163172818Y-127868277D01*
X163172821Y-127868284D01*
X163267467Y-128032216D01*
X163282768Y-128049209D01*
X163342650Y-128115715D01*
X163372880Y-128178706D01*
X163374500Y-128198687D01*
X163374500Y-132689546D01*
X163354815Y-132756585D01*
X163338181Y-132777227D01*
X162277228Y-133838181D01*
X162215905Y-133871666D01*
X162189547Y-133874500D01*
X132310452Y-133874500D01*
X132243413Y-133854815D01*
X132222771Y-133838181D01*
X121161819Y-122777228D01*
X121128334Y-122715905D01*
X121125500Y-122689547D01*
X121125500Y-106500000D01*
X122094540Y-106500000D01*
X122114326Y-106688256D01*
X122114327Y-106688259D01*
X122172818Y-106868277D01*
X122172821Y-106868284D01*
X122267467Y-107032216D01*
X122281929Y-107048277D01*
X122342650Y-107115715D01*
X122372880Y-107178706D01*
X122374500Y-107198687D01*
X122374500Y-122917255D01*
X122372775Y-122932872D01*
X122373061Y-122932899D01*
X122372326Y-122940665D01*
X122374500Y-123009814D01*
X122374500Y-123039343D01*
X122374501Y-123039360D01*
X122375368Y-123046231D01*
X122375826Y-123052050D01*
X122377290Y-123098624D01*
X122377291Y-123098627D01*
X122382880Y-123117867D01*
X122386824Y-123136911D01*
X122389336Y-123156791D01*
X122406490Y-123200119D01*
X122408382Y-123205647D01*
X122421381Y-123250388D01*
X122431580Y-123267634D01*
X122440138Y-123285103D01*
X122447514Y-123303732D01*
X122474898Y-123341423D01*
X122478106Y-123346307D01*
X122501827Y-123386416D01*
X122501833Y-123386424D01*
X122515990Y-123400580D01*
X122528628Y-123415376D01*
X122540405Y-123431586D01*
X122540406Y-123431587D01*
X122576309Y-123461288D01*
X122580620Y-123465210D01*
X122920574Y-123805164D01*
X124587062Y-125471654D01*
X124587092Y-125471682D01*
X131999194Y-132883784D01*
X132009019Y-132896048D01*
X132009240Y-132895866D01*
X132014210Y-132901873D01*
X132014213Y-132901876D01*
X132014214Y-132901877D01*
X132064651Y-132949241D01*
X132085530Y-132970120D01*
X132091004Y-132974366D01*
X132095442Y-132978156D01*
X132129418Y-133010062D01*
X132129422Y-133010064D01*
X132146973Y-133019713D01*
X132163231Y-133030392D01*
X132179064Y-133042674D01*
X132201015Y-133052172D01*
X132221837Y-133061183D01*
X132227081Y-133063752D01*
X132267908Y-133086197D01*
X132287312Y-133091179D01*
X132305710Y-133097478D01*
X132324105Y-133105438D01*
X132370129Y-133112726D01*
X132375832Y-133113907D01*
X132420981Y-133125500D01*
X132441016Y-133125500D01*
X132460413Y-133127026D01*
X132480196Y-133130160D01*
X132526583Y-133125775D01*
X132532422Y-133125500D01*
X160917257Y-133125500D01*
X160932877Y-133127224D01*
X160932904Y-133126939D01*
X160940660Y-133127671D01*
X160940667Y-133127673D01*
X161009814Y-133125500D01*
X161039350Y-133125500D01*
X161046228Y-133124630D01*
X161052041Y-133124172D01*
X161098627Y-133122709D01*
X161117869Y-133117117D01*
X161136912Y-133113174D01*
X161156792Y-133110664D01*
X161200122Y-133093507D01*
X161205646Y-133091617D01*
X161209396Y-133090527D01*
X161250390Y-133078618D01*
X161267629Y-133068422D01*
X161285103Y-133059862D01*
X161303727Y-133052488D01*
X161303727Y-133052487D01*
X161303732Y-133052486D01*
X161341449Y-133025082D01*
X161346305Y-133021892D01*
X161386420Y-132998170D01*
X161400589Y-132983999D01*
X161415379Y-132971368D01*
X161431587Y-132959594D01*
X161461299Y-132923676D01*
X161465212Y-132919376D01*
X161883786Y-132500802D01*
X161896048Y-132490980D01*
X161895865Y-132490759D01*
X161901867Y-132485792D01*
X161901877Y-132485786D01*
X161949241Y-132435348D01*
X161970120Y-132414470D01*
X161974370Y-132408989D01*
X161978151Y-132404561D01*
X162010062Y-132370582D01*
X162019713Y-132353024D01*
X162030396Y-132336761D01*
X162042673Y-132320936D01*
X162061183Y-132278158D01*
X162063743Y-132272932D01*
X162086197Y-132232092D01*
X162091178Y-132212687D01*
X162097482Y-132194279D01*
X162105438Y-132175895D01*
X162112729Y-132129853D01*
X162113908Y-132124162D01*
X162125500Y-132079019D01*
X162125500Y-132058982D01*
X162127027Y-132039582D01*
X162130160Y-132019804D01*
X162125775Y-131973415D01*
X162125500Y-131967577D01*
X162125500Y-128198687D01*
X162145185Y-128131648D01*
X162157350Y-128115715D01*
X162175891Y-128095122D01*
X162232533Y-128032216D01*
X162327179Y-127868284D01*
X162385674Y-127688256D01*
X162405460Y-127500000D01*
X162385674Y-127311744D01*
X162327179Y-127131716D01*
X162232533Y-126967784D01*
X162105871Y-126827112D01*
X162105870Y-126827111D01*
X161952734Y-126715851D01*
X161952729Y-126715848D01*
X161779807Y-126638857D01*
X161779802Y-126638855D01*
X161634000Y-126607865D01*
X161594646Y-126599500D01*
X161405354Y-126599500D01*
X161372897Y-126606398D01*
X161220197Y-126638855D01*
X161220192Y-126638857D01*
X161047270Y-126715848D01*
X161047265Y-126715851D01*
X160894129Y-126827111D01*
X160767466Y-126967785D01*
X160672821Y-127131715D01*
X160672818Y-127131722D01*
X160621391Y-127289999D01*
X160614326Y-127311744D01*
X160594540Y-127500000D01*
X160614326Y-127688256D01*
X160614327Y-127688259D01*
X160672818Y-127868277D01*
X160672821Y-127868284D01*
X160767467Y-128032216D01*
X160782768Y-128049209D01*
X160842650Y-128115715D01*
X160872880Y-128178706D01*
X160874500Y-128198687D01*
X160874500Y-131689547D01*
X160854815Y-131756586D01*
X160838181Y-131777228D01*
X160777228Y-131838181D01*
X160715905Y-131871666D01*
X160689547Y-131874500D01*
X132810452Y-131874500D01*
X132743413Y-131854815D01*
X132722771Y-131838181D01*
X129083277Y-128198687D01*
X125431912Y-124547321D01*
X125431910Y-124547318D01*
X123661819Y-122777227D01*
X123628334Y-122715904D01*
X123625500Y-122689546D01*
X123625500Y-120600002D01*
X125216677Y-120600002D01*
X125235929Y-120820062D01*
X125235930Y-120820070D01*
X125293104Y-121033445D01*
X125293105Y-121033447D01*
X125293106Y-121033450D01*
X125348968Y-121153246D01*
X125386466Y-121233662D01*
X125386468Y-121233666D01*
X125513170Y-121414615D01*
X125513175Y-121414621D01*
X125669378Y-121570824D01*
X125669384Y-121570829D01*
X125850333Y-121697531D01*
X125850335Y-121697532D01*
X125850338Y-121697534D01*
X126050550Y-121790894D01*
X126263932Y-121848070D01*
X126421123Y-121861822D01*
X126483998Y-121867323D01*
X126484000Y-121867323D01*
X126484002Y-121867323D01*
X126539017Y-121862509D01*
X126704068Y-121848070D01*
X126917450Y-121790894D01*
X127117662Y-121697534D01*
X127298620Y-121570826D01*
X127454826Y-121414620D01*
X127581534Y-121233662D01*
X127674894Y-121033450D01*
X127732070Y-120820068D01*
X127751323Y-120600000D01*
X127750758Y-120593546D01*
X127732070Y-120379937D01*
X127732070Y-120379932D01*
X127674894Y-120166550D01*
X127581534Y-119966339D01*
X127454826Y-119785380D01*
X127298620Y-119629174D01*
X127298616Y-119629171D01*
X127298615Y-119629170D01*
X127117666Y-119502468D01*
X127117662Y-119502466D01*
X126988810Y-119442381D01*
X126936371Y-119396208D01*
X126917219Y-119329015D01*
X126937435Y-119262134D01*
X126988806Y-119217620D01*
X127117662Y-119157534D01*
X127298620Y-119030826D01*
X127454826Y-118874620D01*
X127581534Y-118693662D01*
X127674894Y-118493450D01*
X127732070Y-118280068D01*
X127751323Y-118060000D01*
X127732070Y-117839932D01*
X127674894Y-117626550D01*
X127581534Y-117426339D01*
X127454826Y-117245380D01*
X127298620Y-117089174D01*
X127298616Y-117089171D01*
X127298615Y-117089170D01*
X127117666Y-116962468D01*
X127117658Y-116962464D01*
X126988811Y-116902382D01*
X126936371Y-116856210D01*
X126917219Y-116789017D01*
X126937435Y-116722135D01*
X126988811Y-116677618D01*
X126994802Y-116674824D01*
X127117662Y-116617534D01*
X127298620Y-116490826D01*
X127454826Y-116334620D01*
X127581534Y-116153662D01*
X127674894Y-115953450D01*
X127732070Y-115740068D01*
X127751323Y-115520000D01*
X127732070Y-115299932D01*
X127674894Y-115086550D01*
X127581534Y-114886339D01*
X127518180Y-114795859D01*
X127454827Y-114705381D01*
X127454823Y-114705377D01*
X127298620Y-114549174D01*
X127298616Y-114549171D01*
X127298615Y-114549170D01*
X127117666Y-114422468D01*
X127117662Y-114422466D01*
X126988810Y-114362381D01*
X126936371Y-114316208D01*
X126917219Y-114249015D01*
X126937435Y-114182134D01*
X126988806Y-114137620D01*
X127117662Y-114077534D01*
X127298620Y-113950826D01*
X127454826Y-113794620D01*
X127581534Y-113613662D01*
X127674894Y-113413450D01*
X127732070Y-113200068D01*
X127751323Y-112980000D01*
X127732070Y-112759932D01*
X127674894Y-112546550D01*
X127581534Y-112346339D01*
X127454826Y-112165380D01*
X127298620Y-112009174D01*
X127298616Y-112009171D01*
X127298615Y-112009170D01*
X127117666Y-111882468D01*
X127117658Y-111882464D01*
X126988811Y-111822382D01*
X126936371Y-111776210D01*
X126917219Y-111709017D01*
X126937435Y-111642135D01*
X126988811Y-111597618D01*
X126994802Y-111594824D01*
X127117662Y-111537534D01*
X127298620Y-111410826D01*
X127454826Y-111254620D01*
X127581534Y-111073662D01*
X127674894Y-110873450D01*
X127732070Y-110660068D01*
X127751323Y-110440000D01*
X127732070Y-110219932D01*
X127674894Y-110006550D01*
X127581534Y-109806339D01*
X127471352Y-109648982D01*
X127454827Y-109625381D01*
X127381548Y-109552102D01*
X127298620Y-109469174D01*
X127298616Y-109469171D01*
X127298615Y-109469170D01*
X127117666Y-109342468D01*
X127117658Y-109342464D01*
X126988219Y-109282106D01*
X126935779Y-109235934D01*
X126916627Y-109168741D01*
X126936843Y-109101859D01*
X126988219Y-109057342D01*
X127117408Y-108997100D01*
X127117420Y-108997093D01*
X127182186Y-108951742D01*
X127182187Y-108951741D01*
X126750301Y-108519855D01*
X126716816Y-108458532D01*
X126721800Y-108388840D01*
X126756779Y-108338461D01*
X126762559Y-108333452D01*
X126762562Y-108333451D01*
X126873395Y-108237413D01*
X126908189Y-108183271D01*
X126960992Y-108137518D01*
X127030150Y-108127574D01*
X127093706Y-108156599D01*
X127100185Y-108162631D01*
X127535741Y-108598187D01*
X127535742Y-108598186D01*
X127581093Y-108533420D01*
X127581100Y-108533408D01*
X127674419Y-108333284D01*
X127674424Y-108333270D01*
X127731573Y-108119986D01*
X127731575Y-108119976D01*
X127750821Y-107900000D01*
X127750821Y-107899999D01*
X127731575Y-107680023D01*
X127731573Y-107680013D01*
X127674424Y-107466729D01*
X127674420Y-107466720D01*
X127581098Y-107266590D01*
X127535740Y-107201811D01*
X127100184Y-107637367D01*
X127038861Y-107670852D01*
X126969169Y-107665868D01*
X126913236Y-107623996D01*
X126908187Y-107616725D01*
X126873395Y-107562587D01*
X126873392Y-107562584D01*
X126756779Y-107461537D01*
X126719005Y-107402759D01*
X126719005Y-107332889D01*
X126750301Y-107280144D01*
X127182187Y-106848258D01*
X127117409Y-106802900D01*
X127117407Y-106802899D01*
X126988219Y-106742658D01*
X126935779Y-106696486D01*
X126916627Y-106629293D01*
X126936843Y-106562411D01*
X126988219Y-106517894D01*
X126994187Y-106515111D01*
X127117662Y-106457534D01*
X127298620Y-106330826D01*
X127454826Y-106174620D01*
X127581534Y-105993662D01*
X127674894Y-105793450D01*
X127732070Y-105580068D01*
X127751323Y-105360000D01*
X127732070Y-105139932D01*
X127674894Y-104926550D01*
X127581534Y-104726339D01*
X127454826Y-104545380D01*
X127298620Y-104389174D01*
X127298616Y-104389171D01*
X127298615Y-104389170D01*
X127117666Y-104262468D01*
X127117658Y-104262464D01*
X126988811Y-104202382D01*
X126936371Y-104156210D01*
X126917219Y-104089017D01*
X126937435Y-104022135D01*
X126988811Y-103977618D01*
X126994802Y-103974824D01*
X127117662Y-103917534D01*
X127298620Y-103790826D01*
X127454826Y-103634620D01*
X127581534Y-103453662D01*
X127674894Y-103253450D01*
X127732070Y-103040068D01*
X127750964Y-102824102D01*
X127751323Y-102820002D01*
X127751323Y-102819997D01*
X127737562Y-102662713D01*
X127732070Y-102599932D01*
X127674894Y-102386550D01*
X127581534Y-102186339D01*
X127454826Y-102005380D01*
X127298620Y-101849174D01*
X127298616Y-101849171D01*
X127298615Y-101849170D01*
X127117666Y-101722468D01*
X127117658Y-101722464D01*
X126988811Y-101662382D01*
X126936371Y-101616210D01*
X126917219Y-101549017D01*
X126937435Y-101482135D01*
X126988811Y-101437618D01*
X126994802Y-101434824D01*
X127117662Y-101377534D01*
X127298620Y-101250826D01*
X127454826Y-101094620D01*
X127550224Y-100958376D01*
X127604802Y-100914752D01*
X127651800Y-100905500D01*
X132481548Y-100905500D01*
X132548587Y-100925185D01*
X132569229Y-100941819D01*
X134974181Y-103346771D01*
X135007666Y-103408094D01*
X135010500Y-103434452D01*
X135010500Y-105981312D01*
X134990815Y-106048351D01*
X134978650Y-106064284D01*
X134903466Y-106147784D01*
X134808821Y-106311715D01*
X134808818Y-106311722D01*
X134761441Y-106457535D01*
X134750326Y-106491744D01*
X134730540Y-106680000D01*
X134750326Y-106868256D01*
X134750327Y-106868259D01*
X134808818Y-107048277D01*
X134808821Y-107048284D01*
X134903467Y-107212216D01*
X135030128Y-107352887D01*
X135030129Y-107352888D01*
X135183265Y-107464148D01*
X135183270Y-107464151D01*
X135356192Y-107541142D01*
X135356197Y-107541144D01*
X135541354Y-107580500D01*
X135541355Y-107580500D01*
X135730644Y-107580500D01*
X135730646Y-107580500D01*
X135915803Y-107541144D01*
X136088730Y-107464151D01*
X136241871Y-107352888D01*
X136368533Y-107212216D01*
X136463179Y-107048284D01*
X136521674Y-106868256D01*
X136541460Y-106680000D01*
X136521674Y-106491744D01*
X136463179Y-106311716D01*
X136368533Y-106147784D01*
X136354065Y-106131716D01*
X136293350Y-106064284D01*
X136263120Y-106001292D01*
X136261500Y-105981312D01*
X136261500Y-103206737D01*
X136263224Y-103191123D01*
X136262938Y-103191096D01*
X136263672Y-103183333D01*
X136261500Y-103114202D01*
X136261500Y-103084651D01*
X136261500Y-103084650D01*
X136260629Y-103077759D01*
X136260172Y-103071945D01*
X136259170Y-103040062D01*
X136258709Y-103025372D01*
X136253120Y-103006137D01*
X136249174Y-102987084D01*
X136248304Y-102980194D01*
X136246664Y-102967208D01*
X136229501Y-102923859D01*
X136227614Y-102918346D01*
X136219785Y-102891400D01*
X136214617Y-102873610D01*
X136204421Y-102856369D01*
X136195860Y-102838893D01*
X136191698Y-102828381D01*
X136188486Y-102820268D01*
X136188486Y-102820267D01*
X136177909Y-102805710D01*
X136161083Y-102782550D01*
X136157900Y-102777705D01*
X136134170Y-102737579D01*
X136134165Y-102737573D01*
X136120005Y-102723413D01*
X136107370Y-102708620D01*
X136095593Y-102692412D01*
X136059693Y-102662713D01*
X136055381Y-102658790D01*
X133292803Y-99896212D01*
X133282980Y-99883950D01*
X133282759Y-99884134D01*
X133277786Y-99878123D01*
X133254447Y-99856206D01*
X133227364Y-99830773D01*
X133216919Y-99820328D01*
X133206475Y-99809883D01*
X133200986Y-99805625D01*
X133196561Y-99801847D01*
X133162582Y-99769938D01*
X133162580Y-99769936D01*
X133162577Y-99769935D01*
X133145029Y-99760288D01*
X133128763Y-99749604D01*
X133112933Y-99737325D01*
X133070168Y-99718818D01*
X133064922Y-99716248D01*
X133024093Y-99693803D01*
X133024092Y-99693802D01*
X133004693Y-99688822D01*
X132986281Y-99682518D01*
X132967898Y-99674562D01*
X132967892Y-99674560D01*
X132921874Y-99667272D01*
X132916152Y-99666087D01*
X132871021Y-99654500D01*
X132871019Y-99654500D01*
X132850984Y-99654500D01*
X132831586Y-99652973D01*
X132824162Y-99651797D01*
X132811805Y-99649840D01*
X132811804Y-99649840D01*
X132765416Y-99654225D01*
X132759578Y-99654500D01*
X127651799Y-99654500D01*
X127584760Y-99634815D01*
X127550224Y-99601623D01*
X127454827Y-99465381D01*
X127400650Y-99411204D01*
X127298620Y-99309174D01*
X127298616Y-99309171D01*
X127298615Y-99309170D01*
X127117666Y-99182468D01*
X127117658Y-99182464D01*
X126988811Y-99122382D01*
X126936371Y-99076210D01*
X126917219Y-99009017D01*
X126937435Y-98942135D01*
X126988811Y-98897618D01*
X126994802Y-98894824D01*
X127117662Y-98837534D01*
X127298620Y-98710826D01*
X127454826Y-98554620D01*
X127581534Y-98373662D01*
X127674894Y-98173450D01*
X127732070Y-97960068D01*
X127751323Y-97740000D01*
X127732070Y-97519932D01*
X127674894Y-97306550D01*
X127581534Y-97106339D01*
X127454826Y-96925380D01*
X127298620Y-96769174D01*
X127298616Y-96769171D01*
X127298615Y-96769170D01*
X127117666Y-96642468D01*
X127117658Y-96642464D01*
X126988811Y-96582382D01*
X126936371Y-96536210D01*
X126917219Y-96469017D01*
X126937435Y-96402135D01*
X126988811Y-96357618D01*
X126994802Y-96354824D01*
X127117662Y-96297534D01*
X127298620Y-96170826D01*
X127454826Y-96014620D01*
X127550224Y-95878376D01*
X127604802Y-95834752D01*
X127651800Y-95825500D01*
X133497548Y-95825500D01*
X133564587Y-95845185D01*
X133585229Y-95861819D01*
X137514181Y-99790771D01*
X137547666Y-99852094D01*
X137550500Y-99878452D01*
X137550500Y-121329255D01*
X137548775Y-121344872D01*
X137549061Y-121344899D01*
X137548326Y-121352665D01*
X137550500Y-121421814D01*
X137550500Y-121451343D01*
X137550501Y-121451360D01*
X137551368Y-121458231D01*
X137551826Y-121464050D01*
X137553290Y-121510624D01*
X137553291Y-121510627D01*
X137558880Y-121529867D01*
X137562824Y-121548911D01*
X137565336Y-121568792D01*
X137582490Y-121612119D01*
X137584382Y-121617647D01*
X137597382Y-121662390D01*
X137601882Y-121670000D01*
X137607580Y-121679634D01*
X137616136Y-121697100D01*
X137623514Y-121715732D01*
X137650898Y-121753423D01*
X137654106Y-121758307D01*
X137677827Y-121798416D01*
X137677833Y-121798424D01*
X137691990Y-121812580D01*
X137704628Y-121827376D01*
X137716405Y-121843586D01*
X137716406Y-121843587D01*
X137752309Y-121873288D01*
X137756620Y-121877210D01*
X140031532Y-124152123D01*
X140723197Y-124843788D01*
X140733022Y-124856051D01*
X140733243Y-124855869D01*
X140738214Y-124861878D01*
X140759043Y-124881437D01*
X140788635Y-124909226D01*
X140809529Y-124930120D01*
X140815011Y-124934373D01*
X140819443Y-124938157D01*
X140853418Y-124970062D01*
X140870976Y-124979714D01*
X140887233Y-124990393D01*
X140903064Y-125002673D01*
X140922737Y-125011186D01*
X140945833Y-125021182D01*
X140951077Y-125023750D01*
X140991908Y-125046197D01*
X141004523Y-125049435D01*
X141011305Y-125051177D01*
X141029719Y-125057481D01*
X141048104Y-125065438D01*
X141094157Y-125072732D01*
X141099826Y-125073906D01*
X141144981Y-125085500D01*
X141165016Y-125085500D01*
X141184413Y-125087026D01*
X141204196Y-125090160D01*
X141250583Y-125085775D01*
X141256422Y-125085500D01*
X150793257Y-125085500D01*
X150808877Y-125087224D01*
X150808904Y-125086939D01*
X150816660Y-125087671D01*
X150816667Y-125087673D01*
X150885814Y-125085500D01*
X150915350Y-125085500D01*
X150922228Y-125084630D01*
X150928041Y-125084172D01*
X150974627Y-125082709D01*
X150993869Y-125077117D01*
X151012912Y-125073174D01*
X151032792Y-125070664D01*
X151076122Y-125053507D01*
X151081646Y-125051617D01*
X151085396Y-125050527D01*
X151126390Y-125038618D01*
X151143629Y-125028422D01*
X151161103Y-125019862D01*
X151179727Y-125012488D01*
X151179727Y-125012487D01*
X151179732Y-125012486D01*
X151196914Y-125000002D01*
X167650146Y-125000002D01*
X167669971Y-125226599D01*
X167669973Y-125226610D01*
X167728843Y-125446317D01*
X167728847Y-125446326D01*
X167824978Y-125652481D01*
X167824979Y-125652483D01*
X167876086Y-125725471D01*
X167876086Y-125725472D01*
X168417693Y-125183865D01*
X168479016Y-125150380D01*
X168548707Y-125155364D01*
X168604641Y-125197235D01*
X168615855Y-125215246D01*
X168621640Y-125226599D01*
X168627471Y-125238044D01*
X168627476Y-125238050D01*
X168717062Y-125327636D01*
X168717064Y-125327637D01*
X168717068Y-125327641D01*
X168739860Y-125339254D01*
X168790655Y-125387228D01*
X168807450Y-125455049D01*
X168784912Y-125521184D01*
X168771245Y-125537419D01*
X168229639Y-126079025D01*
X168229639Y-126079026D01*
X168302625Y-126130131D01*
X168302629Y-126130133D01*
X168508786Y-126226265D01*
X168508795Y-126226269D01*
X168728502Y-126285139D01*
X168728513Y-126285141D01*
X168955111Y-126304966D01*
X168955115Y-126304966D01*
X169181712Y-126285141D01*
X169181723Y-126285139D01*
X169401430Y-126226269D01*
X169401439Y-126226265D01*
X169607594Y-126130134D01*
X169620366Y-126121191D01*
X169686572Y-126098862D01*
X169754340Y-126115870D01*
X169790757Y-126148449D01*
X169797567Y-126157546D01*
X169843756Y-126192123D01*
X169912777Y-126243793D01*
X169912784Y-126243797D01*
X170047630Y-126294091D01*
X170047629Y-126294091D01*
X170054557Y-126294835D01*
X170107240Y-126300500D01*
X171802985Y-126300499D01*
X171862596Y-126294091D01*
X171997444Y-126243796D01*
X172112659Y-126157546D01*
X172198909Y-126042331D01*
X172249204Y-125907483D01*
X172255613Y-125847873D01*
X172255612Y-124152128D01*
X172249204Y-124092517D01*
X172214561Y-123999635D01*
X172198910Y-123957671D01*
X172198906Y-123957664D01*
X172112660Y-123842455D01*
X172112657Y-123842452D01*
X171997448Y-123756206D01*
X171997441Y-123756202D01*
X171862595Y-123705908D01*
X171862596Y-123705908D01*
X171802996Y-123699501D01*
X171802994Y-123699500D01*
X171802986Y-123699500D01*
X171802977Y-123699500D01*
X170107242Y-123699500D01*
X170107236Y-123699501D01*
X170047629Y-123705908D01*
X169912784Y-123756202D01*
X169912777Y-123756206D01*
X169797570Y-123842451D01*
X169797565Y-123842456D01*
X169790758Y-123851549D01*
X169734823Y-123893418D01*
X169665131Y-123898400D01*
X169620373Y-123878812D01*
X169607598Y-123869868D01*
X169607594Y-123869865D01*
X169401439Y-123773734D01*
X169401430Y-123773730D01*
X169181723Y-123714860D01*
X169181712Y-123714858D01*
X168955115Y-123695034D01*
X168955111Y-123695034D01*
X168728513Y-123714858D01*
X168728502Y-123714860D01*
X168508795Y-123773730D01*
X168508786Y-123773734D01*
X168302626Y-123869868D01*
X168229639Y-123920973D01*
X168771246Y-124462580D01*
X168804731Y-124523903D01*
X168799747Y-124593595D01*
X168757875Y-124649528D01*
X168739861Y-124660745D01*
X168717069Y-124672358D01*
X168717062Y-124672363D01*
X168627476Y-124761949D01*
X168627471Y-124761956D01*
X168615858Y-124784748D01*
X168567883Y-124835544D01*
X168500062Y-124852338D01*
X168433927Y-124829800D01*
X168417693Y-124816133D01*
X167876086Y-124274526D01*
X167824981Y-124347513D01*
X167728847Y-124553673D01*
X167728843Y-124553682D01*
X167669973Y-124773389D01*
X167669971Y-124773400D01*
X167650146Y-124999997D01*
X167650146Y-125000002D01*
X151196914Y-125000002D01*
X151217449Y-124985082D01*
X151222305Y-124981892D01*
X151262420Y-124958170D01*
X151276589Y-124943999D01*
X151291379Y-124931368D01*
X151307587Y-124919594D01*
X151337299Y-124883676D01*
X151341212Y-124879376D01*
X152952745Y-123267844D01*
X203940000Y-123267844D01*
X203946401Y-123327372D01*
X203946403Y-123327379D01*
X203996645Y-123462086D01*
X203996649Y-123462093D01*
X204082809Y-123577187D01*
X204082812Y-123577190D01*
X204197906Y-123663350D01*
X204197913Y-123663354D01*
X204332620Y-123713596D01*
X204332627Y-123713598D01*
X204392155Y-123719999D01*
X204392172Y-123720000D01*
X205490000Y-123720000D01*
X205490000Y-122686753D01*
X205509685Y-122619714D01*
X205562489Y-122573959D01*
X205631647Y-122564015D01*
X205644816Y-122566644D01*
X205657886Y-122570000D01*
X205657890Y-122570000D01*
X205780892Y-122570000D01*
X205780894Y-122570000D01*
X205780899Y-122569999D01*
X205780903Y-122569999D01*
X205828270Y-122564015D01*
X205850458Y-122561212D01*
X205919436Y-122572338D01*
X205971448Y-122618991D01*
X205990000Y-122684234D01*
X205990000Y-123720000D01*
X207087828Y-123720000D01*
X207087844Y-123719999D01*
X207147372Y-123713598D01*
X207147379Y-123713596D01*
X207282086Y-123663354D01*
X207282093Y-123663350D01*
X207397187Y-123577190D01*
X207397190Y-123577187D01*
X207483350Y-123462093D01*
X207483354Y-123462086D01*
X207533596Y-123327379D01*
X207533598Y-123327372D01*
X207539999Y-123267844D01*
X207540000Y-123267827D01*
X207540000Y-122170000D01*
X206503921Y-122170000D01*
X206436882Y-122150315D01*
X206391127Y-122097511D01*
X206381183Y-122028353D01*
X206382117Y-122022766D01*
X206382659Y-122019919D01*
X206393873Y-121961138D01*
X206383847Y-121801784D01*
X206399283Y-121733643D01*
X206449109Y-121684663D01*
X206507602Y-121670000D01*
X207540000Y-121670000D01*
X207540000Y-120572172D01*
X207539999Y-120572155D01*
X207533598Y-120512627D01*
X207533596Y-120512620D01*
X207483354Y-120377913D01*
X207483350Y-120377906D01*
X207397190Y-120262812D01*
X207397187Y-120262809D01*
X207282093Y-120176649D01*
X207282086Y-120176645D01*
X207147379Y-120126403D01*
X207147372Y-120126401D01*
X207087844Y-120120000D01*
X205990000Y-120120000D01*
X205990000Y-121153246D01*
X205970315Y-121220285D01*
X205917511Y-121266040D01*
X205848353Y-121275984D01*
X205835165Y-121273351D01*
X205822115Y-121270000D01*
X205822114Y-121270000D01*
X205699106Y-121270000D01*
X205699094Y-121270000D01*
X205629541Y-121278787D01*
X205560563Y-121267660D01*
X205508551Y-121221006D01*
X205490000Y-121155765D01*
X205490000Y-120120000D01*
X204392155Y-120120000D01*
X204332627Y-120126401D01*
X204332620Y-120126403D01*
X204197913Y-120176645D01*
X204197906Y-120176649D01*
X204082812Y-120262809D01*
X204082809Y-120262812D01*
X203996649Y-120377906D01*
X203996645Y-120377913D01*
X203946403Y-120512620D01*
X203946401Y-120512627D01*
X203940000Y-120572155D01*
X203940000Y-121670000D01*
X204976079Y-121670000D01*
X205043118Y-121689685D01*
X205088873Y-121742489D01*
X205098817Y-121811647D01*
X205097883Y-121817234D01*
X205086127Y-121878862D01*
X205095532Y-122028353D01*
X205096153Y-122038214D01*
X205080717Y-122106357D01*
X205030891Y-122155337D01*
X204972398Y-122170000D01*
X203940000Y-122170000D01*
X203940000Y-123267844D01*
X152952745Y-123267844D01*
X153799788Y-122420801D01*
X153812042Y-122410986D01*
X153811859Y-122410764D01*
X153817866Y-122405792D01*
X153817877Y-122405786D01*
X153852736Y-122368665D01*
X153865227Y-122355364D01*
X153875671Y-122344918D01*
X153886120Y-122334471D01*
X153890379Y-122328978D01*
X153894152Y-122324561D01*
X153926062Y-122290582D01*
X153935713Y-122273024D01*
X153946396Y-122256761D01*
X153958673Y-122240936D01*
X153977185Y-122198153D01*
X153979738Y-122192941D01*
X154002197Y-122152092D01*
X154007180Y-122132680D01*
X154013481Y-122114280D01*
X154021437Y-122095896D01*
X154028729Y-122049852D01*
X154029906Y-122044171D01*
X154041500Y-121999019D01*
X154041500Y-121978982D01*
X154043027Y-121959582D01*
X154046160Y-121939804D01*
X154041775Y-121893415D01*
X154041500Y-121887577D01*
X154041500Y-115372330D01*
X187721710Y-115372330D01*
X187751925Y-115595387D01*
X187751926Y-115595390D01*
X187821483Y-115809465D01*
X187928146Y-116007678D01*
X187928148Y-116007681D01*
X188068489Y-116183663D01*
X188068491Y-116183664D01*
X188068492Y-116183666D01*
X188238004Y-116331765D01*
X188431236Y-116447215D01*
X188641976Y-116526307D01*
X188863450Y-116566500D01*
X188863453Y-116566500D01*
X199582664Y-116566500D01*
X199649703Y-116586185D01*
X199670345Y-116602818D01*
X200831470Y-117763944D01*
X200960981Y-117872068D01*
X201156755Y-117983153D01*
X201288321Y-118029190D01*
X201369213Y-118057497D01*
X201369216Y-118057498D01*
X201411054Y-118064124D01*
X201591540Y-118092710D01*
X201816577Y-118087659D01*
X202037096Y-118042508D01*
X202246009Y-117958707D01*
X202436602Y-117838949D01*
X202602748Y-117687085D01*
X202739108Y-117507995D01*
X202841298Y-117307435D01*
X202859933Y-117245380D01*
X202906035Y-117091852D01*
X202906035Y-117091849D01*
X202931237Y-116868172D01*
X202929338Y-116840004D01*
X203934451Y-116840004D01*
X203954616Y-117109101D01*
X204014664Y-117372188D01*
X204014666Y-117372195D01*
X204113256Y-117623396D01*
X204113258Y-117623400D01*
X204115077Y-117626550D01*
X204248185Y-117857102D01*
X204329212Y-117958706D01*
X204416442Y-118068089D01*
X204603183Y-118241358D01*
X204614259Y-118251635D01*
X204837226Y-118403651D01*
X205080359Y-118520738D01*
X205338228Y-118600280D01*
X205338229Y-118600280D01*
X205338232Y-118600281D01*
X205605063Y-118640499D01*
X205605068Y-118640499D01*
X205605071Y-118640500D01*
X205605072Y-118640500D01*
X205874928Y-118640500D01*
X205874929Y-118640500D01*
X205874936Y-118640499D01*
X206141767Y-118600281D01*
X206141768Y-118600280D01*
X206141772Y-118600280D01*
X206399641Y-118520738D01*
X206642775Y-118403651D01*
X206865741Y-118251635D01*
X207063561Y-118068085D01*
X207231815Y-117857102D01*
X207366743Y-117623398D01*
X207465334Y-117372195D01*
X207525383Y-117109103D01*
X207543368Y-116869106D01*
X207545549Y-116840004D01*
X207545549Y-116839995D01*
X207525383Y-116570898D01*
X207524379Y-116566500D01*
X207465334Y-116307805D01*
X207366743Y-116056602D01*
X207231815Y-115822898D01*
X207063561Y-115611915D01*
X207063560Y-115611914D01*
X207063557Y-115611910D01*
X206865741Y-115428365D01*
X206783553Y-115372330D01*
X206642775Y-115276349D01*
X206642769Y-115276346D01*
X206642768Y-115276345D01*
X206642767Y-115276344D01*
X206399643Y-115159263D01*
X206399645Y-115159263D01*
X206141773Y-115079720D01*
X206141767Y-115079718D01*
X205874936Y-115039500D01*
X205874929Y-115039500D01*
X205605071Y-115039500D01*
X205605063Y-115039500D01*
X205338232Y-115079718D01*
X205338226Y-115079720D01*
X205080358Y-115159262D01*
X204837230Y-115276346D01*
X204614258Y-115428365D01*
X204416442Y-115611910D01*
X204248185Y-115822898D01*
X204113258Y-116056599D01*
X204113256Y-116056603D01*
X204014666Y-116307804D01*
X204014664Y-116307811D01*
X203954616Y-116570898D01*
X203934451Y-116839995D01*
X203934451Y-116840004D01*
X202929338Y-116840004D01*
X202929337Y-116839995D01*
X202916096Y-116643589D01*
X202916096Y-116643586D01*
X202861097Y-116425320D01*
X202861096Y-116425317D01*
X202819897Y-116334615D01*
X202768007Y-116220374D01*
X202639819Y-116035345D01*
X201088356Y-114483882D01*
X201083719Y-114478693D01*
X201059507Y-114448332D01*
X201008031Y-114403359D01*
X201004997Y-114400523D01*
X200996529Y-114392055D01*
X200964181Y-114365049D01*
X200910175Y-114317865D01*
X200890002Y-114300240D01*
X200889997Y-114300236D01*
X200889996Y-114300235D01*
X200886241Y-114297991D01*
X200870373Y-114286732D01*
X200867019Y-114283932D01*
X200867018Y-114283931D01*
X200867013Y-114283927D01*
X200799614Y-114245685D01*
X200781340Y-114235316D01*
X200696764Y-114184785D01*
X200696761Y-114184783D01*
X200692669Y-114183248D01*
X200675044Y-114175002D01*
X200671245Y-114172846D01*
X200578253Y-114140307D01*
X200486029Y-114105694D01*
X200486019Y-114105691D01*
X200481723Y-114104912D01*
X200462918Y-114099949D01*
X200458784Y-114098502D01*
X200458779Y-114098501D01*
X200361472Y-114083089D01*
X200264550Y-114065500D01*
X200264547Y-114065500D01*
X200260172Y-114065500D01*
X200240769Y-114063972D01*
X200236460Y-114063289D01*
X200137978Y-114065500D01*
X188919845Y-114065500D01*
X188881399Y-114068960D01*
X188751813Y-114080622D01*
X188751807Y-114080623D01*
X188534839Y-114140503D01*
X188534826Y-114140508D01*
X188332033Y-114238167D01*
X188332025Y-114238171D01*
X188149927Y-114370473D01*
X188149925Y-114370474D01*
X187994366Y-114533176D01*
X187870363Y-114721033D01*
X187781899Y-114928004D01*
X187781895Y-114928017D01*
X187731810Y-115147457D01*
X187731808Y-115147468D01*
X187724961Y-115299932D01*
X187721710Y-115372330D01*
X154041500Y-115372330D01*
X154041500Y-110546452D01*
X154061185Y-110479413D01*
X154077819Y-110458771D01*
X155151772Y-109384819D01*
X155213095Y-109351334D01*
X155239453Y-109348500D01*
X156712200Y-109348500D01*
X156779239Y-109368185D01*
X156813775Y-109401376D01*
X156909174Y-109537620D01*
X156909175Y-109537621D01*
X157065378Y-109693824D01*
X157065384Y-109693829D01*
X157246333Y-109820531D01*
X157246335Y-109820532D01*
X157246338Y-109820534D01*
X157375189Y-109880618D01*
X157375781Y-109880894D01*
X157428220Y-109927066D01*
X157447372Y-109994260D01*
X157427156Y-110061141D01*
X157375781Y-110105658D01*
X157246586Y-110165903D01*
X157181812Y-110211257D01*
X157181812Y-110211258D01*
X157613698Y-110643144D01*
X157647183Y-110704467D01*
X157642199Y-110774159D01*
X157607221Y-110824537D01*
X157490604Y-110925587D01*
X157455810Y-110979728D01*
X157403005Y-111025482D01*
X157333846Y-111035425D01*
X157270291Y-111006399D01*
X157263814Y-111000368D01*
X156828258Y-110564811D01*
X156828257Y-110564812D01*
X156782903Y-110629586D01*
X156689579Y-110829720D01*
X156689575Y-110829729D01*
X156632426Y-111043013D01*
X156632424Y-111043023D01*
X156613179Y-111262999D01*
X156613179Y-111263000D01*
X156632424Y-111482976D01*
X156632426Y-111482986D01*
X156689575Y-111696270D01*
X156689580Y-111696284D01*
X156782899Y-111896407D01*
X156782900Y-111896409D01*
X156828258Y-111961187D01*
X157263814Y-111525630D01*
X157325137Y-111492145D01*
X157394828Y-111497129D01*
X157450762Y-111539000D01*
X157455806Y-111546266D01*
X157490605Y-111600413D01*
X157601431Y-111696445D01*
X157607219Y-111701460D01*
X157644993Y-111760239D01*
X157644993Y-111830108D01*
X157613697Y-111882854D01*
X157181811Y-112314740D01*
X157181811Y-112314741D01*
X157246582Y-112360094D01*
X157246592Y-112360100D01*
X157446715Y-112453419D01*
X157446729Y-112453424D01*
X157660013Y-112510573D01*
X157660023Y-112510575D01*
X157879999Y-112529821D01*
X157880001Y-112529821D01*
X158099976Y-112510575D01*
X158099986Y-112510573D01*
X158313270Y-112453424D01*
X158313284Y-112453419D01*
X158513408Y-112360100D01*
X158513420Y-112360093D01*
X158578186Y-112314742D01*
X158578187Y-112314741D01*
X158146301Y-111882855D01*
X158112816Y-111821532D01*
X158117800Y-111751840D01*
X158152779Y-111701461D01*
X158158559Y-111696452D01*
X158158562Y-111696451D01*
X158269395Y-111600413D01*
X158304189Y-111546271D01*
X158356992Y-111500518D01*
X158426150Y-111490574D01*
X158489706Y-111519599D01*
X158496185Y-111525631D01*
X158931741Y-111961187D01*
X158931742Y-111961186D01*
X158977093Y-111896420D01*
X158977100Y-111896408D01*
X159070419Y-111696284D01*
X159070424Y-111696270D01*
X159127573Y-111482986D01*
X159127575Y-111482976D01*
X159146821Y-111263002D01*
X171852677Y-111263002D01*
X171871929Y-111483062D01*
X171871930Y-111483070D01*
X171929104Y-111696445D01*
X171929105Y-111696447D01*
X171929106Y-111696450D01*
X172015845Y-111882464D01*
X172022466Y-111896662D01*
X172022468Y-111896666D01*
X172149170Y-112077615D01*
X172149175Y-112077621D01*
X172305378Y-112233824D01*
X172305384Y-112233829D01*
X172486333Y-112360531D01*
X172486335Y-112360532D01*
X172486338Y-112360534D01*
X172686550Y-112453894D01*
X172899932Y-112511070D01*
X173057123Y-112524822D01*
X173119998Y-112530323D01*
X173120000Y-112530323D01*
X173120002Y-112530323D01*
X173175016Y-112525509D01*
X173340068Y-112511070D01*
X173553450Y-112453894D01*
X173753662Y-112360534D01*
X173934620Y-112233826D01*
X174090826Y-112077620D01*
X174217534Y-111896662D01*
X174310894Y-111696450D01*
X174368070Y-111483068D01*
X174387323Y-111263000D01*
X174368070Y-111042932D01*
X174310894Y-110829550D01*
X174217534Y-110629339D01*
X174154180Y-110538859D01*
X174090827Y-110448381D01*
X174082443Y-110439997D01*
X173934620Y-110292174D01*
X173934616Y-110292171D01*
X173934615Y-110292170D01*
X173753666Y-110165468D01*
X173753658Y-110165464D01*
X173624811Y-110105382D01*
X173572371Y-110059210D01*
X173553219Y-109992017D01*
X173573435Y-109925135D01*
X173624811Y-109880618D01*
X173630802Y-109877824D01*
X173753662Y-109820534D01*
X173934620Y-109693826D01*
X174090826Y-109537620D01*
X174217534Y-109356662D01*
X174310894Y-109156450D01*
X174368070Y-108943068D01*
X174387323Y-108723000D01*
X174368070Y-108502932D01*
X174310894Y-108289550D01*
X174217534Y-108089339D01*
X174122496Y-107953610D01*
X174090827Y-107908381D01*
X174040132Y-107857686D01*
X173934620Y-107752174D01*
X173934616Y-107752171D01*
X173934615Y-107752170D01*
X173753666Y-107625468D01*
X173753658Y-107625464D01*
X173624219Y-107565106D01*
X173571779Y-107518934D01*
X173552627Y-107451741D01*
X173572843Y-107384859D01*
X173624219Y-107340342D01*
X173753408Y-107280100D01*
X173753420Y-107280093D01*
X173818186Y-107234742D01*
X173818187Y-107234741D01*
X173386301Y-106802855D01*
X173352816Y-106741532D01*
X173357800Y-106671840D01*
X173392779Y-106621461D01*
X173398559Y-106616452D01*
X173398562Y-106616451D01*
X173509395Y-106520413D01*
X173544189Y-106466271D01*
X173596992Y-106420518D01*
X173666150Y-106410574D01*
X173729706Y-106439599D01*
X173736185Y-106445631D01*
X174171741Y-106881187D01*
X174171742Y-106881186D01*
X174217093Y-106816420D01*
X174217100Y-106816408D01*
X174310419Y-106616284D01*
X174310424Y-106616270D01*
X174367573Y-106402986D01*
X174367575Y-106402976D01*
X174386821Y-106183000D01*
X174386821Y-106182999D01*
X174367575Y-105963023D01*
X174367573Y-105963013D01*
X174310424Y-105749729D01*
X174310420Y-105749720D01*
X174217098Y-105549590D01*
X174171740Y-105484811D01*
X173736184Y-105920367D01*
X173674861Y-105953852D01*
X173605169Y-105948868D01*
X173549236Y-105906996D01*
X173544187Y-105899725D01*
X173509395Y-105845587D01*
X173488073Y-105827111D01*
X173392779Y-105744537D01*
X173355005Y-105685759D01*
X173355005Y-105615889D01*
X173386301Y-105563144D01*
X173818187Y-105131258D01*
X173753409Y-105085900D01*
X173753407Y-105085899D01*
X173624219Y-105025658D01*
X173571779Y-104979486D01*
X173552627Y-104912293D01*
X173572843Y-104845411D01*
X173624219Y-104800894D01*
X173624811Y-104800618D01*
X173753662Y-104740534D01*
X173934620Y-104613826D01*
X174090826Y-104457620D01*
X174217534Y-104276662D01*
X174310894Y-104076450D01*
X174368070Y-103863068D01*
X174387323Y-103643000D01*
X174368070Y-103422932D01*
X174310894Y-103209550D01*
X174217534Y-103009339D01*
X174174493Y-102947870D01*
X203939500Y-102947870D01*
X203939501Y-102947876D01*
X203945908Y-103007483D01*
X203996202Y-103142328D01*
X203996206Y-103142335D01*
X204082452Y-103257544D01*
X204082455Y-103257547D01*
X204197664Y-103343793D01*
X204197671Y-103343797D01*
X204332517Y-103394091D01*
X204332516Y-103394091D01*
X204339444Y-103394835D01*
X204392127Y-103400500D01*
X207087872Y-103400499D01*
X207147483Y-103394091D01*
X207282331Y-103343796D01*
X207397546Y-103257546D01*
X207483796Y-103142331D01*
X207534091Y-103007483D01*
X207540500Y-102947873D01*
X207540499Y-100252128D01*
X207534091Y-100192517D01*
X207483796Y-100057669D01*
X207483795Y-100057668D01*
X207483793Y-100057664D01*
X207397547Y-99942455D01*
X207397544Y-99942452D01*
X207282335Y-99856206D01*
X207282328Y-99856202D01*
X207147482Y-99805908D01*
X207147483Y-99805908D01*
X207087883Y-99799501D01*
X207087881Y-99799500D01*
X207087873Y-99799500D01*
X207087864Y-99799500D01*
X204392129Y-99799500D01*
X204392123Y-99799501D01*
X204332516Y-99805908D01*
X204197671Y-99856202D01*
X204197664Y-99856206D01*
X204082455Y-99942452D01*
X204082452Y-99942455D01*
X203996206Y-100057664D01*
X203996202Y-100057671D01*
X203945908Y-100192517D01*
X203939501Y-100252116D01*
X203939501Y-100252123D01*
X203939500Y-100252135D01*
X203939500Y-102947870D01*
X174174493Y-102947870D01*
X174122082Y-102873018D01*
X174090827Y-102828381D01*
X174030352Y-102767906D01*
X173934620Y-102672174D01*
X173934616Y-102672171D01*
X173934615Y-102672170D01*
X173753666Y-102545468D01*
X173753658Y-102545464D01*
X173624811Y-102485382D01*
X173572371Y-102439210D01*
X173553219Y-102372017D01*
X173573435Y-102305135D01*
X173624811Y-102260618D01*
X173630802Y-102257824D01*
X173753662Y-102200534D01*
X173934620Y-102073826D01*
X174090826Y-101917620D01*
X174217534Y-101736662D01*
X174310894Y-101536450D01*
X174368070Y-101323068D01*
X174387323Y-101103000D01*
X174368070Y-100882932D01*
X174310894Y-100669550D01*
X174217534Y-100469339D01*
X174090826Y-100288380D01*
X173934620Y-100132174D01*
X173934616Y-100132171D01*
X173934615Y-100132170D01*
X173753666Y-100005468D01*
X173753658Y-100005464D01*
X173624811Y-99945382D01*
X173572371Y-99899210D01*
X173553219Y-99832017D01*
X173573435Y-99765135D01*
X173624811Y-99720618D01*
X173634182Y-99716248D01*
X173753662Y-99660534D01*
X173934620Y-99533826D01*
X174090826Y-99377620D01*
X174217534Y-99196662D01*
X174310894Y-98996450D01*
X174368070Y-98783068D01*
X174387323Y-98563000D01*
X174368070Y-98342932D01*
X174310894Y-98129550D01*
X174217534Y-97929339D01*
X174090826Y-97748380D01*
X173934620Y-97592174D01*
X173934616Y-97592171D01*
X173934615Y-97592170D01*
X173753666Y-97465468D01*
X173753658Y-97465464D01*
X173624811Y-97405382D01*
X173572371Y-97359210D01*
X173553219Y-97292017D01*
X173573435Y-97225135D01*
X173624811Y-97180618D01*
X173630802Y-97177824D01*
X173753662Y-97120534D01*
X173934620Y-96993826D01*
X174090826Y-96837620D01*
X174217534Y-96656662D01*
X174281258Y-96520004D01*
X203934451Y-96520004D01*
X203954616Y-96789101D01*
X204014664Y-97052188D01*
X204014666Y-97052195D01*
X204113256Y-97303396D01*
X204113258Y-97303400D01*
X204115077Y-97306550D01*
X204248185Y-97537102D01*
X204384080Y-97707509D01*
X204416442Y-97748089D01*
X204603183Y-97921358D01*
X204614259Y-97931635D01*
X204837226Y-98083651D01*
X205080359Y-98200738D01*
X205338228Y-98280280D01*
X205338229Y-98280280D01*
X205338232Y-98280281D01*
X205605063Y-98320499D01*
X205605068Y-98320499D01*
X205605071Y-98320500D01*
X205605072Y-98320500D01*
X205874928Y-98320500D01*
X205874929Y-98320500D01*
X205874936Y-98320499D01*
X206141767Y-98280281D01*
X206141768Y-98280280D01*
X206141772Y-98280280D01*
X206399641Y-98200738D01*
X206642775Y-98083651D01*
X206865741Y-97931635D01*
X207063243Y-97748380D01*
X207063557Y-97748089D01*
X207063557Y-97748087D01*
X207063561Y-97748085D01*
X207231815Y-97537102D01*
X207366743Y-97303398D01*
X207465334Y-97052195D01*
X207525383Y-96789103D01*
X207543368Y-96549106D01*
X207545549Y-96520004D01*
X207545549Y-96519995D01*
X207525383Y-96250898D01*
X207525383Y-96250897D01*
X207465334Y-95987805D01*
X207366743Y-95736602D01*
X207231815Y-95502898D01*
X207063561Y-95291915D01*
X207063560Y-95291914D01*
X207063557Y-95291910D01*
X206865741Y-95108365D01*
X206642775Y-94956349D01*
X206642769Y-94956346D01*
X206642768Y-94956345D01*
X206642767Y-94956344D01*
X206399643Y-94839263D01*
X206399645Y-94839263D01*
X206141773Y-94759720D01*
X206141767Y-94759718D01*
X205874936Y-94719500D01*
X205874929Y-94719500D01*
X205605071Y-94719500D01*
X205605063Y-94719500D01*
X205338232Y-94759718D01*
X205338226Y-94759720D01*
X205080358Y-94839262D01*
X204837230Y-94956346D01*
X204614258Y-95108365D01*
X204416442Y-95291910D01*
X204248185Y-95502898D01*
X204113258Y-95736599D01*
X204113256Y-95736603D01*
X204014666Y-95987804D01*
X204014664Y-95987811D01*
X203954616Y-96250898D01*
X203934451Y-96519995D01*
X203934451Y-96520004D01*
X174281258Y-96520004D01*
X174310894Y-96456450D01*
X174368070Y-96243068D01*
X174387323Y-96023000D01*
X174368070Y-95802932D01*
X174310894Y-95589550D01*
X174217534Y-95389339D01*
X174143917Y-95284202D01*
X174090827Y-95208381D01*
X174082443Y-95199997D01*
X173934620Y-95052174D01*
X173934616Y-95052171D01*
X173934615Y-95052170D01*
X173753666Y-94925468D01*
X173753658Y-94925464D01*
X173624219Y-94865106D01*
X173571779Y-94818934D01*
X173552627Y-94751741D01*
X173572843Y-94684859D01*
X173624219Y-94640342D01*
X173753408Y-94580100D01*
X173753420Y-94580093D01*
X173818186Y-94534742D01*
X173818187Y-94534741D01*
X173386301Y-94102855D01*
X173352816Y-94041532D01*
X173357800Y-93971840D01*
X173392779Y-93921461D01*
X173398559Y-93916452D01*
X173398562Y-93916451D01*
X173509395Y-93820413D01*
X173544189Y-93766271D01*
X173596992Y-93720518D01*
X173666150Y-93710574D01*
X173729706Y-93739599D01*
X173736185Y-93745631D01*
X174171741Y-94181187D01*
X174171742Y-94181186D01*
X174217093Y-94116420D01*
X174217100Y-94116408D01*
X174310419Y-93916284D01*
X174310424Y-93916270D01*
X174367573Y-93702986D01*
X174367575Y-93702976D01*
X174386821Y-93483000D01*
X174386821Y-93482999D01*
X174367575Y-93263023D01*
X174367573Y-93263013D01*
X174310424Y-93049729D01*
X174310420Y-93049720D01*
X174217098Y-92849590D01*
X174171740Y-92784811D01*
X173736184Y-93220367D01*
X173674861Y-93253852D01*
X173605169Y-93248868D01*
X173549236Y-93206996D01*
X173544187Y-93199725D01*
X173509395Y-93145587D01*
X173509392Y-93145584D01*
X173392779Y-93044537D01*
X173355005Y-92985759D01*
X173355005Y-92915889D01*
X173386301Y-92863144D01*
X173818187Y-92431258D01*
X173753409Y-92385900D01*
X173753407Y-92385899D01*
X173553284Y-92292580D01*
X173553270Y-92292575D01*
X173339986Y-92235426D01*
X173339976Y-92235424D01*
X173120001Y-92216179D01*
X173119999Y-92216179D01*
X172900023Y-92235424D01*
X172900013Y-92235426D01*
X172686729Y-92292575D01*
X172686720Y-92292579D01*
X172486586Y-92385903D01*
X172421812Y-92431257D01*
X172421812Y-92431258D01*
X172853698Y-92863144D01*
X172887183Y-92924467D01*
X172882199Y-92994159D01*
X172847221Y-93044537D01*
X172730604Y-93145587D01*
X172695810Y-93199728D01*
X172643005Y-93245482D01*
X172573846Y-93255425D01*
X172510291Y-93226399D01*
X172503814Y-93220368D01*
X172068258Y-92784811D01*
X172068257Y-92784812D01*
X172022903Y-92849586D01*
X171929579Y-93049720D01*
X171929575Y-93049729D01*
X171872426Y-93263013D01*
X171872424Y-93263023D01*
X171853179Y-93482999D01*
X171853179Y-93483000D01*
X171872424Y-93702976D01*
X171872426Y-93702986D01*
X171929575Y-93916270D01*
X171929580Y-93916284D01*
X172022899Y-94116407D01*
X172022900Y-94116409D01*
X172068258Y-94181187D01*
X172503814Y-93745630D01*
X172565137Y-93712145D01*
X172634828Y-93717129D01*
X172690762Y-93759000D01*
X172695806Y-93766266D01*
X172730605Y-93820413D01*
X172841431Y-93916445D01*
X172847219Y-93921460D01*
X172884993Y-93980239D01*
X172884993Y-94050108D01*
X172853697Y-94102854D01*
X172421811Y-94534740D01*
X172421811Y-94534741D01*
X172486582Y-94580094D01*
X172486588Y-94580098D01*
X172615781Y-94640342D01*
X172668220Y-94686514D01*
X172687372Y-94753708D01*
X172667156Y-94820589D01*
X172615781Y-94865106D01*
X172486340Y-94925465D01*
X172486338Y-94925466D01*
X172305377Y-95052175D01*
X172149175Y-95208377D01*
X172022466Y-95389338D01*
X172022465Y-95389340D01*
X171929107Y-95589548D01*
X171929104Y-95589554D01*
X171871930Y-95802929D01*
X171871929Y-95802937D01*
X171852677Y-96022997D01*
X171852677Y-96023002D01*
X171871929Y-96243062D01*
X171871930Y-96243070D01*
X171929104Y-96456445D01*
X171929105Y-96456447D01*
X171929106Y-96456450D01*
X171972312Y-96549106D01*
X172022466Y-96656662D01*
X172022468Y-96656666D01*
X172149170Y-96837615D01*
X172149175Y-96837621D01*
X172305378Y-96993824D01*
X172305384Y-96993829D01*
X172486333Y-97120531D01*
X172486335Y-97120532D01*
X172486338Y-97120534D01*
X172605748Y-97176215D01*
X172615189Y-97180618D01*
X172667628Y-97226790D01*
X172686780Y-97293984D01*
X172666564Y-97360865D01*
X172615189Y-97405382D01*
X172486340Y-97465465D01*
X172486338Y-97465466D01*
X172305377Y-97592175D01*
X172149175Y-97748377D01*
X172022466Y-97929338D01*
X172022465Y-97929340D01*
X171929107Y-98129548D01*
X171929104Y-98129554D01*
X171871930Y-98342929D01*
X171871929Y-98342937D01*
X171852677Y-98562997D01*
X171852677Y-98563002D01*
X171871929Y-98783062D01*
X171871930Y-98783070D01*
X171929104Y-98996445D01*
X171929105Y-98996447D01*
X171929106Y-98996450D01*
X172008828Y-99167415D01*
X172022466Y-99196662D01*
X172022468Y-99196666D01*
X172149170Y-99377615D01*
X172149175Y-99377621D01*
X172305378Y-99533824D01*
X172305384Y-99533829D01*
X172486333Y-99660531D01*
X172486335Y-99660532D01*
X172486338Y-99660534D01*
X172557682Y-99693802D01*
X172615189Y-99720618D01*
X172667628Y-99766790D01*
X172686780Y-99833984D01*
X172666564Y-99900865D01*
X172615189Y-99945382D01*
X172486340Y-100005465D01*
X172486338Y-100005466D01*
X172305377Y-100132175D01*
X172149175Y-100288377D01*
X172022466Y-100469338D01*
X172022465Y-100469340D01*
X171929107Y-100669548D01*
X171929104Y-100669554D01*
X171871930Y-100882929D01*
X171871929Y-100882937D01*
X171852677Y-101102997D01*
X171852677Y-101103002D01*
X171871929Y-101323062D01*
X171871930Y-101323070D01*
X171929104Y-101536445D01*
X171929105Y-101536447D01*
X171929106Y-101536450D01*
X172015845Y-101722464D01*
X172022466Y-101736662D01*
X172022468Y-101736666D01*
X172149170Y-101917615D01*
X172149175Y-101917621D01*
X172305378Y-102073824D01*
X172305384Y-102073829D01*
X172486333Y-102200531D01*
X172486335Y-102200532D01*
X172486338Y-102200534D01*
X172605748Y-102256215D01*
X172615189Y-102260618D01*
X172667628Y-102306790D01*
X172686780Y-102373984D01*
X172666564Y-102440865D01*
X172615189Y-102485382D01*
X172486340Y-102545465D01*
X172486338Y-102545466D01*
X172305377Y-102672175D01*
X172149175Y-102828377D01*
X172022466Y-103009338D01*
X172022465Y-103009340D01*
X171929107Y-103209548D01*
X171929104Y-103209554D01*
X171871930Y-103422929D01*
X171871929Y-103422937D01*
X171852677Y-103642997D01*
X171852677Y-103643002D01*
X171871929Y-103863062D01*
X171871930Y-103863070D01*
X171929104Y-104076445D01*
X171929105Y-104076447D01*
X171929106Y-104076450D01*
X171972312Y-104169106D01*
X172022466Y-104276662D01*
X172022468Y-104276666D01*
X172149170Y-104457615D01*
X172149175Y-104457621D01*
X172305378Y-104613824D01*
X172305384Y-104613829D01*
X172486333Y-104740531D01*
X172486335Y-104740532D01*
X172486338Y-104740534D01*
X172615189Y-104800618D01*
X172615781Y-104800894D01*
X172668220Y-104847066D01*
X172687372Y-104914260D01*
X172667156Y-104981141D01*
X172615781Y-105025658D01*
X172486586Y-105085903D01*
X172421812Y-105131257D01*
X172421812Y-105131258D01*
X172853698Y-105563144D01*
X172887183Y-105624467D01*
X172882199Y-105694159D01*
X172847221Y-105744537D01*
X172730604Y-105845587D01*
X172695810Y-105899728D01*
X172643005Y-105945482D01*
X172573846Y-105955425D01*
X172510291Y-105926399D01*
X172503814Y-105920368D01*
X172068258Y-105484811D01*
X172068257Y-105484812D01*
X172022903Y-105549586D01*
X171929579Y-105749720D01*
X171929575Y-105749729D01*
X171872426Y-105963013D01*
X171872424Y-105963023D01*
X171853179Y-106182999D01*
X171853179Y-106183000D01*
X171872424Y-106402976D01*
X171872426Y-106402986D01*
X171929575Y-106616270D01*
X171929580Y-106616284D01*
X172022899Y-106816407D01*
X172022900Y-106816409D01*
X172068258Y-106881187D01*
X172503814Y-106445630D01*
X172565137Y-106412145D01*
X172634828Y-106417129D01*
X172690762Y-106459000D01*
X172695806Y-106466266D01*
X172730605Y-106520413D01*
X172841431Y-106616445D01*
X172847219Y-106621460D01*
X172884993Y-106680239D01*
X172884993Y-106750108D01*
X172853697Y-106802854D01*
X172421811Y-107234740D01*
X172421811Y-107234741D01*
X172486582Y-107280094D01*
X172486588Y-107280098D01*
X172615781Y-107340342D01*
X172668220Y-107386514D01*
X172687372Y-107453708D01*
X172667156Y-107520589D01*
X172615781Y-107565106D01*
X172486340Y-107625465D01*
X172486338Y-107625466D01*
X172305377Y-107752175D01*
X172149175Y-107908377D01*
X172022466Y-108089338D01*
X172022465Y-108089340D01*
X171929107Y-108289548D01*
X171929104Y-108289554D01*
X171871930Y-108502929D01*
X171871929Y-108502937D01*
X171852677Y-108722997D01*
X171852677Y-108723002D01*
X171871929Y-108943062D01*
X171871930Y-108943070D01*
X171929104Y-109156445D01*
X171929105Y-109156447D01*
X171929106Y-109156450D01*
X171972312Y-109249106D01*
X172022466Y-109356662D01*
X172022468Y-109356666D01*
X172149170Y-109537615D01*
X172149175Y-109537621D01*
X172305378Y-109693824D01*
X172305384Y-109693829D01*
X172486333Y-109820531D01*
X172486335Y-109820532D01*
X172486338Y-109820534D01*
X172605748Y-109876215D01*
X172615189Y-109880618D01*
X172667628Y-109926790D01*
X172686780Y-109993984D01*
X172666564Y-110060865D01*
X172615189Y-110105382D01*
X172486340Y-110165465D01*
X172486338Y-110165466D01*
X172305377Y-110292175D01*
X172149175Y-110448377D01*
X172022466Y-110629338D01*
X172022465Y-110629340D01*
X171929107Y-110829548D01*
X171929104Y-110829554D01*
X171871930Y-111042929D01*
X171871929Y-111042937D01*
X171852677Y-111262997D01*
X171852677Y-111263002D01*
X159146821Y-111263002D01*
X159146821Y-111263000D01*
X159146821Y-111262999D01*
X159127575Y-111043023D01*
X159127573Y-111043013D01*
X159070424Y-110829729D01*
X159070420Y-110829720D01*
X158977098Y-110629590D01*
X158931740Y-110564811D01*
X158496184Y-111000367D01*
X158434861Y-111033852D01*
X158365169Y-111028868D01*
X158309236Y-110986996D01*
X158304187Y-110979725D01*
X158269395Y-110925587D01*
X158269392Y-110925584D01*
X158152779Y-110824537D01*
X158115005Y-110765759D01*
X158115005Y-110695889D01*
X158146301Y-110643144D01*
X158578187Y-110211258D01*
X158513409Y-110165900D01*
X158513407Y-110165899D01*
X158384219Y-110105658D01*
X158331779Y-110059486D01*
X158312627Y-109992293D01*
X158332843Y-109925411D01*
X158384219Y-109880894D01*
X158384811Y-109880618D01*
X158513662Y-109820534D01*
X158694620Y-109693826D01*
X158850826Y-109537620D01*
X158977534Y-109356662D01*
X159070894Y-109156450D01*
X159128070Y-108943068D01*
X159147323Y-108723000D01*
X159146589Y-108714615D01*
X159140103Y-108640474D01*
X159128070Y-108502932D01*
X159070894Y-108289550D01*
X158977534Y-108089339D01*
X158882496Y-107953610D01*
X158850827Y-107908381D01*
X158800132Y-107857686D01*
X158694620Y-107752174D01*
X158694616Y-107752171D01*
X158694615Y-107752170D01*
X158513666Y-107625468D01*
X158513658Y-107625464D01*
X158384811Y-107565382D01*
X158332371Y-107519210D01*
X158313219Y-107452017D01*
X158333435Y-107385135D01*
X158384811Y-107340618D01*
X158401386Y-107332889D01*
X158513662Y-107280534D01*
X158694620Y-107153826D01*
X158850826Y-106997620D01*
X158977534Y-106816662D01*
X159070894Y-106616450D01*
X159128070Y-106403068D01*
X159147323Y-106183000D01*
X159146589Y-106174615D01*
X159131426Y-106001292D01*
X159128070Y-105962932D01*
X159070894Y-105749550D01*
X158977534Y-105549339D01*
X158850826Y-105368380D01*
X158694620Y-105212174D01*
X158694616Y-105212171D01*
X158694615Y-105212170D01*
X158513666Y-105085468D01*
X158513658Y-105085464D01*
X158384811Y-105025382D01*
X158332371Y-104979210D01*
X158313219Y-104912017D01*
X158333435Y-104845135D01*
X158384811Y-104800618D01*
X158390802Y-104797824D01*
X158513662Y-104740534D01*
X158694620Y-104613826D01*
X158850826Y-104457620D01*
X158977534Y-104276662D01*
X159070894Y-104076450D01*
X159128070Y-103863068D01*
X159144816Y-103671653D01*
X159147323Y-103643002D01*
X159147323Y-103642997D01*
X159136530Y-103519634D01*
X159128070Y-103422932D01*
X159070894Y-103209550D01*
X158977534Y-103009339D01*
X158882082Y-102873018D01*
X158850827Y-102828381D01*
X158790352Y-102767906D01*
X158694620Y-102672174D01*
X158694616Y-102672171D01*
X158694615Y-102672170D01*
X158513666Y-102545468D01*
X158513658Y-102545464D01*
X158384811Y-102485382D01*
X158332371Y-102439210D01*
X158313219Y-102372017D01*
X158333435Y-102305135D01*
X158384811Y-102260618D01*
X158390802Y-102257824D01*
X158513662Y-102200534D01*
X158694620Y-102073826D01*
X158850826Y-101917620D01*
X158977534Y-101736662D01*
X159070894Y-101536450D01*
X159128070Y-101323068D01*
X159147323Y-101103000D01*
X159146589Y-101094615D01*
X159140103Y-101020474D01*
X159128070Y-100882932D01*
X159070894Y-100669550D01*
X158977534Y-100469339D01*
X158850826Y-100288380D01*
X158694620Y-100132174D01*
X158694616Y-100132171D01*
X158694615Y-100132170D01*
X158513666Y-100005468D01*
X158513658Y-100005464D01*
X158384811Y-99945382D01*
X158332371Y-99899210D01*
X158313219Y-99832017D01*
X158333435Y-99765135D01*
X158384811Y-99720618D01*
X158394182Y-99716248D01*
X158513662Y-99660534D01*
X158694620Y-99533826D01*
X158850826Y-99377620D01*
X158977534Y-99196662D01*
X159070894Y-98996450D01*
X159128070Y-98783068D01*
X159147323Y-98563000D01*
X159146589Y-98554615D01*
X159136167Y-98435482D01*
X159128070Y-98342932D01*
X159070894Y-98129550D01*
X158977534Y-97929339D01*
X158850826Y-97748380D01*
X158694620Y-97592174D01*
X158694616Y-97592171D01*
X158694615Y-97592170D01*
X158513666Y-97465468D01*
X158513658Y-97465464D01*
X158384811Y-97405382D01*
X158332371Y-97359210D01*
X158313219Y-97292017D01*
X158333435Y-97225135D01*
X158384811Y-97180618D01*
X158390802Y-97177824D01*
X158513662Y-97120534D01*
X158694620Y-96993826D01*
X158850826Y-96837620D01*
X158977534Y-96656662D01*
X159070894Y-96456450D01*
X159128070Y-96243068D01*
X159147323Y-96023000D01*
X159146589Y-96014615D01*
X159133222Y-95861819D01*
X159128070Y-95802932D01*
X159070894Y-95589550D01*
X158977534Y-95389339D01*
X158903917Y-95284202D01*
X158850827Y-95208381D01*
X158842443Y-95199997D01*
X158694620Y-95052174D01*
X158694616Y-95052171D01*
X158694615Y-95052170D01*
X158513666Y-94925468D01*
X158513658Y-94925464D01*
X158384811Y-94865382D01*
X158332371Y-94819210D01*
X158313219Y-94752017D01*
X158333435Y-94685135D01*
X158384811Y-94640618D01*
X158394182Y-94636248D01*
X158513662Y-94580534D01*
X158694620Y-94453826D01*
X158850826Y-94297620D01*
X158977534Y-94116662D01*
X159070894Y-93916450D01*
X159128070Y-93703068D01*
X159147323Y-93483000D01*
X159146589Y-93474615D01*
X159140103Y-93400474D01*
X159128070Y-93262932D01*
X159070894Y-93049550D01*
X158977534Y-92849339D01*
X158850826Y-92668380D01*
X158694620Y-92512174D01*
X158694616Y-92512171D01*
X158694615Y-92512170D01*
X158513666Y-92385468D01*
X158513662Y-92385466D01*
X158513660Y-92385465D01*
X158313450Y-92292106D01*
X158313447Y-92292105D01*
X158313445Y-92292104D01*
X158100070Y-92234930D01*
X158100062Y-92234929D01*
X157880002Y-92215677D01*
X157879998Y-92215677D01*
X157659937Y-92234929D01*
X157659929Y-92234930D01*
X157446554Y-92292104D01*
X157446548Y-92292107D01*
X157246340Y-92385465D01*
X157246338Y-92385466D01*
X157065377Y-92512175D01*
X156909175Y-92668377D01*
X156782466Y-92849338D01*
X156782465Y-92849340D01*
X156689107Y-93049548D01*
X156689104Y-93049554D01*
X156631930Y-93262929D01*
X156631929Y-93262937D01*
X156612677Y-93482997D01*
X156612677Y-93483002D01*
X156631929Y-93703062D01*
X156631930Y-93703070D01*
X156689104Y-93916445D01*
X156689105Y-93916447D01*
X156689106Y-93916450D01*
X156775845Y-94102464D01*
X156782466Y-94116662D01*
X156782468Y-94116666D01*
X156909170Y-94297615D01*
X156909175Y-94297621D01*
X157065378Y-94453824D01*
X157065384Y-94453829D01*
X157246333Y-94580531D01*
X157246335Y-94580532D01*
X157246338Y-94580534D01*
X157317682Y-94613802D01*
X157375189Y-94640618D01*
X157427628Y-94686790D01*
X157446780Y-94753984D01*
X157426564Y-94820865D01*
X157375189Y-94865382D01*
X157246340Y-94925465D01*
X157246338Y-94925466D01*
X157065377Y-95052175D01*
X156909175Y-95208377D01*
X156782466Y-95389338D01*
X156782465Y-95389340D01*
X156689107Y-95589548D01*
X156689104Y-95589554D01*
X156631930Y-95802929D01*
X156631929Y-95802937D01*
X156612677Y-96022997D01*
X156612677Y-96023002D01*
X156631929Y-96243062D01*
X156631930Y-96243070D01*
X156689104Y-96456445D01*
X156689105Y-96456447D01*
X156689106Y-96456450D01*
X156732312Y-96549106D01*
X156782466Y-96656662D01*
X156782468Y-96656666D01*
X156909170Y-96837615D01*
X156909175Y-96837621D01*
X157065378Y-96993824D01*
X157065384Y-96993829D01*
X157246333Y-97120531D01*
X157246335Y-97120532D01*
X157246338Y-97120534D01*
X157365748Y-97176215D01*
X157375189Y-97180618D01*
X157427628Y-97226790D01*
X157446780Y-97293984D01*
X157426564Y-97360865D01*
X157375189Y-97405382D01*
X157246340Y-97465465D01*
X157246338Y-97465466D01*
X157065377Y-97592175D01*
X156909175Y-97748377D01*
X156782466Y-97929338D01*
X156782465Y-97929340D01*
X156689107Y-98129548D01*
X156689104Y-98129554D01*
X156631930Y-98342929D01*
X156631929Y-98342937D01*
X156612677Y-98562997D01*
X156612677Y-98563002D01*
X156631929Y-98783062D01*
X156631930Y-98783070D01*
X156689104Y-98996445D01*
X156689105Y-98996447D01*
X156689106Y-98996450D01*
X156768828Y-99167415D01*
X156782466Y-99196662D01*
X156782468Y-99196666D01*
X156909170Y-99377615D01*
X156909175Y-99377621D01*
X157065378Y-99533824D01*
X157065384Y-99533829D01*
X157246333Y-99660531D01*
X157246335Y-99660532D01*
X157246338Y-99660534D01*
X157317682Y-99693802D01*
X157375189Y-99720618D01*
X157427628Y-99766790D01*
X157446780Y-99833984D01*
X157426564Y-99900865D01*
X157375189Y-99945382D01*
X157246340Y-100005465D01*
X157246338Y-100005466D01*
X157065377Y-100132175D01*
X156909175Y-100288377D01*
X156782466Y-100469338D01*
X156782465Y-100469340D01*
X156689107Y-100669548D01*
X156689104Y-100669554D01*
X156631930Y-100882929D01*
X156631929Y-100882937D01*
X156612677Y-101102997D01*
X156612677Y-101103002D01*
X156631929Y-101323062D01*
X156631930Y-101323070D01*
X156689104Y-101536445D01*
X156689105Y-101536447D01*
X156689106Y-101536450D01*
X156775845Y-101722464D01*
X156782466Y-101736662D01*
X156782468Y-101736666D01*
X156909170Y-101917615D01*
X156909175Y-101917621D01*
X157065378Y-102073824D01*
X157065384Y-102073829D01*
X157246333Y-102200531D01*
X157246335Y-102200532D01*
X157246338Y-102200534D01*
X157365748Y-102256215D01*
X157375189Y-102260618D01*
X157427628Y-102306790D01*
X157446780Y-102373984D01*
X157426564Y-102440865D01*
X157375189Y-102485382D01*
X157246340Y-102545465D01*
X157246338Y-102545466D01*
X157065377Y-102672175D01*
X156909175Y-102828377D01*
X156782466Y-103009338D01*
X156782465Y-103009340D01*
X156689107Y-103209548D01*
X156689104Y-103209554D01*
X156631930Y-103422929D01*
X156631929Y-103422937D01*
X156612677Y-103642997D01*
X156612677Y-103643002D01*
X156631929Y-103863062D01*
X156631930Y-103863070D01*
X156689104Y-104076445D01*
X156689105Y-104076447D01*
X156689106Y-104076450D01*
X156732312Y-104169106D01*
X156782466Y-104276662D01*
X156782468Y-104276666D01*
X156909170Y-104457615D01*
X156909175Y-104457621D01*
X157065378Y-104613824D01*
X157065384Y-104613829D01*
X157246333Y-104740531D01*
X157246335Y-104740532D01*
X157246338Y-104740534D01*
X157365748Y-104796215D01*
X157375189Y-104800618D01*
X157427628Y-104846790D01*
X157446780Y-104913984D01*
X157426564Y-104980865D01*
X157375189Y-105025382D01*
X157246340Y-105085465D01*
X157246338Y-105085466D01*
X157065377Y-105212175D01*
X156909175Y-105368377D01*
X156813776Y-105504623D01*
X156759199Y-105548248D01*
X156712201Y-105557500D01*
X156027738Y-105557500D01*
X156012121Y-105555776D01*
X156012094Y-105556062D01*
X156004332Y-105555327D01*
X155935204Y-105557500D01*
X155905650Y-105557500D01*
X155904929Y-105557590D01*
X155898757Y-105558369D01*
X155892945Y-105558826D01*
X155846373Y-105560290D01*
X155846372Y-105560290D01*
X155827129Y-105565881D01*
X155808079Y-105569825D01*
X155788211Y-105572334D01*
X155744884Y-105589488D01*
X155739358Y-105591379D01*
X155694614Y-105604379D01*
X155694610Y-105604381D01*
X155677366Y-105614579D01*
X155659905Y-105623133D01*
X155641274Y-105630510D01*
X155641262Y-105630517D01*
X155603570Y-105657902D01*
X155598687Y-105661109D01*
X155558580Y-105684829D01*
X155544414Y-105698995D01*
X155529624Y-105711627D01*
X155513414Y-105723404D01*
X155513411Y-105723407D01*
X155483710Y-105759309D01*
X155479777Y-105763631D01*
X152016208Y-109227199D01*
X152003951Y-109237020D01*
X152004134Y-109237241D01*
X151998123Y-109242213D01*
X151950772Y-109292636D01*
X151929889Y-109313519D01*
X151929877Y-109313532D01*
X151925621Y-109319017D01*
X151921837Y-109323447D01*
X151889937Y-109357418D01*
X151889936Y-109357420D01*
X151880284Y-109374976D01*
X151869610Y-109391226D01*
X151857329Y-109407061D01*
X151857324Y-109407068D01*
X151838815Y-109449838D01*
X151836245Y-109455084D01*
X151813803Y-109495906D01*
X151808822Y-109515307D01*
X151802521Y-109533710D01*
X151794562Y-109552102D01*
X151794561Y-109552105D01*
X151787271Y-109598127D01*
X151786087Y-109603846D01*
X151774501Y-109648972D01*
X151774500Y-109648982D01*
X151774500Y-109669016D01*
X151772973Y-109688415D01*
X151769840Y-109708194D01*
X151769840Y-109708195D01*
X151774225Y-109754583D01*
X151774500Y-109760421D01*
X151774500Y-120593546D01*
X151754815Y-120660585D01*
X151738181Y-120681227D01*
X149637228Y-122782181D01*
X149575905Y-122815666D01*
X149549547Y-122818500D01*
X142550452Y-122818500D01*
X142483413Y-122798815D01*
X142462771Y-122782181D01*
X141885819Y-122205228D01*
X141852334Y-122143905D01*
X141849500Y-122117547D01*
X141849500Y-120600002D01*
X148076677Y-120600002D01*
X148095929Y-120820062D01*
X148095930Y-120820070D01*
X148153104Y-121033445D01*
X148153105Y-121033447D01*
X148153106Y-121033450D01*
X148208968Y-121153246D01*
X148246466Y-121233662D01*
X148246468Y-121233666D01*
X148373170Y-121414615D01*
X148373175Y-121414621D01*
X148529378Y-121570824D01*
X148529384Y-121570829D01*
X148710333Y-121697531D01*
X148710335Y-121697532D01*
X148710338Y-121697534D01*
X148910550Y-121790894D01*
X149123932Y-121848070D01*
X149281123Y-121861822D01*
X149343998Y-121867323D01*
X149344000Y-121867323D01*
X149344002Y-121867323D01*
X149399017Y-121862509D01*
X149564068Y-121848070D01*
X149777450Y-121790894D01*
X149977662Y-121697534D01*
X150158620Y-121570826D01*
X150314826Y-121414620D01*
X150441534Y-121233662D01*
X150534894Y-121033450D01*
X150592070Y-120820068D01*
X150611323Y-120600000D01*
X150610758Y-120593546D01*
X150592070Y-120379937D01*
X150592070Y-120379932D01*
X150534894Y-120166550D01*
X150441534Y-119966339D01*
X150314826Y-119785380D01*
X150158620Y-119629174D01*
X150158616Y-119629171D01*
X150158615Y-119629170D01*
X149977666Y-119502468D01*
X149977662Y-119502466D01*
X149848810Y-119442381D01*
X149796371Y-119396208D01*
X149777219Y-119329015D01*
X149797435Y-119262134D01*
X149848806Y-119217620D01*
X149977662Y-119157534D01*
X150158620Y-119030826D01*
X150314826Y-118874620D01*
X150441534Y-118693662D01*
X150534894Y-118493450D01*
X150592070Y-118280068D01*
X150611323Y-118060000D01*
X150592070Y-117839932D01*
X150534894Y-117626550D01*
X150441534Y-117426339D01*
X150314826Y-117245380D01*
X150158620Y-117089174D01*
X150158616Y-117089171D01*
X150158615Y-117089170D01*
X149977666Y-116962468D01*
X149977658Y-116962464D01*
X149848811Y-116902382D01*
X149796371Y-116856210D01*
X149777219Y-116789017D01*
X149797435Y-116722135D01*
X149848811Y-116677618D01*
X149854802Y-116674824D01*
X149977662Y-116617534D01*
X150158620Y-116490826D01*
X150314826Y-116334620D01*
X150441534Y-116153662D01*
X150534894Y-115953450D01*
X150592070Y-115740068D01*
X150611323Y-115520000D01*
X150592070Y-115299932D01*
X150534894Y-115086550D01*
X150441534Y-114886339D01*
X150378180Y-114795859D01*
X150314827Y-114705381D01*
X150314823Y-114705377D01*
X150158620Y-114549174D01*
X150158616Y-114549171D01*
X150158615Y-114549170D01*
X149977666Y-114422468D01*
X149977662Y-114422466D01*
X149848810Y-114362381D01*
X149796371Y-114316208D01*
X149777219Y-114249015D01*
X149797435Y-114182134D01*
X149848806Y-114137620D01*
X149977662Y-114077534D01*
X150158620Y-113950826D01*
X150314826Y-113794620D01*
X150441534Y-113613662D01*
X150534894Y-113413450D01*
X150592070Y-113200068D01*
X150611323Y-112980000D01*
X150592070Y-112759932D01*
X150534894Y-112546550D01*
X150441534Y-112346339D01*
X150314826Y-112165380D01*
X150158620Y-112009174D01*
X150158616Y-112009171D01*
X150158615Y-112009170D01*
X149977666Y-111882468D01*
X149977658Y-111882464D01*
X149848811Y-111822382D01*
X149796371Y-111776210D01*
X149777219Y-111709017D01*
X149797435Y-111642135D01*
X149848811Y-111597618D01*
X149854802Y-111594824D01*
X149977662Y-111537534D01*
X150158620Y-111410826D01*
X150314826Y-111254620D01*
X150441534Y-111073662D01*
X150534894Y-110873450D01*
X150592070Y-110660068D01*
X150611323Y-110440000D01*
X150592070Y-110219932D01*
X150534894Y-110006550D01*
X150441534Y-109806339D01*
X150331352Y-109648982D01*
X150314827Y-109625381D01*
X150241548Y-109552102D01*
X150158620Y-109469174D01*
X150158616Y-109469171D01*
X150158615Y-109469170D01*
X149977666Y-109342468D01*
X149977658Y-109342464D01*
X149848811Y-109282382D01*
X149796371Y-109236210D01*
X149777219Y-109169017D01*
X149797435Y-109102135D01*
X149848811Y-109057618D01*
X149854802Y-109054824D01*
X149977662Y-108997534D01*
X150158620Y-108870826D01*
X150314826Y-108714620D01*
X150441534Y-108533662D01*
X150534894Y-108333450D01*
X150592070Y-108120068D01*
X150610590Y-107908377D01*
X150611323Y-107900002D01*
X150611323Y-107899997D01*
X150592070Y-107679937D01*
X150592070Y-107679932D01*
X150534894Y-107466550D01*
X150441534Y-107266339D01*
X150314826Y-107085380D01*
X150158620Y-106929174D01*
X150158616Y-106929171D01*
X150158615Y-106929170D01*
X149977666Y-106802468D01*
X149977658Y-106802464D01*
X149848811Y-106742382D01*
X149796371Y-106696210D01*
X149777219Y-106629017D01*
X149797435Y-106562135D01*
X149848811Y-106517618D01*
X149886595Y-106499999D01*
X149977662Y-106457534D01*
X150158620Y-106330826D01*
X150314826Y-106174620D01*
X150441534Y-105993662D01*
X150534894Y-105793450D01*
X150592070Y-105580068D01*
X150611323Y-105360000D01*
X150592070Y-105139932D01*
X150534894Y-104926550D01*
X150441534Y-104726339D01*
X150314826Y-104545380D01*
X150158620Y-104389174D01*
X150158616Y-104389171D01*
X150158615Y-104389170D01*
X149977666Y-104262468D01*
X149977658Y-104262464D01*
X149848811Y-104202382D01*
X149796371Y-104156210D01*
X149777219Y-104089017D01*
X149797435Y-104022135D01*
X149848811Y-103977618D01*
X149854802Y-103974824D01*
X149977662Y-103917534D01*
X150158620Y-103790826D01*
X150314826Y-103634620D01*
X150441534Y-103453662D01*
X150534894Y-103253450D01*
X150592070Y-103040068D01*
X150610964Y-102824102D01*
X150611323Y-102820002D01*
X150611323Y-102819997D01*
X150597562Y-102662713D01*
X150592070Y-102599932D01*
X150534894Y-102386550D01*
X150441534Y-102186339D01*
X150314826Y-102005380D01*
X150158620Y-101849174D01*
X150158616Y-101849171D01*
X150158615Y-101849170D01*
X149977666Y-101722468D01*
X149977658Y-101722464D01*
X149848811Y-101662382D01*
X149796371Y-101616210D01*
X149777219Y-101549017D01*
X149797435Y-101482135D01*
X149848811Y-101437618D01*
X149854802Y-101434824D01*
X149977662Y-101377534D01*
X150158620Y-101250826D01*
X150314826Y-101094620D01*
X150441534Y-100913662D01*
X150534894Y-100713450D01*
X150592070Y-100500068D01*
X150611323Y-100280000D01*
X150608884Y-100252127D01*
X150592070Y-100059937D01*
X150592070Y-100059932D01*
X150534894Y-99846550D01*
X150441534Y-99646339D01*
X150359128Y-99528650D01*
X150314827Y-99465381D01*
X150260650Y-99411204D01*
X150158620Y-99309174D01*
X150158616Y-99309171D01*
X150158615Y-99309170D01*
X149977666Y-99182468D01*
X149977658Y-99182464D01*
X149848811Y-99122382D01*
X149796371Y-99076210D01*
X149777219Y-99009017D01*
X149797435Y-98942135D01*
X149848811Y-98897618D01*
X149854802Y-98894824D01*
X149977662Y-98837534D01*
X150158620Y-98710826D01*
X150314826Y-98554620D01*
X150441534Y-98373662D01*
X150534894Y-98173450D01*
X150592070Y-97960068D01*
X150611323Y-97740000D01*
X150592070Y-97519932D01*
X150534894Y-97306550D01*
X150441534Y-97106339D01*
X150314826Y-96925380D01*
X150158620Y-96769174D01*
X150158616Y-96769171D01*
X150158615Y-96769170D01*
X149977666Y-96642468D01*
X149977658Y-96642464D01*
X149848811Y-96582382D01*
X149796371Y-96536210D01*
X149777219Y-96469017D01*
X149797435Y-96402135D01*
X149848811Y-96357618D01*
X149854802Y-96354824D01*
X149977662Y-96297534D01*
X150158620Y-96170826D01*
X150314826Y-96014620D01*
X150441534Y-95833662D01*
X150534894Y-95633450D01*
X150592070Y-95420068D01*
X150611323Y-95200000D01*
X150592070Y-94979932D01*
X150534894Y-94766550D01*
X150441534Y-94566339D01*
X150314826Y-94385380D01*
X150158620Y-94229174D01*
X150158616Y-94229171D01*
X150158615Y-94229170D01*
X149977666Y-94102468D01*
X149977658Y-94102464D01*
X149848811Y-94042382D01*
X149796371Y-93996210D01*
X149777219Y-93929017D01*
X149797435Y-93862135D01*
X149848811Y-93817618D01*
X149854802Y-93814824D01*
X149977662Y-93757534D01*
X150158620Y-93630826D01*
X150314826Y-93474620D01*
X150441534Y-93293662D01*
X150534894Y-93093450D01*
X150592070Y-92880068D01*
X150611323Y-92660000D01*
X150592070Y-92439932D01*
X150534894Y-92226550D01*
X150441534Y-92026339D01*
X150314826Y-91845380D01*
X150158620Y-91689174D01*
X150158616Y-91689171D01*
X150158615Y-91689170D01*
X149977666Y-91562468D01*
X149977658Y-91562464D01*
X149848219Y-91502106D01*
X149795779Y-91455934D01*
X149776627Y-91388741D01*
X149796843Y-91321859D01*
X149848219Y-91277342D01*
X149977408Y-91217100D01*
X149977420Y-91217093D01*
X150042186Y-91171742D01*
X150042187Y-91171741D01*
X149610301Y-90739855D01*
X149576816Y-90678532D01*
X149581800Y-90608840D01*
X149616779Y-90558461D01*
X149622559Y-90553452D01*
X149622562Y-90553451D01*
X149733395Y-90457413D01*
X149768189Y-90403271D01*
X149820992Y-90357518D01*
X149890150Y-90347574D01*
X149953706Y-90376599D01*
X149960185Y-90382631D01*
X150395741Y-90818187D01*
X150395742Y-90818186D01*
X150441093Y-90753420D01*
X150441100Y-90753408D01*
X150534419Y-90553284D01*
X150534424Y-90553270D01*
X150591573Y-90339986D01*
X150591575Y-90339976D01*
X150610821Y-90120000D01*
X150610821Y-90119999D01*
X150591575Y-89900023D01*
X150591573Y-89900013D01*
X150534424Y-89686729D01*
X150534420Y-89686720D01*
X150441098Y-89486590D01*
X150395740Y-89421811D01*
X149960184Y-89857367D01*
X149898861Y-89890852D01*
X149829169Y-89885868D01*
X149773236Y-89843996D01*
X149768187Y-89836725D01*
X149733395Y-89782587D01*
X149733392Y-89782584D01*
X149616779Y-89681537D01*
X149579005Y-89622759D01*
X149579005Y-89552889D01*
X149610301Y-89500144D01*
X150042187Y-89068258D01*
X149977409Y-89022900D01*
X149977407Y-89022899D01*
X149848219Y-88962658D01*
X149795779Y-88916486D01*
X149776627Y-88849293D01*
X149796843Y-88782411D01*
X149848219Y-88737894D01*
X149848811Y-88737618D01*
X149977662Y-88677534D01*
X150158620Y-88550826D01*
X150314826Y-88394620D01*
X150441534Y-88213662D01*
X150534894Y-88013450D01*
X150592070Y-87800068D01*
X150608692Y-87610070D01*
X150611323Y-87580002D01*
X150611323Y-87579997D01*
X150604103Y-87497474D01*
X150594701Y-87390002D01*
X159017677Y-87390002D01*
X159036929Y-87610062D01*
X159036930Y-87610070D01*
X159094104Y-87823445D01*
X159094105Y-87823447D01*
X159094106Y-87823450D01*
X159182702Y-88013445D01*
X159187466Y-88023662D01*
X159187468Y-88023666D01*
X159314170Y-88204615D01*
X159314175Y-88204621D01*
X159470378Y-88360824D01*
X159470384Y-88360829D01*
X159651333Y-88487531D01*
X159651335Y-88487532D01*
X159651338Y-88487534D01*
X159851550Y-88580894D01*
X160064932Y-88638070D01*
X160222123Y-88651822D01*
X160284998Y-88657323D01*
X160285000Y-88657323D01*
X160285002Y-88657323D01*
X160340016Y-88652509D01*
X160505068Y-88638070D01*
X160718450Y-88580894D01*
X160918662Y-88487534D01*
X161099620Y-88360826D01*
X161255826Y-88204620D01*
X161382534Y-88023662D01*
X161475894Y-87823450D01*
X161533070Y-87610068D01*
X161552323Y-87390000D01*
X161549692Y-87359932D01*
X161533070Y-87169937D01*
X161533070Y-87169932D01*
X161475894Y-86956550D01*
X161382534Y-86756339D01*
X161319179Y-86665859D01*
X161255827Y-86575381D01*
X161255823Y-86575377D01*
X161099620Y-86419174D01*
X161099616Y-86419171D01*
X161099615Y-86419170D01*
X160918666Y-86292468D01*
X160918658Y-86292464D01*
X160789811Y-86232382D01*
X160737371Y-86186210D01*
X160718219Y-86119017D01*
X160738435Y-86052135D01*
X160789811Y-86007618D01*
X160795802Y-86004824D01*
X160918662Y-85947534D01*
X161099620Y-85820826D01*
X161255826Y-85664620D01*
X161382534Y-85483662D01*
X161475894Y-85283450D01*
X161533070Y-85070068D01*
X161552323Y-84850000D01*
X161549692Y-84819932D01*
X161533070Y-84629937D01*
X161533070Y-84629932D01*
X161475894Y-84416550D01*
X161382534Y-84216339D01*
X161319179Y-84125859D01*
X161255827Y-84035381D01*
X161255823Y-84035377D01*
X161099620Y-83879174D01*
X161099616Y-83879171D01*
X161099615Y-83879170D01*
X160918666Y-83752468D01*
X160918658Y-83752464D01*
X160789811Y-83692382D01*
X160737371Y-83646210D01*
X160718219Y-83579017D01*
X160738435Y-83512135D01*
X160789811Y-83467618D01*
X160795802Y-83464824D01*
X160918662Y-83407534D01*
X161099620Y-83280826D01*
X161255826Y-83124620D01*
X161382534Y-82943662D01*
X161475894Y-82743450D01*
X161533070Y-82530068D01*
X161552323Y-82310000D01*
X161549692Y-82279932D01*
X161533070Y-82089937D01*
X161533070Y-82089932D01*
X161475894Y-81876550D01*
X161382534Y-81676339D01*
X161319179Y-81585859D01*
X161255827Y-81495381D01*
X161255823Y-81495377D01*
X161099620Y-81339174D01*
X161099616Y-81339171D01*
X161099615Y-81339170D01*
X160918666Y-81212468D01*
X160918658Y-81212464D01*
X160789811Y-81152382D01*
X160737371Y-81106210D01*
X160718219Y-81039017D01*
X160738435Y-80972135D01*
X160789811Y-80927618D01*
X160795802Y-80924824D01*
X160918662Y-80867534D01*
X161099620Y-80740826D01*
X161255826Y-80584620D01*
X161382534Y-80403662D01*
X161475894Y-80203450D01*
X161533070Y-79990068D01*
X161552323Y-79770000D01*
X161549692Y-79739932D01*
X161533070Y-79549937D01*
X161533070Y-79549932D01*
X161475894Y-79336550D01*
X161382534Y-79136339D01*
X161319179Y-79045859D01*
X161255827Y-78955381D01*
X161255823Y-78955377D01*
X161099620Y-78799174D01*
X161099616Y-78799171D01*
X161099615Y-78799170D01*
X160918666Y-78672468D01*
X160918658Y-78672464D01*
X160789811Y-78612382D01*
X160737371Y-78566210D01*
X160718219Y-78499017D01*
X160738435Y-78432135D01*
X160789811Y-78387618D01*
X160795802Y-78384824D01*
X160918662Y-78327534D01*
X161099620Y-78200826D01*
X161255826Y-78044620D01*
X161382534Y-77863662D01*
X161475894Y-77663450D01*
X161533070Y-77450068D01*
X161552323Y-77230000D01*
X161549692Y-77199932D01*
X161533070Y-77009937D01*
X161533070Y-77009932D01*
X161475894Y-76796550D01*
X161382534Y-76596339D01*
X161319179Y-76505859D01*
X161255827Y-76415381D01*
X161255823Y-76415377D01*
X161099620Y-76259174D01*
X161099616Y-76259171D01*
X161099615Y-76259170D01*
X160918666Y-76132468D01*
X160918658Y-76132464D01*
X160789811Y-76072382D01*
X160737371Y-76026210D01*
X160718219Y-75959017D01*
X160738435Y-75892135D01*
X160789811Y-75847618D01*
X160795802Y-75844824D01*
X160918662Y-75787534D01*
X161099620Y-75660826D01*
X161255826Y-75504620D01*
X161382534Y-75323662D01*
X161475894Y-75123450D01*
X161533070Y-74910068D01*
X161552323Y-74690000D01*
X161549700Y-74660023D01*
X161533070Y-74469937D01*
X161533070Y-74469932D01*
X161475894Y-74256550D01*
X161382534Y-74056339D01*
X161319179Y-73965859D01*
X161255827Y-73875381D01*
X161208703Y-73828257D01*
X161099620Y-73719174D01*
X161099616Y-73719171D01*
X161099615Y-73719170D01*
X160918666Y-73592468D01*
X160918658Y-73592464D01*
X160789219Y-73532106D01*
X160736779Y-73485934D01*
X160717627Y-73418741D01*
X160737843Y-73351859D01*
X160789219Y-73307342D01*
X160918408Y-73247100D01*
X160918420Y-73247093D01*
X160983186Y-73201742D01*
X160983187Y-73201741D01*
X160551301Y-72769855D01*
X160517816Y-72708532D01*
X160522800Y-72638840D01*
X160557779Y-72588461D01*
X160563559Y-72583452D01*
X160563562Y-72583451D01*
X160674395Y-72487413D01*
X160709189Y-72433271D01*
X160761992Y-72387518D01*
X160831150Y-72377574D01*
X160894706Y-72406599D01*
X160901185Y-72412631D01*
X161336741Y-72848187D01*
X161336742Y-72848186D01*
X161382093Y-72783420D01*
X161382100Y-72783408D01*
X161475419Y-72583284D01*
X161475424Y-72583270D01*
X161532573Y-72369986D01*
X161532575Y-72369976D01*
X161551821Y-72150000D01*
X161551821Y-72149999D01*
X161532575Y-71930023D01*
X161532573Y-71930013D01*
X161475424Y-71716729D01*
X161475420Y-71716720D01*
X161382098Y-71516590D01*
X161336740Y-71451811D01*
X160901184Y-71887367D01*
X160839861Y-71920852D01*
X160770169Y-71915868D01*
X160714236Y-71873996D01*
X160709187Y-71866725D01*
X160674395Y-71812587D01*
X160674392Y-71812584D01*
X160557779Y-71711537D01*
X160520005Y-71652759D01*
X160520005Y-71582889D01*
X160551301Y-71530144D01*
X160983187Y-71098258D01*
X160918409Y-71052900D01*
X160918407Y-71052899D01*
X160789219Y-70992658D01*
X160736779Y-70946486D01*
X160717627Y-70879293D01*
X160737843Y-70812411D01*
X160789219Y-70767894D01*
X160918662Y-70707534D01*
X161099620Y-70580826D01*
X161255826Y-70424620D01*
X161382534Y-70243662D01*
X161475894Y-70043450D01*
X161533070Y-69830068D01*
X161552323Y-69610000D01*
X161533070Y-69389932D01*
X161475894Y-69176550D01*
X161382534Y-68976339D01*
X161255826Y-68795380D01*
X161099620Y-68639174D01*
X161099616Y-68639171D01*
X161099615Y-68639170D01*
X160918666Y-68512468D01*
X160918662Y-68512466D01*
X160918662Y-68512465D01*
X160718450Y-68419106D01*
X160718447Y-68419105D01*
X160718445Y-68419104D01*
X160505070Y-68361930D01*
X160505062Y-68361929D01*
X160285002Y-68342677D01*
X160284998Y-68342677D01*
X160064937Y-68361929D01*
X160064929Y-68361930D01*
X159851554Y-68419104D01*
X159851548Y-68419107D01*
X159651340Y-68512465D01*
X159651338Y-68512466D01*
X159470377Y-68639175D01*
X159314175Y-68795377D01*
X159187466Y-68976338D01*
X159187465Y-68976340D01*
X159094107Y-69176548D01*
X159094104Y-69176554D01*
X159036930Y-69389929D01*
X159036929Y-69389937D01*
X159017677Y-69609997D01*
X159017677Y-69610002D01*
X159036929Y-69830062D01*
X159036930Y-69830070D01*
X159094104Y-70043445D01*
X159094105Y-70043447D01*
X159094106Y-70043450D01*
X159187466Y-70243661D01*
X159187466Y-70243662D01*
X159187468Y-70243666D01*
X159314170Y-70424615D01*
X159314175Y-70424621D01*
X159470378Y-70580824D01*
X159470384Y-70580829D01*
X159651333Y-70707531D01*
X159651335Y-70707532D01*
X159651338Y-70707534D01*
X159780781Y-70767894D01*
X159833220Y-70814066D01*
X159852372Y-70881260D01*
X159832156Y-70948141D01*
X159780781Y-70992658D01*
X159651586Y-71052903D01*
X159586812Y-71098257D01*
X159586812Y-71098258D01*
X160018698Y-71530144D01*
X160052183Y-71591467D01*
X160047199Y-71661159D01*
X160012221Y-71711537D01*
X159895604Y-71812587D01*
X159860810Y-71866728D01*
X159808005Y-71912482D01*
X159738846Y-71922425D01*
X159675291Y-71893399D01*
X159668814Y-71887368D01*
X159233258Y-71451811D01*
X159233257Y-71451812D01*
X159187903Y-71516586D01*
X159094579Y-71716720D01*
X159094575Y-71716729D01*
X159037426Y-71930013D01*
X159037424Y-71930023D01*
X159018179Y-72149999D01*
X159018179Y-72150000D01*
X159037424Y-72369976D01*
X159037426Y-72369986D01*
X159094575Y-72583270D01*
X159094580Y-72583284D01*
X159187899Y-72783407D01*
X159187900Y-72783409D01*
X159233258Y-72848187D01*
X159668814Y-72412630D01*
X159730137Y-72379145D01*
X159799828Y-72384129D01*
X159855762Y-72426000D01*
X159860806Y-72433266D01*
X159895605Y-72487413D01*
X160006438Y-72583451D01*
X160012219Y-72588460D01*
X160049993Y-72647239D01*
X160049993Y-72717108D01*
X160018697Y-72769854D01*
X159586811Y-73201740D01*
X159586811Y-73201741D01*
X159651582Y-73247094D01*
X159651588Y-73247098D01*
X159780781Y-73307342D01*
X159833220Y-73353514D01*
X159852372Y-73420708D01*
X159832156Y-73487589D01*
X159780781Y-73532106D01*
X159651340Y-73592465D01*
X159651338Y-73592466D01*
X159470377Y-73719175D01*
X159314175Y-73875377D01*
X159187466Y-74056338D01*
X159187465Y-74056340D01*
X159128957Y-74181811D01*
X159098868Y-74246339D01*
X159094107Y-74256548D01*
X159094104Y-74256554D01*
X159036930Y-74469929D01*
X159036929Y-74469937D01*
X159017677Y-74689997D01*
X159017677Y-74690002D01*
X159036929Y-74910062D01*
X159036930Y-74910070D01*
X159094104Y-75123445D01*
X159094105Y-75123447D01*
X159094106Y-75123450D01*
X159182620Y-75313270D01*
X159187466Y-75323662D01*
X159187468Y-75323666D01*
X159314170Y-75504615D01*
X159314175Y-75504621D01*
X159470378Y-75660824D01*
X159470384Y-75660829D01*
X159651333Y-75787531D01*
X159651335Y-75787532D01*
X159651338Y-75787534D01*
X159770748Y-75843215D01*
X159780189Y-75847618D01*
X159832628Y-75893790D01*
X159851780Y-75960984D01*
X159831564Y-76027865D01*
X159780189Y-76072382D01*
X159651340Y-76132465D01*
X159651338Y-76132466D01*
X159470377Y-76259175D01*
X159314175Y-76415377D01*
X159187466Y-76596338D01*
X159187465Y-76596340D01*
X159104572Y-76774103D01*
X159098868Y-76786339D01*
X159094107Y-76796548D01*
X159094104Y-76796554D01*
X159036930Y-77009929D01*
X159036929Y-77009937D01*
X159017677Y-77229997D01*
X159017677Y-77230002D01*
X159036929Y-77450062D01*
X159036930Y-77450070D01*
X159094104Y-77663445D01*
X159094105Y-77663447D01*
X159094106Y-77663450D01*
X159182702Y-77853445D01*
X159187466Y-77863662D01*
X159187468Y-77863666D01*
X159314170Y-78044615D01*
X159314175Y-78044621D01*
X159470378Y-78200824D01*
X159470384Y-78200829D01*
X159651333Y-78327531D01*
X159651335Y-78327532D01*
X159651338Y-78327534D01*
X159770748Y-78383215D01*
X159780189Y-78387618D01*
X159832628Y-78433790D01*
X159851780Y-78500984D01*
X159831564Y-78567865D01*
X159780189Y-78612382D01*
X159651340Y-78672465D01*
X159651338Y-78672466D01*
X159470377Y-78799175D01*
X159314175Y-78955377D01*
X159187466Y-79136338D01*
X159187465Y-79136340D01*
X159104572Y-79314103D01*
X159098868Y-79326339D01*
X159094107Y-79336548D01*
X159094104Y-79336554D01*
X159036930Y-79549929D01*
X159036929Y-79549937D01*
X159017677Y-79769997D01*
X159017677Y-79770002D01*
X159036929Y-79990062D01*
X159036930Y-79990070D01*
X159094104Y-80203445D01*
X159094105Y-80203447D01*
X159094106Y-80203450D01*
X159182702Y-80393445D01*
X159187466Y-80403662D01*
X159187468Y-80403666D01*
X159314170Y-80584615D01*
X159314175Y-80584621D01*
X159470378Y-80740824D01*
X159470384Y-80740829D01*
X159651333Y-80867531D01*
X159651335Y-80867532D01*
X159651338Y-80867534D01*
X159770748Y-80923215D01*
X159780189Y-80927618D01*
X159832628Y-80973790D01*
X159851780Y-81040984D01*
X159831564Y-81107865D01*
X159780189Y-81152382D01*
X159651340Y-81212465D01*
X159651338Y-81212466D01*
X159470377Y-81339175D01*
X159314175Y-81495377D01*
X159187466Y-81676338D01*
X159187465Y-81676340D01*
X159104572Y-81854103D01*
X159098868Y-81866339D01*
X159094107Y-81876548D01*
X159094104Y-81876554D01*
X159036930Y-82089929D01*
X159036929Y-82089937D01*
X159017677Y-82309997D01*
X159017677Y-82310002D01*
X159036929Y-82530062D01*
X159036930Y-82530070D01*
X159094104Y-82743445D01*
X159094105Y-82743447D01*
X159094106Y-82743450D01*
X159182702Y-82933445D01*
X159187466Y-82943662D01*
X159187468Y-82943666D01*
X159314170Y-83124615D01*
X159314175Y-83124621D01*
X159470378Y-83280824D01*
X159470384Y-83280829D01*
X159651333Y-83407531D01*
X159651335Y-83407532D01*
X159651338Y-83407534D01*
X159770748Y-83463215D01*
X159780189Y-83467618D01*
X159832628Y-83513790D01*
X159851780Y-83580984D01*
X159831564Y-83647865D01*
X159780189Y-83692382D01*
X159651340Y-83752465D01*
X159651338Y-83752466D01*
X159470377Y-83879175D01*
X159314175Y-84035377D01*
X159187466Y-84216338D01*
X159187465Y-84216340D01*
X159104572Y-84394103D01*
X159098868Y-84406339D01*
X159094107Y-84416548D01*
X159094104Y-84416554D01*
X159036930Y-84629929D01*
X159036929Y-84629937D01*
X159017677Y-84849997D01*
X159017677Y-84850002D01*
X159036929Y-85070062D01*
X159036930Y-85070070D01*
X159094104Y-85283445D01*
X159094105Y-85283447D01*
X159094106Y-85283450D01*
X159182702Y-85473445D01*
X159187466Y-85483662D01*
X159187468Y-85483666D01*
X159314170Y-85664615D01*
X159314175Y-85664621D01*
X159470378Y-85820824D01*
X159470384Y-85820829D01*
X159651333Y-85947531D01*
X159651335Y-85947532D01*
X159651338Y-85947534D01*
X159770748Y-86003215D01*
X159780189Y-86007618D01*
X159832628Y-86053790D01*
X159851780Y-86120984D01*
X159831564Y-86187865D01*
X159780189Y-86232382D01*
X159651340Y-86292465D01*
X159651338Y-86292466D01*
X159470377Y-86419175D01*
X159314175Y-86575377D01*
X159187466Y-86756338D01*
X159187465Y-86756340D01*
X159104572Y-86934103D01*
X159098868Y-86946339D01*
X159094107Y-86956548D01*
X159094104Y-86956554D01*
X159036930Y-87169929D01*
X159036929Y-87169937D01*
X159017677Y-87389997D01*
X159017677Y-87390002D01*
X150594701Y-87390002D01*
X150592070Y-87359932D01*
X150534894Y-87146550D01*
X150441534Y-86946339D01*
X150314826Y-86765380D01*
X150158620Y-86609174D01*
X150158616Y-86609171D01*
X150158615Y-86609170D01*
X149977666Y-86482468D01*
X149977658Y-86482464D01*
X149848811Y-86422382D01*
X149796371Y-86376210D01*
X149777219Y-86309017D01*
X149797435Y-86242135D01*
X149848811Y-86197618D01*
X149869726Y-86187865D01*
X149977662Y-86137534D01*
X150158620Y-86010826D01*
X150314826Y-85854620D01*
X150441534Y-85673662D01*
X150534894Y-85473450D01*
X150592070Y-85260068D01*
X150608692Y-85070070D01*
X150611323Y-85040002D01*
X150611323Y-85039997D01*
X150604103Y-84957474D01*
X150592070Y-84819932D01*
X150534894Y-84606550D01*
X150441534Y-84406339D01*
X150314826Y-84225380D01*
X150158620Y-84069174D01*
X150158616Y-84069171D01*
X150158615Y-84069170D01*
X149977666Y-83942468D01*
X149977658Y-83942464D01*
X149848811Y-83882382D01*
X149796371Y-83836210D01*
X149777219Y-83769017D01*
X149797435Y-83702135D01*
X149848811Y-83657618D01*
X149869726Y-83647865D01*
X149977662Y-83597534D01*
X150158620Y-83470826D01*
X150314826Y-83314620D01*
X150441534Y-83133662D01*
X150534894Y-82933450D01*
X150592070Y-82720068D01*
X150608692Y-82530070D01*
X150611323Y-82500002D01*
X150611323Y-82499997D01*
X150604103Y-82417474D01*
X150592070Y-82279932D01*
X150534894Y-82066550D01*
X150441534Y-81866339D01*
X150314826Y-81685380D01*
X150158620Y-81529174D01*
X150158616Y-81529171D01*
X150158615Y-81529170D01*
X149977666Y-81402468D01*
X149977658Y-81402464D01*
X149848811Y-81342382D01*
X149796371Y-81296210D01*
X149777219Y-81229017D01*
X149797435Y-81162135D01*
X149848811Y-81117618D01*
X149869726Y-81107865D01*
X149977662Y-81057534D01*
X150158620Y-80930826D01*
X150314826Y-80774620D01*
X150441534Y-80593662D01*
X150534894Y-80393450D01*
X150592070Y-80180068D01*
X150608692Y-79990070D01*
X150611323Y-79960002D01*
X150611323Y-79959997D01*
X150604103Y-79877474D01*
X150592070Y-79739932D01*
X150534894Y-79526550D01*
X150441534Y-79326339D01*
X150314826Y-79145380D01*
X150158620Y-78989174D01*
X150158616Y-78989171D01*
X150158615Y-78989170D01*
X149977666Y-78862468D01*
X149977658Y-78862464D01*
X149848811Y-78802382D01*
X149796371Y-78756210D01*
X149777219Y-78689017D01*
X149797435Y-78622135D01*
X149848811Y-78577618D01*
X149869726Y-78567865D01*
X149977662Y-78517534D01*
X150158620Y-78390826D01*
X150314826Y-78234620D01*
X150441534Y-78053662D01*
X150534894Y-77853450D01*
X150592070Y-77640068D01*
X150608692Y-77450070D01*
X150611323Y-77420002D01*
X150611323Y-77419997D01*
X150604103Y-77337474D01*
X150592070Y-77199932D01*
X150534894Y-76986550D01*
X150441534Y-76786339D01*
X150314826Y-76605380D01*
X150158620Y-76449174D01*
X150158616Y-76449171D01*
X150158615Y-76449170D01*
X149977666Y-76322468D01*
X149977658Y-76322464D01*
X149848219Y-76262106D01*
X149795779Y-76215934D01*
X149776627Y-76148741D01*
X149796843Y-76081859D01*
X149848219Y-76037342D01*
X149977408Y-75977100D01*
X149977420Y-75977093D01*
X150042186Y-75931742D01*
X150042187Y-75931741D01*
X149610301Y-75499855D01*
X149576816Y-75438532D01*
X149581800Y-75368840D01*
X149616779Y-75318461D01*
X149622559Y-75313452D01*
X149622562Y-75313451D01*
X149733395Y-75217413D01*
X149768189Y-75163271D01*
X149820992Y-75117518D01*
X149890150Y-75107574D01*
X149953706Y-75136599D01*
X149960185Y-75142631D01*
X150395741Y-75578187D01*
X150395742Y-75578186D01*
X150441093Y-75513420D01*
X150441100Y-75513408D01*
X150534419Y-75313284D01*
X150534424Y-75313270D01*
X150591573Y-75099986D01*
X150591575Y-75099976D01*
X150610821Y-74880000D01*
X150610821Y-74879999D01*
X150591575Y-74660023D01*
X150591573Y-74660013D01*
X150534424Y-74446729D01*
X150534420Y-74446720D01*
X150441098Y-74246590D01*
X150395740Y-74181811D01*
X149960184Y-74617367D01*
X149898861Y-74650852D01*
X149829169Y-74645868D01*
X149773236Y-74603996D01*
X149768187Y-74596725D01*
X149733395Y-74542587D01*
X149733392Y-74542584D01*
X149616779Y-74441537D01*
X149579005Y-74382759D01*
X149579005Y-74312889D01*
X149610301Y-74260144D01*
X150042187Y-73828258D01*
X149977409Y-73782900D01*
X149977407Y-73782899D01*
X149777284Y-73689580D01*
X149777270Y-73689575D01*
X149563986Y-73632426D01*
X149563976Y-73632424D01*
X149344001Y-73613179D01*
X149343999Y-73613179D01*
X149124023Y-73632424D01*
X149124013Y-73632426D01*
X148910729Y-73689575D01*
X148910720Y-73689579D01*
X148710586Y-73782903D01*
X148645812Y-73828257D01*
X148645812Y-73828258D01*
X149077698Y-74260144D01*
X149111183Y-74321467D01*
X149106199Y-74391159D01*
X149071221Y-74441537D01*
X148954604Y-74542587D01*
X148919810Y-74596728D01*
X148867005Y-74642482D01*
X148797846Y-74652425D01*
X148734291Y-74623399D01*
X148727814Y-74617368D01*
X148292258Y-74181811D01*
X148292257Y-74181812D01*
X148246903Y-74246586D01*
X148153579Y-74446720D01*
X148153575Y-74446729D01*
X148096426Y-74660013D01*
X148096424Y-74660023D01*
X148077179Y-74879999D01*
X148077179Y-74880000D01*
X148096424Y-75099976D01*
X148096426Y-75099986D01*
X148153575Y-75313270D01*
X148153580Y-75313284D01*
X148246899Y-75513407D01*
X148246900Y-75513409D01*
X148292258Y-75578187D01*
X148727814Y-75142630D01*
X148789137Y-75109145D01*
X148858828Y-75114129D01*
X148914762Y-75156000D01*
X148919806Y-75163266D01*
X148954605Y-75217413D01*
X149065431Y-75313445D01*
X149071219Y-75318460D01*
X149108993Y-75377239D01*
X149108993Y-75447108D01*
X149077697Y-75499854D01*
X148645811Y-75931740D01*
X148645811Y-75931741D01*
X148710582Y-75977094D01*
X148710588Y-75977098D01*
X148839781Y-76037342D01*
X148892220Y-76083514D01*
X148911372Y-76150708D01*
X148891156Y-76217589D01*
X148839781Y-76262106D01*
X148710340Y-76322465D01*
X148710338Y-76322466D01*
X148529377Y-76449175D01*
X148373175Y-76605377D01*
X148246466Y-76786338D01*
X148246465Y-76786340D01*
X148153107Y-76986548D01*
X148153104Y-76986554D01*
X148095930Y-77199929D01*
X148095929Y-77199937D01*
X148076677Y-77419997D01*
X148076677Y-77420002D01*
X148095929Y-77640062D01*
X148095930Y-77640070D01*
X148153104Y-77853445D01*
X148153105Y-77853447D01*
X148153106Y-77853450D01*
X148157868Y-77863662D01*
X148246466Y-78053662D01*
X148246468Y-78053666D01*
X148373170Y-78234615D01*
X148373175Y-78234621D01*
X148529378Y-78390824D01*
X148529384Y-78390829D01*
X148710333Y-78517531D01*
X148710335Y-78517532D01*
X148710338Y-78517534D01*
X148818274Y-78567865D01*
X148839189Y-78577618D01*
X148891628Y-78623790D01*
X148910780Y-78690984D01*
X148890564Y-78757865D01*
X148839189Y-78802382D01*
X148710340Y-78862465D01*
X148710338Y-78862466D01*
X148529377Y-78989175D01*
X148373175Y-79145377D01*
X148246466Y-79326338D01*
X148246465Y-79326340D01*
X148153107Y-79526548D01*
X148153104Y-79526554D01*
X148095930Y-79739929D01*
X148095929Y-79739937D01*
X148076677Y-79959997D01*
X148076677Y-79960002D01*
X148095929Y-80180062D01*
X148095930Y-80180070D01*
X148153104Y-80393445D01*
X148153105Y-80393447D01*
X148153106Y-80393450D01*
X148157868Y-80403662D01*
X148246466Y-80593662D01*
X148246468Y-80593666D01*
X148373170Y-80774615D01*
X148373175Y-80774621D01*
X148529378Y-80930824D01*
X148529384Y-80930829D01*
X148710333Y-81057531D01*
X148710335Y-81057532D01*
X148710338Y-81057534D01*
X148818274Y-81107865D01*
X148839189Y-81117618D01*
X148891628Y-81163790D01*
X148910780Y-81230984D01*
X148890564Y-81297865D01*
X148839189Y-81342382D01*
X148710340Y-81402465D01*
X148710338Y-81402466D01*
X148529377Y-81529175D01*
X148373175Y-81685377D01*
X148246466Y-81866338D01*
X148246465Y-81866340D01*
X148153107Y-82066548D01*
X148153104Y-82066554D01*
X148095930Y-82279929D01*
X148095929Y-82279937D01*
X148076677Y-82499997D01*
X148076677Y-82500002D01*
X148095929Y-82720062D01*
X148095930Y-82720070D01*
X148153104Y-82933445D01*
X148153105Y-82933447D01*
X148153106Y-82933450D01*
X148157868Y-82943662D01*
X148246466Y-83133662D01*
X148246468Y-83133666D01*
X148373170Y-83314615D01*
X148373175Y-83314621D01*
X148529378Y-83470824D01*
X148529384Y-83470829D01*
X148710333Y-83597531D01*
X148710335Y-83597532D01*
X148710338Y-83597534D01*
X148818274Y-83647865D01*
X148839189Y-83657618D01*
X148891628Y-83703790D01*
X148910780Y-83770984D01*
X148890564Y-83837865D01*
X148839189Y-83882382D01*
X148710340Y-83942465D01*
X148710338Y-83942466D01*
X148529377Y-84069175D01*
X148373175Y-84225377D01*
X148246466Y-84406338D01*
X148246465Y-84406340D01*
X148153107Y-84606548D01*
X148153104Y-84606554D01*
X148095930Y-84819929D01*
X148095929Y-84819937D01*
X148076677Y-85039997D01*
X148076677Y-85040002D01*
X148095929Y-85260062D01*
X148095930Y-85260070D01*
X148153104Y-85473445D01*
X148153105Y-85473447D01*
X148153106Y-85473450D01*
X148157868Y-85483662D01*
X148246466Y-85673662D01*
X148246468Y-85673666D01*
X148373170Y-85854615D01*
X148373175Y-85854621D01*
X148529378Y-86010824D01*
X148529384Y-86010829D01*
X148710333Y-86137531D01*
X148710335Y-86137532D01*
X148710338Y-86137534D01*
X148818274Y-86187865D01*
X148839189Y-86197618D01*
X148891628Y-86243790D01*
X148910780Y-86310984D01*
X148890564Y-86377865D01*
X148839189Y-86422382D01*
X148710340Y-86482465D01*
X148710338Y-86482466D01*
X148529377Y-86609175D01*
X148373175Y-86765377D01*
X148246466Y-86946338D01*
X148246465Y-86946340D01*
X148153107Y-87146548D01*
X148153104Y-87146554D01*
X148095930Y-87359929D01*
X148095929Y-87359937D01*
X148076677Y-87579997D01*
X148076677Y-87580002D01*
X148095929Y-87800062D01*
X148095930Y-87800070D01*
X148153104Y-88013445D01*
X148153105Y-88013447D01*
X148153106Y-88013450D01*
X148157868Y-88023662D01*
X148246466Y-88213662D01*
X148246468Y-88213666D01*
X148373170Y-88394615D01*
X148373175Y-88394621D01*
X148529378Y-88550824D01*
X148529384Y-88550829D01*
X148710333Y-88677531D01*
X148710335Y-88677532D01*
X148710338Y-88677534D01*
X148839189Y-88737618D01*
X148839781Y-88737894D01*
X148892220Y-88784066D01*
X148911372Y-88851260D01*
X148891156Y-88918141D01*
X148839781Y-88962658D01*
X148710586Y-89022903D01*
X148645812Y-89068257D01*
X148645812Y-89068258D01*
X149077698Y-89500144D01*
X149111183Y-89561467D01*
X149106199Y-89631159D01*
X149071221Y-89681537D01*
X148954604Y-89782587D01*
X148919810Y-89836728D01*
X148867005Y-89882482D01*
X148797846Y-89892425D01*
X148734291Y-89863399D01*
X148727814Y-89857368D01*
X148292258Y-89421811D01*
X148292257Y-89421812D01*
X148246903Y-89486586D01*
X148153579Y-89686720D01*
X148153575Y-89686729D01*
X148096426Y-89900013D01*
X148096424Y-89900023D01*
X148077179Y-90119999D01*
X148077179Y-90120000D01*
X148096424Y-90339976D01*
X148096426Y-90339986D01*
X148153575Y-90553270D01*
X148153580Y-90553284D01*
X148246899Y-90753407D01*
X148246900Y-90753409D01*
X148292258Y-90818187D01*
X148727814Y-90382630D01*
X148789137Y-90349145D01*
X148858828Y-90354129D01*
X148914762Y-90396000D01*
X148919806Y-90403266D01*
X148954605Y-90457413D01*
X149065431Y-90553445D01*
X149071219Y-90558460D01*
X149108993Y-90617239D01*
X149108993Y-90687108D01*
X149077697Y-90739854D01*
X148645811Y-91171740D01*
X148645811Y-91171741D01*
X148710582Y-91217094D01*
X148710588Y-91217098D01*
X148839781Y-91277342D01*
X148892220Y-91323514D01*
X148911372Y-91390708D01*
X148891156Y-91457589D01*
X148839781Y-91502106D01*
X148710340Y-91562465D01*
X148710338Y-91562466D01*
X148529377Y-91689175D01*
X148373175Y-91845377D01*
X148246466Y-92026338D01*
X148246465Y-92026340D01*
X148153107Y-92226548D01*
X148153104Y-92226554D01*
X148095930Y-92439929D01*
X148095929Y-92439937D01*
X148076677Y-92659997D01*
X148076677Y-92660002D01*
X148095929Y-92880062D01*
X148095930Y-92880070D01*
X148153104Y-93093445D01*
X148153105Y-93093447D01*
X148153106Y-93093450D01*
X148232139Y-93262937D01*
X148246466Y-93293662D01*
X148246468Y-93293666D01*
X148373170Y-93474615D01*
X148373175Y-93474621D01*
X148529378Y-93630824D01*
X148529384Y-93630829D01*
X148710333Y-93757531D01*
X148710335Y-93757532D01*
X148710338Y-93757534D01*
X148829748Y-93813215D01*
X148839189Y-93817618D01*
X148891628Y-93863790D01*
X148910780Y-93930984D01*
X148890564Y-93997865D01*
X148839189Y-94042382D01*
X148710340Y-94102465D01*
X148710338Y-94102466D01*
X148529377Y-94229175D01*
X148373175Y-94385377D01*
X148246466Y-94566338D01*
X148246465Y-94566340D01*
X148153107Y-94766548D01*
X148153104Y-94766554D01*
X148095930Y-94979929D01*
X148095929Y-94979937D01*
X148076677Y-95199997D01*
X148076677Y-95200002D01*
X148095929Y-95420062D01*
X148095930Y-95420070D01*
X148153104Y-95633445D01*
X148153105Y-95633447D01*
X148153106Y-95633450D01*
X148232139Y-95802937D01*
X148246466Y-95833662D01*
X148246468Y-95833666D01*
X148373170Y-96014615D01*
X148373175Y-96014621D01*
X148529378Y-96170824D01*
X148529384Y-96170829D01*
X148710333Y-96297531D01*
X148710335Y-96297532D01*
X148710338Y-96297534D01*
X148829748Y-96353215D01*
X148839189Y-96357618D01*
X148891628Y-96403790D01*
X148910780Y-96470984D01*
X148890564Y-96537865D01*
X148839189Y-96582382D01*
X148710340Y-96642465D01*
X148710338Y-96642466D01*
X148529377Y-96769175D01*
X148373175Y-96925377D01*
X148246466Y-97106338D01*
X148246465Y-97106340D01*
X148153107Y-97306548D01*
X148153104Y-97306554D01*
X148095930Y-97519929D01*
X148095929Y-97519937D01*
X148076677Y-97739997D01*
X148076677Y-97740002D01*
X148095929Y-97960062D01*
X148095930Y-97960070D01*
X148153104Y-98173445D01*
X148153105Y-98173447D01*
X148153106Y-98173450D01*
X148232139Y-98342937D01*
X148246466Y-98373662D01*
X148246468Y-98373666D01*
X148373170Y-98554615D01*
X148373175Y-98554621D01*
X148529378Y-98710824D01*
X148529384Y-98710829D01*
X148710333Y-98837531D01*
X148710335Y-98837532D01*
X148710338Y-98837534D01*
X148829748Y-98893215D01*
X148839189Y-98897618D01*
X148891628Y-98943790D01*
X148910780Y-99010984D01*
X148890564Y-99077865D01*
X148839189Y-99122382D01*
X148710340Y-99182465D01*
X148710338Y-99182466D01*
X148529377Y-99309175D01*
X148373175Y-99465377D01*
X148246466Y-99646338D01*
X148246465Y-99646340D01*
X148153107Y-99846548D01*
X148153104Y-99846554D01*
X148095930Y-100059929D01*
X148095929Y-100059937D01*
X148076677Y-100279997D01*
X148076677Y-100280002D01*
X148095929Y-100500062D01*
X148095930Y-100500070D01*
X148153104Y-100713445D01*
X148153105Y-100713447D01*
X148153106Y-100713450D01*
X148232139Y-100882937D01*
X148246466Y-100913662D01*
X148246468Y-100913666D01*
X148373170Y-101094615D01*
X148373175Y-101094621D01*
X148529378Y-101250824D01*
X148529384Y-101250829D01*
X148710333Y-101377531D01*
X148710335Y-101377532D01*
X148710338Y-101377534D01*
X148829748Y-101433215D01*
X148839189Y-101437618D01*
X148891628Y-101483790D01*
X148910780Y-101550984D01*
X148890564Y-101617865D01*
X148839189Y-101662382D01*
X148710340Y-101722465D01*
X148710338Y-101722466D01*
X148529377Y-101849175D01*
X148373175Y-102005377D01*
X148246466Y-102186338D01*
X148246465Y-102186340D01*
X148153107Y-102386548D01*
X148153104Y-102386554D01*
X148095930Y-102599929D01*
X148095929Y-102599937D01*
X148076677Y-102819997D01*
X148076677Y-102820002D01*
X148095929Y-103040062D01*
X148095930Y-103040070D01*
X148153104Y-103253445D01*
X148153105Y-103253447D01*
X148153106Y-103253450D01*
X148232139Y-103422937D01*
X148246466Y-103453662D01*
X148246468Y-103453666D01*
X148373170Y-103634615D01*
X148373175Y-103634621D01*
X148529378Y-103790824D01*
X148529384Y-103790829D01*
X148710333Y-103917531D01*
X148710335Y-103917532D01*
X148710338Y-103917534D01*
X148829748Y-103973215D01*
X148839189Y-103977618D01*
X148891628Y-104023790D01*
X148910780Y-104090984D01*
X148890564Y-104157865D01*
X148839189Y-104202382D01*
X148710340Y-104262465D01*
X148710338Y-104262466D01*
X148529377Y-104389175D01*
X148373175Y-104545377D01*
X148246466Y-104726338D01*
X148246465Y-104726340D01*
X148153107Y-104926548D01*
X148153104Y-104926554D01*
X148095930Y-105139929D01*
X148095929Y-105139937D01*
X148076677Y-105359997D01*
X148076677Y-105360002D01*
X148095929Y-105580062D01*
X148095930Y-105580070D01*
X148153104Y-105793445D01*
X148153105Y-105793447D01*
X148153106Y-105793450D01*
X148232139Y-105962937D01*
X148246466Y-105993662D01*
X148246468Y-105993666D01*
X148373170Y-106174615D01*
X148373175Y-106174621D01*
X148529378Y-106330824D01*
X148529384Y-106330829D01*
X148710333Y-106457531D01*
X148710335Y-106457532D01*
X148710338Y-106457534D01*
X148783702Y-106491744D01*
X148839189Y-106517618D01*
X148891628Y-106563790D01*
X148910780Y-106630984D01*
X148890564Y-106697865D01*
X148839189Y-106742382D01*
X148710340Y-106802465D01*
X148710338Y-106802466D01*
X148529377Y-106929175D01*
X148373175Y-107085377D01*
X148246466Y-107266338D01*
X148246465Y-107266340D01*
X148153107Y-107466548D01*
X148153104Y-107466554D01*
X148095930Y-107679929D01*
X148095929Y-107679937D01*
X148076677Y-107899997D01*
X148076677Y-107900002D01*
X148095929Y-108120062D01*
X148095930Y-108120070D01*
X148153104Y-108333445D01*
X148153105Y-108333447D01*
X148153106Y-108333450D01*
X148232139Y-108502937D01*
X148246466Y-108533662D01*
X148246468Y-108533666D01*
X148373170Y-108714615D01*
X148373175Y-108714621D01*
X148529378Y-108870824D01*
X148529384Y-108870829D01*
X148710333Y-108997531D01*
X148710335Y-108997532D01*
X148710338Y-108997534D01*
X148829748Y-109053215D01*
X148839189Y-109057618D01*
X148891628Y-109103790D01*
X148910780Y-109170984D01*
X148890564Y-109237865D01*
X148839189Y-109282382D01*
X148710340Y-109342465D01*
X148710338Y-109342466D01*
X148529377Y-109469175D01*
X148373175Y-109625377D01*
X148246466Y-109806338D01*
X148246465Y-109806340D01*
X148153107Y-110006548D01*
X148153104Y-110006554D01*
X148095930Y-110219929D01*
X148095929Y-110219937D01*
X148076677Y-110439997D01*
X148076677Y-110440002D01*
X148095929Y-110660062D01*
X148095930Y-110660070D01*
X148153104Y-110873445D01*
X148153105Y-110873447D01*
X148153106Y-110873450D01*
X148232139Y-111042937D01*
X148246466Y-111073662D01*
X148246468Y-111073666D01*
X148373170Y-111254615D01*
X148373175Y-111254621D01*
X148529378Y-111410824D01*
X148529384Y-111410829D01*
X148710333Y-111537531D01*
X148710335Y-111537532D01*
X148710338Y-111537534D01*
X148829748Y-111593215D01*
X148839189Y-111597618D01*
X148891628Y-111643790D01*
X148910780Y-111710984D01*
X148890564Y-111777865D01*
X148839189Y-111822382D01*
X148710340Y-111882465D01*
X148710338Y-111882466D01*
X148529377Y-112009175D01*
X148373175Y-112165377D01*
X148246466Y-112346338D01*
X148246465Y-112346340D01*
X148153107Y-112546548D01*
X148153104Y-112546554D01*
X148095930Y-112759929D01*
X148095929Y-112759937D01*
X148076677Y-112979997D01*
X148076677Y-112980002D01*
X148095929Y-113200062D01*
X148095930Y-113200070D01*
X148153104Y-113413445D01*
X148153105Y-113413447D01*
X148153106Y-113413450D01*
X148246466Y-113613661D01*
X148246466Y-113613662D01*
X148246468Y-113613666D01*
X148373170Y-113794615D01*
X148373175Y-113794621D01*
X148529378Y-113950824D01*
X148529384Y-113950829D01*
X148710333Y-114077531D01*
X148710335Y-114077532D01*
X148710338Y-114077534D01*
X148770728Y-114105694D01*
X148839189Y-114137618D01*
X148891628Y-114183790D01*
X148910780Y-114250984D01*
X148890564Y-114317865D01*
X148839189Y-114362382D01*
X148710340Y-114422465D01*
X148710338Y-114422466D01*
X148529377Y-114549175D01*
X148373175Y-114705377D01*
X148246466Y-114886338D01*
X148246465Y-114886340D01*
X148153107Y-115086548D01*
X148153104Y-115086554D01*
X148095930Y-115299929D01*
X148095929Y-115299937D01*
X148076677Y-115519997D01*
X148076677Y-115520002D01*
X148095929Y-115740062D01*
X148095930Y-115740070D01*
X148153104Y-115953445D01*
X148153105Y-115953447D01*
X148153106Y-115953450D01*
X148201207Y-116056603D01*
X148246466Y-116153662D01*
X148246468Y-116153666D01*
X148373170Y-116334615D01*
X148373175Y-116334621D01*
X148529378Y-116490824D01*
X148529384Y-116490829D01*
X148710333Y-116617531D01*
X148710335Y-116617532D01*
X148710338Y-116617534D01*
X148829748Y-116673215D01*
X148839189Y-116677618D01*
X148891628Y-116723790D01*
X148910780Y-116790984D01*
X148890564Y-116857865D01*
X148839189Y-116902382D01*
X148710340Y-116962465D01*
X148710338Y-116962466D01*
X148529377Y-117089175D01*
X148373175Y-117245377D01*
X148246466Y-117426338D01*
X148246465Y-117426340D01*
X148153107Y-117626548D01*
X148153104Y-117626554D01*
X148095930Y-117839929D01*
X148095929Y-117839937D01*
X148076677Y-118059997D01*
X148076677Y-118060002D01*
X148095929Y-118280062D01*
X148095930Y-118280070D01*
X148153104Y-118493445D01*
X148153105Y-118493447D01*
X148153106Y-118493450D01*
X148202922Y-118600281D01*
X148246466Y-118693662D01*
X148246468Y-118693666D01*
X148373170Y-118874615D01*
X148373175Y-118874621D01*
X148529378Y-119030824D01*
X148529384Y-119030829D01*
X148710333Y-119157531D01*
X148710335Y-119157532D01*
X148710338Y-119157534D01*
X148829748Y-119213215D01*
X148839189Y-119217618D01*
X148891628Y-119263790D01*
X148910780Y-119330984D01*
X148890564Y-119397865D01*
X148839189Y-119442382D01*
X148710340Y-119502465D01*
X148710338Y-119502466D01*
X148529377Y-119629175D01*
X148373175Y-119785377D01*
X148246466Y-119966338D01*
X148246465Y-119966340D01*
X148153107Y-120166548D01*
X148153104Y-120166554D01*
X148095930Y-120379929D01*
X148095929Y-120379937D01*
X148076677Y-120599997D01*
X148076677Y-120600002D01*
X141849500Y-120600002D01*
X141849500Y-108286742D01*
X141851224Y-108271122D01*
X141850939Y-108271096D01*
X141851671Y-108263340D01*
X141851673Y-108263333D01*
X141849500Y-108194185D01*
X141849500Y-108164650D01*
X141848631Y-108157772D01*
X141848172Y-108151943D01*
X141846709Y-108105372D01*
X141841122Y-108086144D01*
X141837174Y-108067084D01*
X141834664Y-108047208D01*
X141834663Y-108047206D01*
X141834663Y-108047204D01*
X141817512Y-108003887D01*
X141815619Y-107998358D01*
X141802618Y-107953609D01*
X141802616Y-107953606D01*
X141792423Y-107936371D01*
X141783861Y-107918894D01*
X141776487Y-107900270D01*
X141776486Y-107900268D01*
X141749079Y-107862545D01*
X141745888Y-107857686D01*
X141722172Y-107817583D01*
X141722165Y-107817574D01*
X141708006Y-107803415D01*
X141695368Y-107788619D01*
X141683594Y-107772413D01*
X141659130Y-107752175D01*
X141647688Y-107742709D01*
X141643376Y-107738786D01*
X141146960Y-107242369D01*
X141113475Y-107181046D01*
X141111323Y-107167668D01*
X141093674Y-106999744D01*
X141035179Y-106819716D01*
X140940533Y-106655784D01*
X140813871Y-106515112D01*
X140813870Y-106515111D01*
X140660734Y-106403851D01*
X140660729Y-106403848D01*
X140487807Y-106326857D01*
X140487802Y-106326855D01*
X140342001Y-106295865D01*
X140302646Y-106287500D01*
X140113354Y-106287500D01*
X140080897Y-106294398D01*
X139928197Y-106326855D01*
X139928192Y-106326857D01*
X139755270Y-106403848D01*
X139755265Y-106403851D01*
X139602129Y-106515111D01*
X139475466Y-106655785D01*
X139380821Y-106819715D01*
X139380818Y-106819722D01*
X139323016Y-106997619D01*
X139322326Y-106999744D01*
X139302540Y-107188000D01*
X139322326Y-107376256D01*
X139322327Y-107376259D01*
X139380818Y-107556277D01*
X139380821Y-107556284D01*
X139475467Y-107720216D01*
X139522464Y-107772411D01*
X139602129Y-107860888D01*
X139755265Y-107972148D01*
X139755270Y-107972151D01*
X139928192Y-108049142D01*
X139928197Y-108049144D01*
X140113354Y-108088500D01*
X140172548Y-108088500D01*
X140239587Y-108108185D01*
X140260229Y-108124819D01*
X140562181Y-108426771D01*
X140595666Y-108488094D01*
X140598500Y-108514452D01*
X140598500Y-122345255D01*
X140596775Y-122360872D01*
X140597061Y-122360899D01*
X140596326Y-122368665D01*
X140598500Y-122437814D01*
X140598500Y-122467343D01*
X140598501Y-122467360D01*
X140599368Y-122474231D01*
X140599826Y-122480050D01*
X140601290Y-122526624D01*
X140601291Y-122526627D01*
X140606880Y-122545867D01*
X140610824Y-122564911D01*
X140611763Y-122572338D01*
X140613336Y-122584792D01*
X140630490Y-122628120D01*
X140632382Y-122633648D01*
X140641027Y-122663404D01*
X140640828Y-122733273D01*
X140602886Y-122791943D01*
X140539247Y-122820787D01*
X140470118Y-122810646D01*
X140434270Y-122785680D01*
X140128640Y-122480050D01*
X138837819Y-121189228D01*
X138804334Y-121127905D01*
X138801500Y-121101547D01*
X138801500Y-99650742D01*
X138803224Y-99635122D01*
X138802939Y-99635096D01*
X138803671Y-99627340D01*
X138803673Y-99627333D01*
X138801500Y-99558185D01*
X138801500Y-99528650D01*
X138800631Y-99521772D01*
X138800172Y-99515943D01*
X138798709Y-99469372D01*
X138793122Y-99450144D01*
X138789174Y-99431084D01*
X138786663Y-99411204D01*
X138769512Y-99367887D01*
X138767619Y-99362358D01*
X138754618Y-99317609D01*
X138754616Y-99317606D01*
X138744423Y-99300371D01*
X138735861Y-99282894D01*
X138728487Y-99264270D01*
X138728486Y-99264268D01*
X138701079Y-99226545D01*
X138697888Y-99221686D01*
X138674172Y-99181583D01*
X138674165Y-99181574D01*
X138660006Y-99167415D01*
X138647368Y-99152619D01*
X138635594Y-99136413D01*
X138618633Y-99122382D01*
X138599688Y-99106709D01*
X138595376Y-99102786D01*
X134308803Y-94816212D01*
X134298980Y-94803950D01*
X134298759Y-94804134D01*
X134293786Y-94798123D01*
X134269088Y-94774930D01*
X134243364Y-94750773D01*
X134232919Y-94740328D01*
X134222475Y-94729883D01*
X134216986Y-94725625D01*
X134212561Y-94721847D01*
X134178582Y-94689938D01*
X134178580Y-94689936D01*
X134178577Y-94689935D01*
X134161029Y-94680288D01*
X134144763Y-94669604D01*
X134128933Y-94657325D01*
X134086168Y-94638818D01*
X134080922Y-94636248D01*
X134040093Y-94613803D01*
X134040092Y-94613802D01*
X134020693Y-94608822D01*
X134002281Y-94602518D01*
X133983898Y-94594562D01*
X133983892Y-94594560D01*
X133937874Y-94587272D01*
X133932152Y-94586087D01*
X133887021Y-94574500D01*
X133887019Y-94574500D01*
X133866984Y-94574500D01*
X133847586Y-94572973D01*
X133840162Y-94571797D01*
X133827805Y-94569840D01*
X133827804Y-94569840D01*
X133781416Y-94574225D01*
X133775578Y-94574500D01*
X127651799Y-94574500D01*
X127584760Y-94554815D01*
X127550224Y-94521623D01*
X127454827Y-94385381D01*
X127454823Y-94385377D01*
X127298620Y-94229174D01*
X127298616Y-94229171D01*
X127298615Y-94229170D01*
X127117666Y-94102468D01*
X127117658Y-94102464D01*
X126988811Y-94042382D01*
X126936371Y-93996210D01*
X126917219Y-93929017D01*
X126937435Y-93862135D01*
X126988811Y-93817618D01*
X126994802Y-93814824D01*
X127117662Y-93757534D01*
X127298620Y-93630826D01*
X127454826Y-93474620D01*
X127581534Y-93293662D01*
X127674894Y-93093450D01*
X127732070Y-92880068D01*
X127751323Y-92660000D01*
X127732070Y-92439932D01*
X127674894Y-92226550D01*
X127581534Y-92026339D01*
X127454826Y-91845380D01*
X127298620Y-91689174D01*
X127298616Y-91689171D01*
X127298615Y-91689170D01*
X127117666Y-91562468D01*
X127117658Y-91562464D01*
X126988811Y-91502382D01*
X126936371Y-91456210D01*
X126917219Y-91389017D01*
X126937435Y-91322135D01*
X126988811Y-91277618D01*
X126994802Y-91274824D01*
X127117662Y-91217534D01*
X127298620Y-91090826D01*
X127454826Y-90934620D01*
X127581534Y-90753662D01*
X127674894Y-90553450D01*
X127732070Y-90340068D01*
X127751323Y-90120000D01*
X127732070Y-89899932D01*
X127674894Y-89686550D01*
X127581534Y-89486339D01*
X127454826Y-89305380D01*
X127298620Y-89149174D01*
X127298616Y-89149171D01*
X127298615Y-89149170D01*
X127117666Y-89022468D01*
X127117658Y-89022464D01*
X126988811Y-88962382D01*
X126936371Y-88916210D01*
X126917219Y-88849017D01*
X126937435Y-88782135D01*
X126988811Y-88737618D01*
X126994802Y-88734824D01*
X127117662Y-88677534D01*
X127298620Y-88550826D01*
X127454826Y-88394620D01*
X127581534Y-88213662D01*
X127674894Y-88013450D01*
X127732070Y-87800068D01*
X127748692Y-87610070D01*
X127751323Y-87580002D01*
X127751323Y-87579997D01*
X127744103Y-87497474D01*
X127732070Y-87359932D01*
X127674894Y-87146550D01*
X127581534Y-86946339D01*
X127454826Y-86765380D01*
X127298620Y-86609174D01*
X127298616Y-86609171D01*
X127298615Y-86609170D01*
X127117666Y-86482468D01*
X127117658Y-86482464D01*
X126988811Y-86422382D01*
X126936371Y-86376210D01*
X126917219Y-86309017D01*
X126937435Y-86242135D01*
X126988811Y-86197618D01*
X127009726Y-86187865D01*
X127117662Y-86137534D01*
X127298620Y-86010826D01*
X127454826Y-85854620D01*
X127581534Y-85673662D01*
X127674894Y-85473450D01*
X127732070Y-85260068D01*
X127748692Y-85070070D01*
X127751323Y-85040002D01*
X127751323Y-85039997D01*
X127744103Y-84957474D01*
X127732070Y-84819932D01*
X127674894Y-84606550D01*
X127581534Y-84406339D01*
X127454826Y-84225380D01*
X127298620Y-84069174D01*
X127298616Y-84069171D01*
X127298615Y-84069170D01*
X127117666Y-83942468D01*
X127117658Y-83942464D01*
X126988811Y-83882382D01*
X126936371Y-83836210D01*
X126917219Y-83769017D01*
X126937435Y-83702135D01*
X126988811Y-83657618D01*
X127009726Y-83647865D01*
X127117662Y-83597534D01*
X127298620Y-83470826D01*
X127454826Y-83314620D01*
X127581534Y-83133662D01*
X127674894Y-82933450D01*
X127732070Y-82720068D01*
X127748692Y-82530070D01*
X127751323Y-82500002D01*
X127751323Y-82499997D01*
X127744103Y-82417474D01*
X127732070Y-82279932D01*
X127674894Y-82066550D01*
X127581534Y-81866339D01*
X127454826Y-81685380D01*
X127298620Y-81529174D01*
X127298616Y-81529171D01*
X127298615Y-81529170D01*
X127117666Y-81402468D01*
X127117658Y-81402464D01*
X126988811Y-81342382D01*
X126936371Y-81296210D01*
X126917219Y-81229017D01*
X126937435Y-81162135D01*
X126988811Y-81117618D01*
X127009726Y-81107865D01*
X127117662Y-81057534D01*
X127298620Y-80930826D01*
X127454826Y-80774620D01*
X127581534Y-80593662D01*
X127674894Y-80393450D01*
X127732070Y-80180068D01*
X127748692Y-79990070D01*
X127751323Y-79960002D01*
X127751323Y-79959997D01*
X127744103Y-79877474D01*
X127732070Y-79739932D01*
X127674894Y-79526550D01*
X127581534Y-79326339D01*
X127454826Y-79145380D01*
X127298620Y-78989174D01*
X127298616Y-78989171D01*
X127298615Y-78989170D01*
X127117666Y-78862468D01*
X127117658Y-78862464D01*
X126988811Y-78802382D01*
X126936371Y-78756210D01*
X126917219Y-78689017D01*
X126937435Y-78622135D01*
X126988811Y-78577618D01*
X127009726Y-78567865D01*
X127117662Y-78517534D01*
X127298620Y-78390826D01*
X127454826Y-78234620D01*
X127581534Y-78053662D01*
X127674894Y-77853450D01*
X127732070Y-77640068D01*
X127748692Y-77450070D01*
X127751323Y-77420002D01*
X127751323Y-77419997D01*
X127744103Y-77337474D01*
X127732070Y-77199932D01*
X127674894Y-76986550D01*
X127581534Y-76786339D01*
X127454826Y-76605380D01*
X127298620Y-76449174D01*
X127298616Y-76449171D01*
X127298615Y-76449170D01*
X127117666Y-76322468D01*
X127117658Y-76322464D01*
X126988811Y-76262382D01*
X126936371Y-76216210D01*
X126917219Y-76149017D01*
X126937435Y-76082135D01*
X126988811Y-76037618D01*
X127009726Y-76027865D01*
X127117662Y-75977534D01*
X127298620Y-75850826D01*
X127454826Y-75694620D01*
X127581534Y-75513662D01*
X127674894Y-75313450D01*
X127732070Y-75100068D01*
X127748692Y-74910070D01*
X127751323Y-74880002D01*
X127751323Y-74879997D01*
X127744103Y-74797474D01*
X127732070Y-74659932D01*
X127674894Y-74446550D01*
X127581534Y-74246339D01*
X127454826Y-74065380D01*
X127298620Y-73909174D01*
X127298616Y-73909171D01*
X127298615Y-73909170D01*
X127117666Y-73782468D01*
X127117662Y-73782466D01*
X126981931Y-73719174D01*
X126917450Y-73689106D01*
X126917447Y-73689105D01*
X126917445Y-73689104D01*
X126704070Y-73631930D01*
X126704062Y-73631929D01*
X126484002Y-73612677D01*
X126483998Y-73612677D01*
X126263937Y-73631929D01*
X126263929Y-73631930D01*
X126050554Y-73689104D01*
X126050548Y-73689107D01*
X125850340Y-73782465D01*
X125850338Y-73782466D01*
X125669377Y-73909175D01*
X125513175Y-74065377D01*
X125386466Y-74246338D01*
X125386465Y-74246340D01*
X125293107Y-74446548D01*
X125293104Y-74446554D01*
X125235930Y-74659929D01*
X125235929Y-74659937D01*
X125216677Y-74879997D01*
X125216677Y-74880002D01*
X125235929Y-75100062D01*
X125235930Y-75100070D01*
X125293104Y-75313445D01*
X125293105Y-75313447D01*
X125293106Y-75313450D01*
X125380027Y-75499854D01*
X125386466Y-75513662D01*
X125386468Y-75513666D01*
X125513170Y-75694615D01*
X125513175Y-75694621D01*
X125669378Y-75850824D01*
X125669384Y-75850829D01*
X125850333Y-75977531D01*
X125850335Y-75977532D01*
X125850338Y-75977534D01*
X125958274Y-76027865D01*
X125979189Y-76037618D01*
X126031628Y-76083790D01*
X126050780Y-76150984D01*
X126030564Y-76217865D01*
X125979189Y-76262382D01*
X125850340Y-76322465D01*
X125850338Y-76322466D01*
X125669377Y-76449175D01*
X125513175Y-76605377D01*
X125386466Y-76786338D01*
X125386465Y-76786340D01*
X125293107Y-76986548D01*
X125293104Y-76986554D01*
X125235930Y-77199929D01*
X125235929Y-77199937D01*
X125216677Y-77419997D01*
X125216677Y-77420002D01*
X125235929Y-77640062D01*
X125235930Y-77640070D01*
X125293104Y-77853445D01*
X125293105Y-77853447D01*
X125293106Y-77853450D01*
X125297868Y-77863662D01*
X125386466Y-78053662D01*
X125386468Y-78053666D01*
X125513170Y-78234615D01*
X125513175Y-78234621D01*
X125669378Y-78390824D01*
X125669384Y-78390829D01*
X125850333Y-78517531D01*
X125850335Y-78517532D01*
X125850338Y-78517534D01*
X125958274Y-78567865D01*
X125979189Y-78577618D01*
X126031628Y-78623790D01*
X126050780Y-78690984D01*
X126030564Y-78757865D01*
X125979189Y-78802382D01*
X125850340Y-78862465D01*
X125850338Y-78862466D01*
X125669377Y-78989175D01*
X125513175Y-79145377D01*
X125386466Y-79326338D01*
X125386465Y-79326340D01*
X125293107Y-79526548D01*
X125293104Y-79526554D01*
X125235930Y-79739929D01*
X125235929Y-79739937D01*
X125216677Y-79959997D01*
X125216677Y-79960002D01*
X125235929Y-80180062D01*
X125235930Y-80180070D01*
X125293104Y-80393445D01*
X125293105Y-80393447D01*
X125293106Y-80393450D01*
X125297868Y-80403662D01*
X125386466Y-80593662D01*
X125386468Y-80593666D01*
X125513170Y-80774615D01*
X125513175Y-80774621D01*
X125669378Y-80930824D01*
X125669384Y-80930829D01*
X125850333Y-81057531D01*
X125850335Y-81057532D01*
X125850338Y-81057534D01*
X125958274Y-81107865D01*
X125979189Y-81117618D01*
X126031628Y-81163790D01*
X126050780Y-81230984D01*
X126030564Y-81297865D01*
X125979189Y-81342382D01*
X125850340Y-81402465D01*
X125850338Y-81402466D01*
X125669377Y-81529175D01*
X125513175Y-81685377D01*
X125386466Y-81866338D01*
X125386465Y-81866340D01*
X125293107Y-82066548D01*
X125293104Y-82066554D01*
X125235930Y-82279929D01*
X125235929Y-82279937D01*
X125216677Y-82499997D01*
X125216677Y-82500002D01*
X125235929Y-82720062D01*
X125235930Y-82720070D01*
X125293104Y-82933445D01*
X125293105Y-82933447D01*
X125293106Y-82933450D01*
X125297868Y-82943662D01*
X125386466Y-83133662D01*
X125386468Y-83133666D01*
X125513170Y-83314615D01*
X125513175Y-83314621D01*
X125669378Y-83470824D01*
X125669384Y-83470829D01*
X125850333Y-83597531D01*
X125850335Y-83597532D01*
X125850338Y-83597534D01*
X125958274Y-83647865D01*
X125979189Y-83657618D01*
X126031628Y-83703790D01*
X126050780Y-83770984D01*
X126030564Y-83837865D01*
X125979189Y-83882382D01*
X125850340Y-83942465D01*
X125850338Y-83942466D01*
X125669377Y-84069175D01*
X125513175Y-84225377D01*
X125386466Y-84406338D01*
X125386465Y-84406340D01*
X125293107Y-84606548D01*
X125293104Y-84606554D01*
X125235930Y-84819929D01*
X125235929Y-84819937D01*
X125216677Y-85039997D01*
X125216677Y-85040002D01*
X125235929Y-85260062D01*
X125235930Y-85260070D01*
X125293104Y-85473445D01*
X125293105Y-85473447D01*
X125293106Y-85473450D01*
X125297868Y-85483662D01*
X125386466Y-85673662D01*
X125386468Y-85673666D01*
X125513170Y-85854615D01*
X125513175Y-85854621D01*
X125669378Y-86010824D01*
X125669384Y-86010829D01*
X125850333Y-86137531D01*
X125850335Y-86137532D01*
X125850338Y-86137534D01*
X125958274Y-86187865D01*
X125979189Y-86197618D01*
X126031628Y-86243790D01*
X126050780Y-86310984D01*
X126030564Y-86377865D01*
X125979189Y-86422382D01*
X125850340Y-86482465D01*
X125850338Y-86482466D01*
X125669377Y-86609175D01*
X125513175Y-86765377D01*
X125386466Y-86946338D01*
X125386465Y-86946340D01*
X125293107Y-87146548D01*
X125293104Y-87146554D01*
X125235930Y-87359929D01*
X125235929Y-87359937D01*
X125216677Y-87579997D01*
X125216677Y-87580002D01*
X125235929Y-87800062D01*
X125235930Y-87800070D01*
X125293104Y-88013445D01*
X125293105Y-88013447D01*
X125293106Y-88013450D01*
X125297868Y-88023662D01*
X125386466Y-88213662D01*
X125386468Y-88213666D01*
X125513170Y-88394615D01*
X125513175Y-88394621D01*
X125669378Y-88550824D01*
X125669384Y-88550829D01*
X125850333Y-88677531D01*
X125850335Y-88677532D01*
X125850338Y-88677534D01*
X125969748Y-88733215D01*
X125979189Y-88737618D01*
X126031628Y-88783790D01*
X126050780Y-88850984D01*
X126030564Y-88917865D01*
X125979189Y-88962382D01*
X125850340Y-89022465D01*
X125850338Y-89022466D01*
X125669377Y-89149175D01*
X125513175Y-89305377D01*
X125386466Y-89486338D01*
X125386465Y-89486340D01*
X125293107Y-89686548D01*
X125293104Y-89686554D01*
X125235930Y-89899929D01*
X125235929Y-89899937D01*
X125216677Y-90119997D01*
X125216677Y-90120002D01*
X125235929Y-90340062D01*
X125235930Y-90340070D01*
X125293104Y-90553445D01*
X125293105Y-90553447D01*
X125293106Y-90553450D01*
X125380027Y-90739854D01*
X125386466Y-90753662D01*
X125386468Y-90753666D01*
X125513170Y-90934615D01*
X125513175Y-90934621D01*
X125669378Y-91090824D01*
X125669384Y-91090829D01*
X125850333Y-91217531D01*
X125850335Y-91217532D01*
X125850338Y-91217534D01*
X125969748Y-91273215D01*
X125979189Y-91277618D01*
X126031628Y-91323790D01*
X126050780Y-91390984D01*
X126030564Y-91457865D01*
X125979189Y-91502382D01*
X125850340Y-91562465D01*
X125850338Y-91562466D01*
X125669377Y-91689175D01*
X125513175Y-91845377D01*
X125386466Y-92026338D01*
X125386465Y-92026340D01*
X125293107Y-92226548D01*
X125293104Y-92226554D01*
X125235930Y-92439929D01*
X125235929Y-92439937D01*
X125216677Y-92659997D01*
X125216677Y-92660002D01*
X125235929Y-92880062D01*
X125235930Y-92880070D01*
X125293104Y-93093445D01*
X125293105Y-93093447D01*
X125293106Y-93093450D01*
X125372139Y-93262937D01*
X125386466Y-93293662D01*
X125386468Y-93293666D01*
X125513170Y-93474615D01*
X125513175Y-93474621D01*
X125669378Y-93630824D01*
X125669384Y-93630829D01*
X125850333Y-93757531D01*
X125850335Y-93757532D01*
X125850338Y-93757534D01*
X125969748Y-93813215D01*
X125979189Y-93817618D01*
X126031628Y-93863790D01*
X126050780Y-93930984D01*
X126030564Y-93997865D01*
X125979189Y-94042382D01*
X125850340Y-94102465D01*
X125850338Y-94102466D01*
X125669377Y-94229175D01*
X125513175Y-94385377D01*
X125386466Y-94566338D01*
X125386465Y-94566340D01*
X125293107Y-94766548D01*
X125293104Y-94766554D01*
X125235930Y-94979929D01*
X125235929Y-94979937D01*
X125216677Y-95199997D01*
X125216677Y-95200002D01*
X125235929Y-95420062D01*
X125235930Y-95420070D01*
X125293104Y-95633445D01*
X125293105Y-95633447D01*
X125293106Y-95633450D01*
X125372139Y-95802937D01*
X125386466Y-95833662D01*
X125386468Y-95833666D01*
X125513170Y-96014615D01*
X125513175Y-96014621D01*
X125669378Y-96170824D01*
X125669384Y-96170829D01*
X125850333Y-96297531D01*
X125850335Y-96297532D01*
X125850338Y-96297534D01*
X125969748Y-96353215D01*
X125979189Y-96357618D01*
X126031628Y-96403790D01*
X126050780Y-96470984D01*
X126030564Y-96537865D01*
X125979189Y-96582382D01*
X125850340Y-96642465D01*
X125850338Y-96642466D01*
X125669377Y-96769175D01*
X125513175Y-96925377D01*
X125386466Y-97106338D01*
X125386465Y-97106340D01*
X125293107Y-97306548D01*
X125293104Y-97306554D01*
X125235930Y-97519929D01*
X125235929Y-97519937D01*
X125216677Y-97739997D01*
X125216677Y-97740002D01*
X125235929Y-97960062D01*
X125235930Y-97960070D01*
X125293104Y-98173445D01*
X125293105Y-98173447D01*
X125293106Y-98173450D01*
X125372139Y-98342937D01*
X125386466Y-98373662D01*
X125386468Y-98373666D01*
X125513170Y-98554615D01*
X125513175Y-98554621D01*
X125669378Y-98710824D01*
X125669384Y-98710829D01*
X125850333Y-98837531D01*
X125850335Y-98837532D01*
X125850338Y-98837534D01*
X125969748Y-98893215D01*
X125979189Y-98897618D01*
X126031628Y-98943790D01*
X126050780Y-99010984D01*
X126030564Y-99077865D01*
X125979189Y-99122382D01*
X125850340Y-99182465D01*
X125850338Y-99182466D01*
X125669377Y-99309175D01*
X125513175Y-99465377D01*
X125386466Y-99646338D01*
X125386465Y-99646340D01*
X125293107Y-99846548D01*
X125293104Y-99846554D01*
X125235930Y-100059929D01*
X125235929Y-100059937D01*
X125216677Y-100279997D01*
X125216677Y-100280002D01*
X125235929Y-100500062D01*
X125235930Y-100500070D01*
X125293104Y-100713445D01*
X125293105Y-100713447D01*
X125293106Y-100713450D01*
X125372139Y-100882937D01*
X125386466Y-100913662D01*
X125386468Y-100913666D01*
X125513170Y-101094615D01*
X125513175Y-101094621D01*
X125669378Y-101250824D01*
X125669384Y-101250829D01*
X125850333Y-101377531D01*
X125850335Y-101377532D01*
X125850338Y-101377534D01*
X125969748Y-101433215D01*
X125979189Y-101437618D01*
X126031628Y-101483790D01*
X126050780Y-101550984D01*
X126030564Y-101617865D01*
X125979189Y-101662382D01*
X125850340Y-101722465D01*
X125850338Y-101722466D01*
X125669377Y-101849175D01*
X125513175Y-102005377D01*
X125386466Y-102186338D01*
X125386465Y-102186340D01*
X125293107Y-102386548D01*
X125293104Y-102386554D01*
X125235930Y-102599929D01*
X125235929Y-102599937D01*
X125216677Y-102819997D01*
X125216677Y-102820002D01*
X125235929Y-103040062D01*
X125235930Y-103040070D01*
X125293104Y-103253445D01*
X125293105Y-103253447D01*
X125293106Y-103253450D01*
X125372139Y-103422937D01*
X125386466Y-103453662D01*
X125386468Y-103453666D01*
X125513170Y-103634615D01*
X125513175Y-103634621D01*
X125669378Y-103790824D01*
X125669384Y-103790829D01*
X125850333Y-103917531D01*
X125850335Y-103917532D01*
X125850338Y-103917534D01*
X125969748Y-103973215D01*
X125979189Y-103977618D01*
X126031628Y-104023790D01*
X126050780Y-104090984D01*
X126030564Y-104157865D01*
X125979189Y-104202382D01*
X125850340Y-104262465D01*
X125850338Y-104262466D01*
X125669377Y-104389175D01*
X125513175Y-104545377D01*
X125386466Y-104726338D01*
X125386465Y-104726340D01*
X125293107Y-104926548D01*
X125293104Y-104926554D01*
X125235930Y-105139929D01*
X125235929Y-105139937D01*
X125216677Y-105359997D01*
X125216677Y-105360002D01*
X125235929Y-105580062D01*
X125235930Y-105580070D01*
X125293104Y-105793445D01*
X125293105Y-105793447D01*
X125293106Y-105793450D01*
X125372139Y-105962937D01*
X125386466Y-105993662D01*
X125386468Y-105993666D01*
X125513170Y-106174615D01*
X125513175Y-106174621D01*
X125669378Y-106330824D01*
X125669384Y-106330829D01*
X125850333Y-106457531D01*
X125850335Y-106457532D01*
X125850338Y-106457534D01*
X125923702Y-106491744D01*
X125979781Y-106517894D01*
X126032220Y-106564066D01*
X126051372Y-106631260D01*
X126031156Y-106698141D01*
X125979781Y-106742658D01*
X125850586Y-106802903D01*
X125785812Y-106848257D01*
X125785812Y-106848258D01*
X126217698Y-107280144D01*
X126251183Y-107341467D01*
X126246199Y-107411159D01*
X126211221Y-107461537D01*
X126094604Y-107562587D01*
X126059810Y-107616728D01*
X126007005Y-107662482D01*
X125937846Y-107672425D01*
X125874291Y-107643399D01*
X125867814Y-107637368D01*
X125432258Y-107201811D01*
X125432257Y-107201812D01*
X125386903Y-107266586D01*
X125293579Y-107466720D01*
X125293575Y-107466729D01*
X125236426Y-107680013D01*
X125236424Y-107680023D01*
X125217179Y-107899999D01*
X125217179Y-107900000D01*
X125236424Y-108119976D01*
X125236426Y-108119986D01*
X125293575Y-108333270D01*
X125293580Y-108333284D01*
X125386899Y-108533407D01*
X125386900Y-108533409D01*
X125432258Y-108598187D01*
X125867814Y-108162630D01*
X125929137Y-108129145D01*
X125998828Y-108134129D01*
X126054762Y-108176000D01*
X126059806Y-108183266D01*
X126094605Y-108237413D01*
X126205431Y-108333445D01*
X126211219Y-108338460D01*
X126248993Y-108397239D01*
X126248993Y-108467108D01*
X126217697Y-108519854D01*
X125785811Y-108951740D01*
X125785811Y-108951741D01*
X125850582Y-108997094D01*
X125850588Y-108997098D01*
X125979781Y-109057342D01*
X126032220Y-109103514D01*
X126051372Y-109170708D01*
X126031156Y-109237589D01*
X125979781Y-109282106D01*
X125850340Y-109342465D01*
X125850338Y-109342466D01*
X125669377Y-109469175D01*
X125513175Y-109625377D01*
X125386466Y-109806338D01*
X125386465Y-109806340D01*
X125293107Y-110006548D01*
X125293104Y-110006554D01*
X125235930Y-110219929D01*
X125235929Y-110219937D01*
X125216677Y-110439997D01*
X125216677Y-110440002D01*
X125235929Y-110660062D01*
X125235930Y-110660070D01*
X125293104Y-110873445D01*
X125293105Y-110873447D01*
X125293106Y-110873450D01*
X125372139Y-111042937D01*
X125386466Y-111073662D01*
X125386468Y-111073666D01*
X125513170Y-111254615D01*
X125513175Y-111254621D01*
X125669378Y-111410824D01*
X125669384Y-111410829D01*
X125850333Y-111537531D01*
X125850335Y-111537532D01*
X125850338Y-111537534D01*
X125969748Y-111593215D01*
X125979189Y-111597618D01*
X126031628Y-111643790D01*
X126050780Y-111710984D01*
X126030564Y-111777865D01*
X125979189Y-111822382D01*
X125850340Y-111882465D01*
X125850338Y-111882466D01*
X125669377Y-112009175D01*
X125513175Y-112165377D01*
X125386466Y-112346338D01*
X125386465Y-112346340D01*
X125293107Y-112546548D01*
X125293104Y-112546554D01*
X125235930Y-112759929D01*
X125235929Y-112759937D01*
X125216677Y-112979997D01*
X125216677Y-112980002D01*
X125235929Y-113200062D01*
X125235930Y-113200070D01*
X125293104Y-113413445D01*
X125293105Y-113413447D01*
X125293106Y-113413450D01*
X125386466Y-113613661D01*
X125386466Y-113613662D01*
X125386468Y-113613666D01*
X125513170Y-113794615D01*
X125513175Y-113794621D01*
X125669378Y-113950824D01*
X125669384Y-113950829D01*
X125850333Y-114077531D01*
X125850335Y-114077532D01*
X125850338Y-114077534D01*
X125910728Y-114105694D01*
X125979189Y-114137618D01*
X126031628Y-114183790D01*
X126050780Y-114250984D01*
X126030564Y-114317865D01*
X125979189Y-114362382D01*
X125850340Y-114422465D01*
X125850338Y-114422466D01*
X125669377Y-114549175D01*
X125513175Y-114705377D01*
X125386466Y-114886338D01*
X125386465Y-114886340D01*
X125293107Y-115086548D01*
X125293104Y-115086554D01*
X125235930Y-115299929D01*
X125235929Y-115299937D01*
X125216677Y-115519997D01*
X125216677Y-115520002D01*
X125235929Y-115740062D01*
X125235930Y-115740070D01*
X125293104Y-115953445D01*
X125293105Y-115953447D01*
X125293106Y-115953450D01*
X125341207Y-116056603D01*
X125386466Y-116153662D01*
X125386468Y-116153666D01*
X125513170Y-116334615D01*
X125513175Y-116334621D01*
X125669378Y-116490824D01*
X125669384Y-116490829D01*
X125850333Y-116617531D01*
X125850335Y-116617532D01*
X125850338Y-116617534D01*
X125969748Y-116673215D01*
X125979189Y-116677618D01*
X126031628Y-116723790D01*
X126050780Y-116790984D01*
X126030564Y-116857865D01*
X125979189Y-116902382D01*
X125850340Y-116962465D01*
X125850338Y-116962466D01*
X125669377Y-117089175D01*
X125513175Y-117245377D01*
X125386466Y-117426338D01*
X125386465Y-117426340D01*
X125293107Y-117626548D01*
X125293104Y-117626554D01*
X125235930Y-117839929D01*
X125235929Y-117839937D01*
X125216677Y-118059997D01*
X125216677Y-118060002D01*
X125235929Y-118280062D01*
X125235930Y-118280070D01*
X125293104Y-118493445D01*
X125293105Y-118493447D01*
X125293106Y-118493450D01*
X125342922Y-118600281D01*
X125386466Y-118693662D01*
X125386468Y-118693666D01*
X125513170Y-118874615D01*
X125513175Y-118874621D01*
X125669378Y-119030824D01*
X125669384Y-119030829D01*
X125850333Y-119157531D01*
X125850335Y-119157532D01*
X125850338Y-119157534D01*
X125969748Y-119213215D01*
X125979189Y-119217618D01*
X126031628Y-119263790D01*
X126050780Y-119330984D01*
X126030564Y-119397865D01*
X125979189Y-119442382D01*
X125850340Y-119502465D01*
X125850338Y-119502466D01*
X125669377Y-119629175D01*
X125513175Y-119785377D01*
X125386466Y-119966338D01*
X125386465Y-119966340D01*
X125293107Y-120166548D01*
X125293104Y-120166554D01*
X125235930Y-120379929D01*
X125235929Y-120379937D01*
X125216677Y-120599997D01*
X125216677Y-120600002D01*
X123625500Y-120600002D01*
X123625500Y-107198687D01*
X123645185Y-107131648D01*
X123657350Y-107115715D01*
X123675891Y-107095122D01*
X123732533Y-107032216D01*
X123827179Y-106868284D01*
X123885674Y-106688256D01*
X123905460Y-106500000D01*
X123885674Y-106311744D01*
X123827179Y-106131716D01*
X123732533Y-105967784D01*
X123605871Y-105827112D01*
X123605870Y-105827111D01*
X123452734Y-105715851D01*
X123452729Y-105715848D01*
X123279807Y-105638857D01*
X123279802Y-105638855D01*
X123117600Y-105604379D01*
X123094646Y-105599500D01*
X122905354Y-105599500D01*
X122882400Y-105604379D01*
X122720197Y-105638855D01*
X122720192Y-105638857D01*
X122547270Y-105715848D01*
X122547265Y-105715851D01*
X122394129Y-105827111D01*
X122267466Y-105967785D01*
X122172821Y-106131715D01*
X122172818Y-106131722D01*
X122132332Y-106256327D01*
X122114326Y-106311744D01*
X122094540Y-106500000D01*
X121125500Y-106500000D01*
X121125500Y-103310452D01*
X121145185Y-103243413D01*
X121161819Y-103222771D01*
X121947772Y-102436819D01*
X122009095Y-102403334D01*
X122035453Y-102400500D01*
X122094644Y-102400500D01*
X122094646Y-102400500D01*
X122279803Y-102361144D01*
X122452730Y-102284151D01*
X122605871Y-102172888D01*
X122732533Y-102032216D01*
X122827179Y-101868284D01*
X122885674Y-101688256D01*
X122905460Y-101500000D01*
X122885674Y-101311744D01*
X122827179Y-101131716D01*
X122732533Y-100967784D01*
X122605871Y-100827112D01*
X122605870Y-100827111D01*
X122452734Y-100715851D01*
X122452729Y-100715848D01*
X122279807Y-100638857D01*
X122279802Y-100638855D01*
X122134000Y-100607865D01*
X122094646Y-100599500D01*
X121905354Y-100599500D01*
X121872897Y-100606398D01*
X121720197Y-100638855D01*
X121720192Y-100638857D01*
X121547270Y-100715848D01*
X121547265Y-100715851D01*
X121394129Y-100827111D01*
X121267466Y-100967785D01*
X121172821Y-101131715D01*
X121172818Y-101131722D01*
X121114327Y-101311740D01*
X121114326Y-101311744D01*
X121097599Y-101470894D01*
X121096679Y-101479649D01*
X121070094Y-101544263D01*
X121061039Y-101554368D01*
X120116208Y-102499199D01*
X120103951Y-102509020D01*
X120104134Y-102509241D01*
X120098123Y-102514213D01*
X120050772Y-102564636D01*
X120029889Y-102585519D01*
X120029877Y-102585532D01*
X120025621Y-102591017D01*
X120021837Y-102595447D01*
X119989937Y-102629418D01*
X119989936Y-102629420D01*
X119980284Y-102646976D01*
X119969610Y-102663226D01*
X119957329Y-102679061D01*
X119957324Y-102679068D01*
X119938815Y-102721838D01*
X119936245Y-102727084D01*
X119913803Y-102767906D01*
X119908822Y-102787307D01*
X119902521Y-102805710D01*
X119894562Y-102824102D01*
X119894561Y-102824105D01*
X119887271Y-102870127D01*
X119886087Y-102875846D01*
X119874501Y-102920972D01*
X119874500Y-102920982D01*
X119874500Y-102941016D01*
X119872973Y-102960415D01*
X119869840Y-102980194D01*
X119869839Y-102980197D01*
X112827475Y-102980197D01*
X112878743Y-102891398D01*
X112977334Y-102640195D01*
X113037383Y-102377103D01*
X113050615Y-102200531D01*
X113057549Y-102108004D01*
X113057549Y-102107995D01*
X113037383Y-101838898D01*
X113014049Y-101736666D01*
X112977334Y-101575805D01*
X112878743Y-101324602D01*
X112743815Y-101090898D01*
X112575561Y-100879915D01*
X112575560Y-100879914D01*
X112575557Y-100879910D01*
X112377741Y-100696365D01*
X112154775Y-100544349D01*
X112154769Y-100544346D01*
X112154768Y-100544345D01*
X112154767Y-100544344D01*
X111911643Y-100427263D01*
X111911645Y-100427263D01*
X111653773Y-100347720D01*
X111653767Y-100347718D01*
X111386936Y-100307500D01*
X111386929Y-100307500D01*
X111117071Y-100307500D01*
X111117063Y-100307500D01*
X110850232Y-100347718D01*
X110850226Y-100347720D01*
X110592358Y-100427262D01*
X110349230Y-100544346D01*
X110126258Y-100696365D01*
X109928442Y-100879910D01*
X109760185Y-101090898D01*
X109625258Y-101324599D01*
X109625256Y-101324603D01*
X109526666Y-101575804D01*
X109526664Y-101575811D01*
X109466616Y-101838898D01*
X109446451Y-102107995D01*
X109446451Y-102108004D01*
X104648500Y-102108004D01*
X104648500Y-98375870D01*
X109451500Y-98375870D01*
X109451501Y-98375876D01*
X109457908Y-98435483D01*
X109508202Y-98570328D01*
X109508206Y-98570335D01*
X109594452Y-98685544D01*
X109594455Y-98685547D01*
X109709664Y-98771793D01*
X109709671Y-98771797D01*
X109844517Y-98822091D01*
X109844516Y-98822091D01*
X109851444Y-98822835D01*
X109904127Y-98828500D01*
X112599872Y-98828499D01*
X112659483Y-98822091D01*
X112794331Y-98771796D01*
X112909546Y-98685546D01*
X112995796Y-98570331D01*
X113046091Y-98435483D01*
X113052500Y-98375873D01*
X113052499Y-95680128D01*
X113046091Y-95620517D01*
X113034540Y-95589548D01*
X112995797Y-95485671D01*
X112995793Y-95485664D01*
X112909547Y-95370455D01*
X112909544Y-95370452D01*
X112794335Y-95284206D01*
X112794328Y-95284202D01*
X112659482Y-95233908D01*
X112659483Y-95233908D01*
X112599883Y-95227501D01*
X112599881Y-95227500D01*
X112599873Y-95227500D01*
X112599864Y-95227500D01*
X109904129Y-95227500D01*
X109904123Y-95227501D01*
X109844516Y-95233908D01*
X109709671Y-95284202D01*
X109709664Y-95284206D01*
X109594455Y-95370452D01*
X109594452Y-95370455D01*
X109508206Y-95485664D01*
X109508202Y-95485671D01*
X109457908Y-95620517D01*
X109456518Y-95633451D01*
X109451501Y-95680123D01*
X109451500Y-95680135D01*
X109451500Y-98375870D01*
X104648500Y-98375870D01*
X104648500Y-66107763D01*
X107365787Y-66107763D01*
X107395413Y-66377013D01*
X107395415Y-66377024D01*
X107463926Y-66639082D01*
X107463928Y-66639088D01*
X107569870Y-66888390D01*
X107641998Y-67006575D01*
X107710979Y-67119605D01*
X107710986Y-67119615D01*
X107884253Y-67327819D01*
X107884259Y-67327824D01*
X108085998Y-67508582D01*
X108311910Y-67658044D01*
X108557176Y-67773020D01*
X108557183Y-67773022D01*
X108557185Y-67773023D01*
X108816557Y-67851057D01*
X108816564Y-67851058D01*
X108816569Y-67851060D01*
X109084561Y-67890500D01*
X109084566Y-67890500D01*
X109287636Y-67890500D01*
X109339133Y-67886730D01*
X109490156Y-67875677D01*
X109602758Y-67850593D01*
X109754546Y-67816782D01*
X109754548Y-67816781D01*
X109754553Y-67816780D01*
X110007558Y-67720014D01*
X110243777Y-67587441D01*
X110458177Y-67421888D01*
X110646186Y-67226881D01*
X110803799Y-67006579D01*
X110877787Y-66862669D01*
X110927649Y-66765690D01*
X110927651Y-66765684D01*
X110927656Y-66765675D01*
X111015118Y-66509305D01*
X111064319Y-66242933D01*
X111074212Y-65972235D01*
X111044586Y-65702982D01*
X110976072Y-65440912D01*
X110870130Y-65191610D01*
X110729018Y-64960390D01*
X110639747Y-64853119D01*
X110555746Y-64752180D01*
X110555740Y-64752175D01*
X110354002Y-64571418D01*
X110128092Y-64421957D01*
X110128090Y-64421956D01*
X109882824Y-64306980D01*
X109882819Y-64306978D01*
X109882814Y-64306976D01*
X109623442Y-64228942D01*
X109623428Y-64228939D01*
X109507791Y-64211921D01*
X109355439Y-64189500D01*
X109152369Y-64189500D01*
X109152364Y-64189500D01*
X108949844Y-64204323D01*
X108949831Y-64204325D01*
X108685453Y-64263217D01*
X108685446Y-64263220D01*
X108432439Y-64359987D01*
X108196226Y-64492557D01*
X107981822Y-64658112D01*
X107793822Y-64853109D01*
X107793816Y-64853116D01*
X107636202Y-65073419D01*
X107636199Y-65073424D01*
X107512350Y-65314309D01*
X107512343Y-65314327D01*
X107424884Y-65570685D01*
X107424881Y-65570699D01*
X107375681Y-65837068D01*
X107375680Y-65837075D01*
X107365787Y-66107763D01*
X104648500Y-66107763D01*
X104648500Y-61084500D01*
X104668185Y-61017461D01*
X104720989Y-60971706D01*
X104772500Y-60960500D01*
X127876000Y-60960500D01*
X127943039Y-60980185D01*
G37*
%TD.AperFunction*%
%TD*%
M02*
